<?xml version="1.0" standalone="no"?><!DOCTYPE svg PUBLIC "-//W3C//DTD SVG 1.1//EN" "http://www.w3.org/Graphics/SVG/1.1/DTD/svg11.dtd"><svg t="1551626851661" class="icon" style="" viewBox="0 0 1024 1024" version="1.1" xmlns="http://www.w3.org/2000/svg" p-id="1886" xmlns:xlink="http://www.w3.org/1999/xlink" width="100" height="100"><defs><style type="text/css"></style></defs><path d="M599.103103 922.109937a449.949536 449.949536 0 0 1-10.137891-60.64479l3.979701-5.281926c1.217034 0.657198-1.09533-3.651101 0.267747-3.651102 6.085169 0 10.953303-6.997944 10.953303-15.638883s-4.868135-15.638883-10.953303-15.638883a7.959401 7.959401 0 0 0-2.774837 0.523324l0.389451-10.47866a7.995912 7.995912 0 0 0 3.931019 1.058819c6.085169 0 10.953303-7.058796 10.953303-15.821438s-4.868135-15.821438-10.953303-15.821438a7.728164 7.728164 0 0 0-2.823518 0.559835l0.36511-9.833632a8.361022 8.361022 0 0 0 2.434067 0.37728c6.085169 0 10.953303-6.535471 10.953304-14.604404s-4.868135-14.604405-10.953304-14.604405a8.933027 8.933027 0 0 0-1.399589 0.133874l0.060852-1.618655c1.618655-9.979676 2.847859-15.50501 5.160223-25.387323l23.330536-99.918469H372.978238l22.977597 104.579708a448.123985 448.123985 0 0 1 0 192.291327L380.949809 980.929177a29.890348 29.890348 0 0 0 29.208809 36.304116h173.828926a29.890348 29.890348 0 0 0 29.062766-36.863952z" fill="#FFFFFF" p-id="1887"></path><path d="M613.05031 980.33283l-13.947207-58.222893a449.949536 449.949536 0 0 1-10.137891-60.64479l3.979701-5.281926c1.217034 0.657198-1.09533-3.651101 0.267747-3.651102 6.085169 0 10.953303-6.997944 10.953303-15.638883s-4.868135-15.638883-10.953303-15.638883a7.959401 7.959401 0 0 0-2.774837 0.523324l0.389451-10.47866a7.995912 7.995912 0 0 0 3.931019 1.058819c6.085169 0 10.953303-7.058796 10.953303-15.821438s-4.868135-15.821438-10.953303-15.821438a7.728164 7.728164 0 0 0-2.823518 0.559835l0.36511-9.833632a8.361022 8.361022 0 0 0 2.434067 0.37728c6.085169 0 10.953303-6.535471 10.953304-14.604404s-4.868135-14.604405-10.953304-14.604405a8.933027 8.933027 0 0 0-1.399589 0.133874l0.060852-1.618655c1.618655-9.979676 2.847859-15.50501 5.160223-25.387323l23.330536-99.918469H394.945697l22.965426 104.579708a447.734535 447.734535 0 0 1 0 192.291327L402.917268 980.929177a29.890348 29.890348 0 0 0 29.208809 36.304116h151.861467a29.890348 29.890348 0 0 0 29.062766-36.900463z" fill="#F2E8BD" p-id="1888"></path><path d="M599.103103 922.109937a449.949536 449.949536 0 0 1-10.137891-60.64479l3.979701-5.281926c1.217034 0.657198-1.09533-3.651101 0.267747-3.651102 6.085169 0 10.953303-6.997944 10.953303-15.638883s-4.868135-15.638883-10.953303-15.638883a7.959401 7.959401 0 0 0-2.774837 0.523324l0.389451-10.47866a7.995912 7.995912 0 0 0 3.931019 1.058819c6.085169 0 10.953303-7.058796 10.953303-15.821438s-4.868135-15.821438-10.953303-15.821438a7.728164 7.728164 0 0 0-2.823518 0.559835l0.36511-9.833632a8.361022 8.361022 0 0 0 2.434067 0.37728c6.085169 0 10.953303-6.535471 10.953304-14.604404s-4.868135-14.604405-10.953304-14.604405a8.933027 8.933027 0 0 0-1.399589 0.133874l0.060852-1.618655c1.618655-9.979676 2.847859-15.50501 5.160223-25.387323l23.330536-99.918469h-27.711857l-23.367048 100.028002c-7.448246 28.393397-5.622696 180.522611 0.584176 206.311555l13.922866 58.174212a29.890348 29.890348 0 0 1-29.062765 36.863952h27.711858a29.890348 29.890348 0 0 0 29.062765-36.863952z" fill="#D6C88B" p-id="1889"></path><path d="M358.118257 586.038246l276.035417 0 0 29.732134-276.035417 0 0-29.732134Z" fill="#FFFFFF" p-id="1890"></path><path d="M634.141504 600.910398a14.859982 14.859982 0 0 0-14.859982-14.872152H401.724575a14.872152 14.872152 0 0 0 0 29.732134h217.556947a14.859982 14.859982 0 0 0 14.859982-14.859982z" fill="#F2E8BD" p-id="1891"></path><path d="M619.281522 586.038246h-28.746336a14.872152 14.872152 0 0 1 0 29.732134h28.746336a14.872152 14.872152 0 0 0 0-29.732134z" fill="#D6C88B" p-id="1892"></path><path d="M591.39928 518.115594s19.034407-15.444158 40.636756 7.448247c17.257538 18.255506 1.849891 44.38522 24.803147 47.026183 0 0-55.034265 9.821462-75.589964-33.310213-6.596323-13.764651 10.150061-21.164216 10.150061-21.164217z" fill="#FFFFFF" p-id="1893"></path><path d="M631.999525 525.563841a42.754395 42.754395 0 0 0-13.496904-10.016188 26.774742 26.774742 0 0 0-13.521245 5.002009s-16.697703 7.399565-10.137891 21.164216c8.920857 18.730149 24.340674 27.468451 38.945079 31.375129a93.188272 93.188272 0 0 0 23.001937-0.498983c-22.941086-2.640963-7.533439-28.721996-24.790976-47.026183z" fill="#6A935F" p-id="1894"></path><path d="M631.999525 525.563841a42.754395 42.754395 0 0 0-13.496904-10.016188 27.018149 27.018149 0 0 0-7.19267 1.630825 45.894342 45.894342 0 0 1 10.344787 8.385363c17.257538 18.255506 1.849891 44.38522 24.803147 47.026183a74.385101 74.385101 0 0 1-8.214977 0.827583 91.180166 91.180166 0 0 0 18.559764-0.827583c-22.953256-2.640963-7.545609-28.721996-24.803147-47.026183z" fill="#4F7744" p-id="1895"></path><path d="M592.932742 477.661394s3.870167-21.200727-17.269708-29.354854c-15.88229-6.085169-40.466371 7.715994-56.275639-6.085168 0 0 7.460417 31.75241 40.892333 38.799035 20.640892 4.296129 32.653015-3.359013 32.653014-3.359013z" fill="#FFFFFF" p-id="1896"></path><path d="M575.577841 482.22527c11.18454-0.596347 17.415753-4.563876 17.415753-4.563876s3.857997-21.103365-17.135835-29.306172c-10.515171 0.827583-22.052651 3.334672-31.874113 0.073022a66.291827 66.291827 0 0 1-6.766707 0.109533c3.480716 9.066901 13.71597 28.101309 38.360902 33.687493z" fill="#6A935F" p-id="1897"></path><path d="M552.454201 449.961706a33.456257 33.456257 0 0 1-8.519236-1.533462 66.291827 66.291827 0 0 1-6.766708 0.109533q0.35294 0.912775 0.803243 1.935083a78.109224 78.109224 0 0 0 14.482701-0.511154zM575.796907 448.355222c-3.894508 0.316429-7.93506 0.851924-11.975611 1.217033 19.241303 8.604428 15.590202 28.648974 15.590202 28.648974a30.523206 30.523206 0 0 1-7.55778 3.006073c1.217034 0.35294 2.434067 0.693709 3.651101 0.973627 11.18454-0.596347 17.415753-4.563876 17.415753-4.563876s3.870167-21.079024-17.123665-29.281831z" fill="#4F7744" p-id="1898"></path><path d="M437.383663 524.541532s-4.928987-12.425914 17.038472-18.255505c17.939077-4.746432 23.440069 12.352892 44.433901 13.302178 0 0-23.634795 32.713866-55.983551 20.92081-10.332616-3.797145-5.488822-15.967482-5.488822-15.967483z" fill="#FFFFFF" p-id="1899"></path><path d="M498.551777 519.892464l-1.387418-0.450303c-12.973579-1.144012-19.874161-8.519236-28.076968-12.097315a23.500921 23.500921 0 0 0-5.890443 0.815413c-21.906607 5.805251-17.038472 18.255506-17.038472 18.255505s-4.868135 12.231189 5.464481 15.991823c0.438132 0.158214 0.864094 0.279918 1.302226 0.425962 25.289961 2.5436 43.31423-19.910672 45.626594-22.941085z" fill="#6A935F" p-id="1900"></path><path d="M478.373358 512.565921a79.520983 79.520983 0 0 0-9.285967-5.221075h-0.645028a62.360808 62.360808 0 0 0 9.930995 5.221075zM497.164359 519.442161a36.145901 36.145901 0 0 1-9.103412-2.020276c-5.221075 6.085169-20.689573 21.906607-41.48868 21.030343a9.651077 9.651077 0 0 0 5.099372 3.931019c0.438132 0.158214 0.864094 0.279918 1.302226 0.425962 25.192598 2.567941 43.265549-19.886331 45.577912-22.916745z" fill="#4F7744" p-id="1901"></path><path d="M417.363458 491.389534s-2.969562-16.916769-33.431916-8.957368c-31.095211 8.117615-27.991776 32.397438-51.018054 30.024222 0 0 60.413554 39.468403 89.792748 1.789039 9.346819-12.024293-5.342778-22.855893-5.342778-22.855893z" fill="#FFFFFF" p-id="1902"></path><path d="M422.681895 514.245427c9.37116-12.024293-5.342778-22.855893-5.342778-22.855893a11.890419 11.890419 0 0 0-2.653133-5.05069c-4.649069-0.584176-10.746408-0.219066-18.75449 1.874232-31.095211 8.117615-27.991776 32.397438-51.018053 30.024222 0 0 2.53143 1.655166 6.791048 3.955359 20.2271 8.580088 52.040362 16.332592 70.977406-7.94723z" fill="#6A935F" p-id="1903"></path><path d="M417.363458 491.389534a11.890419 11.890419 0 0 0-2.653133-5.05069 36.316286 36.316286 0 0 0-5.427971-0.219066c3.565909 3.310332 11.038496 11.999952 3.651101 21.431964-16.770725 21.517156-43.654999 17.878225-63.638693 10.807259a27.030319 27.030319 0 0 1-4.381321-0.121703s2.53143 1.655166 6.791048 3.955359c20.2271 8.580088 52.040362 16.332592 70.977406-7.94723 9.37116-12.024293-5.318437-22.855893-5.318437-22.855893z" fill="#4F7744" p-id="1904"></path><path d="M575.723885 300.120515c-1.375248 21.176387-17.038472 26.774742-35.902494 25.557708s-33.687493-8.786983-32.312245-29.96337 18.450231-47.963299 37.289913-46.734095 32.300075 29.96337 30.924826 51.139757z" fill="#FFFFFF" p-id="1905"></path><path d="M549.472468 249.857022c-15.748416 4.868135-28.795018 27.43194-29.987711 45.83349-1.338737 20.604381 12.669321 28.320375 30.778783 29.841667 13.898525-1.387418 24.340674-8.31234 25.460345-25.411664 1.265715-19.387347-9.882314-45.10327-26.251417-50.263493z" fill="#EDD366" p-id="1906"></path><path d="M549.472468 249.857022a26.859934 26.859934 0 0 0-7.180499 3.505057c12.535447 9.042561 20.531359 30.206777 19.47254 46.758436-0.924946 14.409679-8.519236 21.565837-19.180452 24.340674a61.119433 61.119433 0 0 0 7.703824 1.107501c13.898525-1.387418 24.340674-8.31234 25.460345-25.411664 1.241374-19.423858-9.906654-45.139781-26.275758-50.300004z" fill="#DDC14E" p-id="1907"></path><path d="M544.799059 248.956417s-19.983694-1.290056-30.072903 22.73419c0 0 16.016164 5.866103 16.198718 13.277838 0 0 13.995888-16.137867 25.350813 3.23731 0 0 8.154126-15.006026 17.646989-5.622696 3.432035 3.419865-14.519212-35.367-29.123617-33.626642z" fill="#FFFFFF" p-id="1908"></path><path d="M947.600708 1024H708.234517a4.68558 4.68558 0 0 1 0-9.358989h239.366191a4.68558 4.68558 0 0 1 0 9.358989zM681.179857 1024H76.399292a4.68558 4.68558 0 0 1 0-9.358989h604.780565a4.68558 4.68558 0 0 1 0 9.358989z" fill="" p-id="1909"></path><path d="M384.917339 361.166926m-43.606318 0a43.606318 43.606318 0 1 0 87.212636 0 43.606318 43.606318 0 1 0-87.212636 0Z" fill="#FFFFFF" p-id="1910"></path><path d="M428.389784 364.452917a43.594148 43.594148 0 0 0-35.71994-46.247281 43.618488 43.618488 0 0 0 0 85.825218 43.618488 43.618488 0 0 0 35.71994-39.577937z" fill="#E29054" p-id="1911"></path><path d="M392.669844 318.254317a42.510988 42.510988 0 0 0-5.793081 1.472611 43.606318 43.606318 0 0 1 0 82.867826 43.66717 43.66717 0 0 0 5.841762 1.484781 43.618488 43.618488 0 0 0 0-85.825218z" fill="#D3793C" p-id="1912"></path><path d="M388.184061 317.679768a20.458337 30.267629 4.32 1 0 4.559927-60.363271 20.458337 30.267629 4.32 1 0-4.559927 60.363271Z" fill="#FFFFFF" p-id="1913"></path><path d="M397.22155 258.42494c-8.373192 3.407694-15.030366 14.251465-16.040504 27.541473-1.08316 14.360998 4.795113 26.896445 13.655118 30.620568 8.373192-3.419865 15.042537-14.251465 16.040504-27.541473 1.08316-14.373168-4.795113-26.896445-13.655118-30.620568z" fill="#EDD366" p-id="1914"></path><path d="M397.22155 258.42494a19.375177 19.375177 0 0 0-6.255553 4.235277c5.40363 5.744399 8.519236 15.541521 7.740334 26.385291-0.73022 9.73627-4.527365 18.158143-9.73627 23.306196a17.427923 17.427923 0 0 0 5.914784 4.235277c8.373192-3.419865 15.042537-14.251465 16.040505-27.541473 1.034479-14.373168-4.843794-26.896445-13.7038-30.620568z" fill="#DDC14E" p-id="1915"></path><path d="M309.702298 375.990521a30.267629 20.458337 4.32 1 0 3.082123-40.800425 30.267629 20.458337 4.32 1 0-3.082123 40.800425Z" fill="#FFFFFF" p-id="1916"></path><path d="M341.432724 357.880935c0.803242-10.636875-10.588193-20.287952-25.886307-22.39342-12.292041 1.752529-21.614519 8.774813-22.296057 17.829544-0.803242 10.636875 10.576023 20.287952 25.886307 22.38125 12.292041-1.740358 21.553667-8.762643 22.296057-17.817374z" fill="#EDD366" p-id="1917"></path><path d="M315.546417 335.487515a39.772662 39.772662 0 0 0-6.14602 1.399588c11.939101 3.553738 20.141908 11.91476 19.472539 20.993832-0.559836 7.472587-7.010114 13.545585-16.150037 16.429955a42.778735 42.778735 0 0 0 6.438108 1.387419c12.292041-1.740358 21.602348-8.762643 22.296058-17.817374 0.778902-10.636875-10.612534-20.287952-25.910648-22.39342z" fill="#DDC14E" p-id="1918"></path><path d="M305.939312 429.041974a20.458337 30.267629 49.32 1 0 45.907634-39.458922 20.458337 30.267629 49.32 1 0-45.907634 39.458922Z" fill="#FFFFFF" p-id="1919"></path><path d="M351.838363 389.584663a14.945174 14.945174 0 0 0-7.143988-4.527365 40.283816 40.283816 0 0 0-16.563829 8.738302c-12.669321 10.892452-17.038472 26.677379-9.614566 35.293978a15.006026 15.006026 0 0 0 7.143987 4.527365 40.283816 40.283816 0 0 0 16.563829-8.738302c12.681491-10.941133 16.97762-26.72606 9.614567-35.293978z" fill="#EDD366" p-id="1920"></path><path d="M351.838363 389.584663a14.945174 14.945174 0 0 0-7.143988-4.527365 37.058677 37.058677 0 0 0-6.645004 2.336705 13.935036 13.935036 0 0 1 2.434067 2.19066c7.302202 8.519236 3.066925 24.340674-9.614566 35.293978a43.070823 43.070823 0 0 1-9.918825 6.401598 15.578032 15.578032 0 0 0 4.69775 2.336704 40.283816 40.283816 0 0 0 16.563829-8.738302c12.693662-10.941133 16.989791-26.72606 9.626737-35.293978z" fill="#DDC14E" p-id="1921"></path><path d="M377.05747 465.004391a20.458337 30.267629 4.32 1 0 4.559927-60.363271 20.458337 30.267629 4.32 1 0-4.559927 60.363271Z" fill="#FFFFFF" p-id="1922"></path><path d="M386.535994 405.929426c-8.154126 3.651101-14.604405 14.312317-15.565861 27.346748-1.07099 14.129761 4.600387 26.482654 13.204816 30.425843 8.154126-3.651101 14.604405-14.312317 15.578031-27.346748 1.058819-14.117591-4.600387-26.470483-13.216986-30.425843z" fill="#EDD366" p-id="1923"></path><path d="M386.535994 405.929426a19.192622 19.192622 0 0 0-4.600387 2.957392c6.085169 5.549674 9.73627 15.918801 8.835664 27.480622-0.791072 10.45432-5.099371 19.387347-10.953303 24.340674a17.306219 17.306219 0 0 0 4.369151 2.957392c8.154126-3.651101 14.604405-14.312317 15.578032-27.346748 1.046649-14.08108-4.612558-26.433972-13.229157-30.389332z" fill="#DDC14E" p-id="1924"></path><path d="M417.548219 430.509845a30.267629 20.458337 49.32 1 0 31.029647-26.670867 30.267629 20.458337 49.32 1 0-31.029647 26.670867Z" fill="#FFFFFF" p-id="1925"></path><path d="M448.580373 403.848299a38.555628 38.555628 0 0 0-18.559764-12.340722 14.470531 14.470531 0 0 0-4.868135 2.726155c-8.519236 7.363054-6.681515 23.610454 4.210937 36.279775a38.494777 38.494777 0 0 0 18.559764 12.340722 14.263635 14.263635 0 0 0 4.868135-2.726155c8.567917-7.363054 6.681515-23.610454-4.210937-36.279775z" fill="#EDD366" p-id="1926"></path><path d="M448.580373 403.848299a38.555628 38.555628 0 0 0-18.559764-12.340722 14.969515 14.969515 0 0 0-4.442173 2.348875 41.379146 41.379146 0 0 1 12.571958 9.991847c10.892452 12.669321 12.778854 28.916721 4.210937 36.279775l-0.474643 0.37728a31.642877 31.642877 0 0 0 5.987805 2.348875 14.263635 14.263635 0 0 0 4.868135-2.726155c8.616599-7.363054 6.730196-23.610454-4.162255-36.279775z" fill="#DDC14E" p-id="1927"></path><path d="M457.028047 387.118325a30.267629 20.458337 4.32 1 0 3.082123-40.800425 30.267629 20.458337 4.32 1 0-3.082123 40.800425Z" fill="#FFFFFF" p-id="1928"></path><path d="M488.742486 369.004623c0.803242-10.588193-10.46649-20.190589-25.667241-22.356909-12.170337 1.80121-21.419793 8.786983-22.101333 17.805203-0.803242 10.588193 10.47866 20.190589 25.667241 22.35691 12.194678-1.80121 21.419793-8.786983 22.101333-17.805204z" fill="#EDD366" p-id="1929"></path><path d="M463.075245 346.647714a39.322359 39.322359 0 0 0-6.085169 1.399589c11.866079 3.590249 20.008034 11.91476 19.326495 20.95732-0.572006 7.448246-6.973603 13.509074-16.052674 16.393444a41.671235 41.671235 0 0 0 6.352916 1.41176c12.170337-1.80121 21.419793-8.786983 22.101332-17.805204 0.827583-10.588193-10.442149-20.190589-25.6429-22.356909z" fill="#DDC14E" p-id="1930"></path><path d="M417.982907 332.734102a20.458337 30.267629 49.32 1 0 45.907634-39.458922 20.458337 30.267629 49.32 1 0-45.907634 39.458922Z" fill="#FFFFFF" p-id="1931"></path><path d="M463.878487 293.305126a15.018196 15.018196 0 0 0-7.496928-4.612558 40.271646 40.271646 0 0 0-16.916769 8.823495c-12.681491 10.953303-17.038472 26.677379-9.614566 35.293978a14.981685 14.981685 0 0 0 7.496928 4.612557 40.003898 40.003898 0 0 0 16.916768-8.823494c12.681491-10.953303 16.989791-26.774742 9.614567-35.293978z" fill="#EDD366" p-id="1932"></path><path d="M463.878487 293.305126a15.018196 15.018196 0 0 0-7.496928-4.612558 36.511012 36.511012 0 0 0-6.791048 2.324535 14.604405 14.604405 0 0 1 2.53143 2.288023c7.363054 8.580088 3.054755 24.340674-9.614566 35.293978a42.267581 42.267581 0 0 1-10.137891 6.49896 16.23523 16.23523 0 0 0 4.977668 2.324534 40.003898 40.003898 0 0 0 16.916768-8.823494c12.681491-10.953303 16.989791-26.774742 9.614567-35.293978z" fill="#DDC14E" p-id="1933"></path><path d="M321.24828 318.47548a30.267629 20.458337 49.32 1 0 31.029647-26.670868 30.267629 20.458337 49.32 1 0-31.029647 26.670868Z" fill="#FFFFFF" p-id="1934"></path><path d="M352.276495 291.808175a38.555628 38.555628 0 0 0-18.340698-12.2677 14.117591 14.117591 0 0 0-4.734261 2.653133c-8.519236 7.302202-6.681515 23.610454 4.210936 36.279775a38.640821 38.640821 0 0 0 18.340698 12.279871 14.360998 14.360998 0 0 0 4.734262-2.665304c8.543577-7.363054 6.681515-23.610454-4.210937-36.279775z" fill="#EDD366" p-id="1935"></path><path d="M352.276495 291.808175a38.555628 38.555628 0 0 0-18.340698-12.2677 14.117591 14.117591 0 0 0-4.734261 2.653133l-0.109533 0.109533a41.85379 41.85379 0 0 1 11.622672 9.505034c10.84377 12.608469 12.754513 28.758507 4.320469 36.170242a32.981614 32.981614 0 0 0 6.718026 2.774837 14.360998 14.360998 0 0 0 4.734262-2.665304c8.543577-7.363054 6.681515-23.610454-4.210937-36.279775z" fill="#DDC14E" p-id="1936"></path><path d="M384.917339 361.166926m-17.6835 0a17.6835 17.6835 0 1 0 35.367 0 17.6835 17.6835 0 1 0-35.367 0Z" fill="#FFFFFF" p-id="1937"></path><path d="M384.990361 409.446654c-1.217034 0-2.434067 0-3.651101-0.133874a48.279728 48.279728 0 1 1 51.772614-44.519093 48.291898 48.291898 0 0 1-48.060661 44.652967z m-0.109533-87.212636a38.945079 38.945079 0 1 0 38.847716 41.865959 38.945079 38.945079 0 0 0-35.878154-41.756426c-0.997968-0.073022-1.983765-0.109533-2.969562-0.109533z m43.508956 42.218899z" fill="" p-id="1938"></path><path d="M389.298661 322.392232h-1.448271c-7.046625-0.535495-13.253497-4.868135-17.464433-12.2677a43.277719 43.277719 0 0 1-4.977668-24.462378c1.484781-19.545562 13.642948-34.076944 27.699687-32.945102 7.046625 0.523324 13.253497 4.868135 17.464434 12.267699a43.180356 43.180356 0 0 1 4.965498 24.462378c-1.423929 18.803171-12.778854 32.945103-26.239247 32.945103z m2.434067-60.425724c-8.263659 0-15.943142 10.892452-16.95328 24.340674a33.675323 33.675323 0 0 0 3.760634 19.10743c2.628793 4.600387 6.194702 7.302202 10.040529 7.59429 8.519236 0.645028 16.624681-10.503001 17.671329-24.340674a33.797026 33.797026 0 0 0-3.760634-19.1196c-2.628793-4.600387-6.194702-7.302202-10.052698-7.58212a6.839729 6.839729 0 0 0-0.742391 0zM346.093964 336.375949a28.685485 28.685485 0 0 1-7.582121-1.070989 45.809149 45.809149 0 0 1-31.314277-36.42582c-0.973627-8.434044 1.4361-15.626713 6.791048-20.2271s12.827535-5.914784 21.030343-3.651101a43.107334 43.107334 0 0 1 20.799106 13.788992 43.143845 43.143845 0 0 1 10.503001 22.636827c0.985797 8.446214-1.423929 15.626713-6.791048 20.239271a20.190589 20.190589 0 0 1-13.436052 4.70992z m-18.620616-53.111351a11.099348 11.099348 0 0 0-7.387395 2.434067c-2.933051 2.51926-4.210937 6.803218-3.651101 12.072975a36.596204 36.596204 0 0 0 24.486718 28.478589c5.111542 1.399589 9.541544 0.778902 12.474596-1.740358s4.198766-6.803218 3.651101-12.060805a33.809197 33.809197 0 0 0-8.30017-17.634818 33.833537 33.833537 0 0 0-16.186548-10.855941 19.350836 19.350836 0 0 0-5.087201-0.693709zM313.11235 380.79768c-1.217034 0-2.494919 0-3.748464-0.133874a43.265549 43.265549 0 0 1-23.440069-8.592258c-6.669345-5.269756-10.040528-12.060804-9.505034-19.107429s4.868135-13.241327 12.2677-17.464434a45.84566 45.84566 0 0 1 47.890277 3.651101c6.669345 5.281926 10.040528 12.072974 9.517204 19.1196s-4.868135 13.241327-12.279871 17.464434a41.938982 41.938982 0 0 1-20.701743 5.06286z m-3.760634-41.050547a32.543482 32.543482 0 0 0-16.028334 3.870167c-4.600387 2.628793-7.302202 6.194702-7.582121 10.052698s1.825551 7.789016 5.987806 11.075007a36.511012 36.511012 0 0 0 37.448128 2.799178c4.600387-2.628793 7.302202-6.206872 7.59429-10.052699s-1.837721-7.789016-5.999976-11.075007a33.809197 33.809197 0 0 0-18.328528-6.596322c-1.034479-0.036511-2.068957-0.073022-3.091265-0.073022zM319.014963 439.093595c-6.86407 0-12.681491-2.434067-16.62468-7.010114-4.600387-5.354948-5.902614-12.827535-3.651101-21.018172A45.809149 45.809149 0 0 1 335.15283 379.71452c8.446214-0.973627 15.626713 1.423929 20.239271 6.791048s5.902614 12.827535 3.651101 21.018172a45.809149 45.809149 0 0 1-36.425819 31.314278 30.620568 30.620568 0 0 1-3.60242 0.255577z m19.715947-50.202641a22.454272 22.454272 0 0 0-2.50709 0.146044 33.833537 33.833537 0 0 0-17.622648 8.312341 33.748345 33.748345 0 0 0-10.855941 16.174378c-1.399589 5.111542-0.778902 9.541544 1.740358 12.462425s6.803218 4.210937 12.072975 3.651101a36.511012 36.511012 0 0 0 28.478589-24.486718c1.399589-5.111542 0.778902-9.541544-1.740358-12.462426-2.105468-2.507089-5.452311-3.797145-9.565885-3.797145z m-23.123641 4.868135zM378.162802 469.775015h-1.44827c-7.046625-0.535495-13.253497-4.868135-17.464434-12.27987a43.156016 43.156016 0 0 1-4.965498-24.450207c1.472611-19.545562 13.630778-34.003922 27.699688-32.945103 7.034455 0.523324 13.241327 4.868135 17.464434 12.2677a43.375082 43.375082 0 0 1 4.965497 24.462377c-1.4361 18.742319-12.815365 32.945103-26.251417 32.945103z m2.434067-60.437894c-8.275829 0-15.943142 10.953303-16.96545 24.340674a33.797026 33.797026 0 0 0 3.736294 19.058748c2.628793 4.600387 6.194702 7.302202 10.052698 7.594291 8.519236 0.645028 16.624681-10.503001 17.65916-24.340675a33.699664 33.699664 0 0 0-3.760634-19.1196c-2.616622-4.600387-6.194702-7.302202-10.040529-7.58212zM358.94584 433.264004zM442.397842 448.416073a28.843699 28.843699 0 0 1-7.594291-1.070989 43.168186 43.168186 0 0 1-20.799106-13.776822 43.131675 43.131675 0 0 1-10.503001-22.648997c-0.985797-8.434044 1.423929-15.626713 6.791048-20.227101s12.827535-5.914784 21.018172-3.651101a45.85783 45.85783 0 0 1 31.314278 36.425819c0.985797 8.446214-1.4361 15.626713-6.791048 20.239271a20.239271 20.239271 0 0 1-13.436052 4.70992z m-18.620616-53.111351a11.148029 11.148029 0 0 0-7.399565 2.434067c-2.920881 2.51926-4.198766 6.803218-3.59025 12.072975a33.772686 33.772686 0 0 0 8.30017 17.622648 33.833537 33.833537 0 0 0 16.186549 10.855941c5.111542 1.399589 9.541544 0.778902 12.462425-1.740358s4.210937-6.803218 3.651101-12.060804a36.584034 36.584034 0 0 0-24.486718-28.49076 19.472539 19.472539 0 0 0-5.123712-0.693709zM460.434281 391.884857q-1.862062 0-3.760634-0.146044a43.082994 43.082994 0 0 1-23.427899-8.580088c-6.669345-5.281926-10.040528-12.060804-9.517204-19.107429s4.868135-13.253497 12.279871-17.464434a45.84566 45.84566 0 0 1 47.890276 3.651101c6.669345 5.281926 10.040528 12.060804 9.517204 19.10743s-4.868135 13.253497-12.27987 17.464434a41.987663 41.987663 0 0 1-20.701744 5.07503z m-3.760634-41.014036a32.543482 32.543482 0 0 0-16.028334 3.882337c-4.600387 2.628793-7.302202 6.194702-7.59429 10.040529s1.837721 7.789016 5.999976 11.087177a33.736175 33.736175 0 0 0 18.328528 6.584152 33.797026 33.797026 0 0 0 19.119599-3.760634c4.600387-2.628793 7.302202-6.194702 7.582121-10.052698s-1.825551-7.776845-5.987806-11.075007a33.772686 33.772686 0 0 0-18.328528-6.584153c-1.022308-0.085192-2.068957-0.121703-3.091266-0.121703z" fill="" p-id="1939"></path><path d="M431.15245 342.838398c-6.681515 0-12.64498-2.312364-16.722043-7.046625-9.176434-10.697726-4.734261-29.074936 10.11355-41.841619a43.277719 43.277719 0 0 1 22.648998-10.503001c8.446214-0.973627 15.626713 1.4361 20.23927 6.791048 9.176434 10.685556 4.734261 29.062765-10.11355 41.841619-8.31234 7.107477-17.780863 10.758578-26.166225 10.758578z m19.618584-50.251322a22.454272 22.454272 0 0 0-2.50709 0.146044 33.833537 33.833537 0 0 0-17.622648 8.31234c-10.515171 9.042561-14.689597 22.162184-9.115583 28.648974s19.180451 4.33264 29.695623-4.70992c10.515171-9.042561 14.689597-22.162184 9.115583-28.648974-2.105468-2.458408-5.452311-3.748464-9.565885-3.748464z m3.492886 35.939006zM384.94168 383.523836c-0.559836 0-1.144012 0-1.716018-0.073022a22.064821 22.064821 0 1 1 1.716018 0.073022z m0-35.367a13.022261 13.022261 0 0 0-12.99792 12.085145 12.99792 12.99792 0 0 0 11.987782 13.947206 13.01009 13.01009 0 0 0 1.959424-25.934989q-0.486813-0.097363-0.985797-0.097362z" fill="" p-id="1940"></path><path d="M641.638432 377.755096m-30.267629 0a30.267629 30.267629 0 1 0 60.535257 0 30.267629 30.267629 0 1 0-60.535257 0Z" fill="#FFFFFF" p-id="1941"></path><path d="M671.820868 380.030949a30.279799 30.279799 0 0 0-24.790977-32.068839 30.267629 30.267629 0 0 0 0 59.573801 30.267629 30.267629 0 0 0 24.790977-27.504962z" fill="#E29054" p-id="1942"></path><path d="M647.029891 347.96211a30.036392 30.036392 0 0 0-4.028382 1.022309 30.279799 30.279799 0 0 1 0 57.529183 29.634771 29.634771 0 0 0 4.064893 1.022309 30.279799 30.279799 0 0 0 0-59.573801z" fill="#D3793C" p-id="1943"></path><path d="MNaN NaNaNaN NaN NaN 1 0 NaN NaN NaN NaN NaN 1 0 NaN NaNZ" fill="#FFFFFF" p-id="1944"></path><path d="M650.182008 306.42475c-5.817421 2.373216-10.442149 9.894484-11.135858 19.119599-0.754561 9.979676 3.334672 18.681468 9.480692 21.261579 5.817421-2.373216 10.442149-9.894484 11.135859-19.119599 0.754561-9.967506-3.334672-18.669297-9.480693-21.261579z" fill="#EDD366" p-id="1945"></path><path d="M650.182008 306.42475a13.813333 13.813333 0 0 0-4.34481 2.945221c3.760634 3.991871 5.951295 10.795089 5.379289 18.316358-0.511154 6.766707-3.139947 12.608469-6.791048 16.186548a12.170337 12.170337 0 0 0 4.101403 2.933051c5.817421-2.373216 10.442149-9.894484 11.135859-19.119599 0.754561-9.967506-3.334672-18.669297-9.480693-21.261579z" fill="#DDC14E" p-id="1946"></path><path d="M589.426101 388.038601a21.006002 14.202783 4.32 1 0 2.1397-28.324864 21.006002 14.202783 4.32 1 0-2.1397 28.324864Z" fill="#FFFFFF" p-id="1947"></path><path d="M611.455995 375.467072c0.559836-7.375224-7.302202-14.06891-17.975588-15.52935-8.519236 1.217034-14.993855 6.085169-15.468498 12.365063-0.559836 7.387395 7.302202 14.08108 17.963418 15.54152 8.531406-1.217034 15.006026-6.085169 15.480668-12.377233z" fill="#EDD366" p-id="1948"></path><path d="M593.480407 359.937722a26.178395 26.178395 0 0 0-4.259618 0.961457c8.288 2.434067 13.983717 8.263659 13.496904 14.604404-0.389451 5.196734-4.868135 9.407671-11.20888 11.415777a31.874113 31.874113 0 0 0 4.466514 0.961456c8.519236-1.217034 15.006026-6.085169 15.480668-12.377233 0.559836-7.411735-7.350884-14.044569-17.975588-15.565861z" fill="#DDC14E" p-id="1949"></path><path d="M586.821433 424.852894a14.202783 21.006002 49.32 1 0 31.860304-27.384841 14.202783 21.006002 49.32 1 0-31.860304 27.384841Z" fill="#FFFFFF" p-id="1950"></path><path d="M618.685176 397.483212a10.369127 10.369127 0 0 0-4.965498-3.139947 27.991776 27.991776 0 0 0-11.500968 6.085169c-8.799154 7.56995-11.780886 18.511083-6.669345 24.462378a10.271765 10.271765 0 0 0 4.965497 3.139947 27.991776 27.991776 0 0 0 11.488799-6.085169c8.799154-7.557779 11.793057-18.511083 6.681515-24.462378z" fill="#EDD366" p-id="1951"></path><path d="M618.685176 397.483212a10.369127 10.369127 0 0 0-4.965498-3.139947 25.460345 25.460345 0 0 0-4.612558 1.618655 9.590226 9.590226 0 0 1 1.703848 1.521292c5.111542 5.951295 2.117639 16.904598-6.681516 24.462378a29.695623 29.695623 0 0 1-6.88841 4.442173 10.8316 10.8316 0 0 0 3.27382 1.618655 27.991776 27.991776 0 0 0 11.488799-6.085169c8.799154-7.533439 11.793057-18.486742 6.681515-24.438037z" fill="#DDC14E" p-id="1952"></path><path d="M636.190507 449.813492a14.202783 21.006002 4.32 1 0 3.16463-41.892643 14.202783 21.006002 4.32 1 0-3.16463 41.892643Z" fill="#FFFFFF" p-id="1953"></path><path d="M642.770273 408.825967c-5.659207 2.51926-10.125721 9.930995-10.807259 18.985726-0.742391 9.809292 3.188628 18.377209 9.164263 21.127705 5.659207-2.51926 10.125721-9.930995 10.80726-18.985726 0.742391-9.809292-3.188628-18.377209-9.164264-21.127705z" fill="#EDD366" p-id="1954"></path><path d="M642.770273 408.825967a13.229157 13.229157 0 0 0-3.200799 2.056787c4.210937 3.857997 6.742367 11.050666 6.085169 19.070918-0.547665 7.302202-3.529398 13.460393-7.606461 16.928939a11.513139 11.513139 0 0 0 3.030414 2.056787c5.659207-2.51926 10.125721-9.930995 10.80726-18.985726 0.791072-9.809292-3.139947-18.377209-9.115583-21.127705z" fill="#DDC14E" p-id="1955"></path><path d="M664.286151 425.894003a21.006002 14.202783 49.32 1 0 21.5417-18.515706 21.006002 14.202783 49.32 1 0-21.5417 18.515706Z" fill="#FFFFFF" p-id="1956"></path><path d="M685.828926 407.377696a26.774742 26.774742 0 0 0-12.876217-8.519236 10.028358 10.028358 0 0 0-3.419865 1.886403c-5.951295 5.111542-4.636898 16.393444 2.920881 25.192598a26.774742 26.774742 0 0 0 12.888387 8.519236 9.870143 9.870143 0 0 0 3.407695-1.886403c5.951295-5.111542 4.649069-16.344763-2.920881-25.192598z" fill="#EDD366" p-id="1957"></path><path d="M685.828926 407.377696a26.774742 26.774742 0 0 0-12.876217-8.519236 9.857973 9.857973 0 0 0-3.079095 1.630826 28.746336 28.746336 0 0 1 8.726132 6.924921c7.557779 8.799154 8.872176 20.081056 2.920881 25.192598a3.553738 3.553738 0 0 1-0.34077 0.255577 21.334601 21.334601 0 0 0 4.162255 1.630826 9.870143 9.870143 0 0 0 3.407695-1.886403c5.951295-5.148053 4.649069-16.381274-2.920881-25.229109z" fill="#DDC14E" p-id="1958"></path><path d="MNaN NaNaNaN NaN NaN 1 0 NaN NaN NaN NaN NaN 1 0 NaN NaNZ" fill="#FFFFFF" p-id="1959"></path><path d="M713.723339 383.195236c0.547665-7.302202-7.302202-14.020228-17.817374-15.517179-8.519236 1.217034-14.884322 6.085169-15.346795 12.352892-0.559836 7.302202 7.302202 14.020228 17.817374 15.51718 8.458384-1.229204 14.872152-6.097339 15.346795-12.352893z" fill="#EDD366" p-id="1960"></path><path d="M695.905965 367.678057a26.287928 26.287928 0 0 0-4.210937 0.973627c8.227148 2.434067 13.886355 8.263659 13.387371 14.543552-0.389451 5.172393-4.868135 9.37116-11.148028 11.379266a29.58609 29.58609 0 0 0 4.417832 0.973627c8.519236-1.217034 14.872152-6.085169 15.346795-12.352893 0.620687-7.350884-7.253521-14.020228-17.793033-15.517179z" fill="#DDC14E" p-id="1961"></path><path d="M664.583104 358.014574a14.202783 21.006002 49.32 1 0 31.860303-27.384841 14.202783 21.006002 49.32 1 0-31.860303 27.384841Z" fill="#FFFFFF" p-id="1962"></path><path d="M696.45363 330.63155A10.442149 10.442149 0 0 0 691.196045 327.38207a28.064798 28.064798 0 0 0-11.744376 6.085169c-8.799154 7.56995-11.780886 18.523253-6.669345 24.462377a10.46649 10.46649 0 0 0 5.208905 3.212969 27.80922 27.80922 0 0 0 11.744375-6.085168c8.847835-7.521268 11.829568-18.474572 6.718026-24.425867z" fill="#EDD366" p-id="1963"></path><path d="M696.45363 330.63155A10.442149 10.442149 0 0 0 691.196045 327.38207a24.851829 24.851829 0 0 0-4.709921 1.618655 9.37116 9.37116 0 0 1 1.752529 1.582144c5.111542 5.951295 2.129809 16.904598-6.669345 24.462378a29.427875 29.427875 0 0 1-7.034455 4.515195 10.953303 10.953303 0 0 0 3.456376 1.618654 27.80922 27.80922 0 0 0 11.744375-6.085168c8.847835-7.557779 11.829568-18.511083 6.718026-24.462378z" fill="#DDC14E" p-id="1964"></path><path d="M597.436695 348.103537a21.006002 14.202783 49.32 1 0 21.5417-18.515706 21.006002 14.202783 49.32 1 0-21.5417 18.515706Z" fill="#FFFFFF" p-id="1965"></path><path d="M618.989434 329.609242a26.872104 26.872104 0 0 0-12.730173-8.519236 9.930995 9.930995 0 0 0-3.285991 1.837721c-5.951295 5.111542-4.649069 16.393444 2.920881 25.192598a26.774742 26.774742 0 0 0 12.730173 8.519236 9.991847 9.991847 0 0 0 3.285991-1.849892c5.999976-5.111542 4.636898-16.381274-2.920881-25.180427z" fill="#EDD366" p-id="1966"></path><path d="M618.989434 329.609242a26.872104 26.872104 0 0 0-12.730173-8.519236 9.930995 9.930995 0 0 0-3.285991 1.837721l-0.085192 0.085192a28.746336 28.746336 0 0 1 8.068934 6.596323c7.521268 8.750472 8.847835 19.959353 3.006073 25.107405a22.210865 22.210865 0 0 0 4.661239 1.922914 9.991847 9.991847 0 0 0 3.285991-1.849892c5.999976-5.111542 4.636898-16.381274-2.920881-25.180427z" fill="#DDC14E" p-id="1967"></path><path d="M641.638432 377.755096m-12.279871 0a12.27987 12.27987 0 1 0 24.559741 0 12.27987 12.27987 0 1 0-24.559741 0Z" fill="#FFFFFF" p-id="1968"></path><path d="M641.699283 412.696134c-0.900605 0-1.78904 0-2.689644-0.097363a35.00189 35.00189 0 1 1 2.689644 0.097363z m-0.097362-60.535257a25.557708 25.557708 0 1 0 25.557708 27.517132 25.557708 25.557708 0 0 0-23.598284-27.44411c-0.657198-0.048681-1.314396-0.073022-1.959424-0.073022z" fill="" p-id="1969"></path><path d="M644.681016 352.27041h-1.119671c-5.294097-0.401621-10.125721-3.772805-13.253497-9.237286a31.3873 31.3873 0 0 1-3.651101-17.805204c1.08316-14.348828 10.210913-24.997873 20.750424-24.18246 5.306267 0.401621 10.137891 3.760634 13.265668 9.237286a31.448151 31.448151 0 0 1 3.651101 17.793033c-1.046649 13.813333-9.565885 24.19463-19.642924 24.194631z m1.703847-41.951153c-4.430003 0-9.675418 6.231213-10.381297 15.578032a22.36908 22.36908 0 0 0 2.434067 12.462425c0.912775 1.594314 2.89654 4.32047 5.841762 4.551706 4.503025 0.316429 10.004017-5.975636 10.734237-15.578031a22.344739 22.344739 0 0 0-2.434067-12.450255c-0.924946-1.606485-2.89654-4.33264-5.853932-4.551706z m13.277838 17.367072z" fill="" p-id="1970"></path><path d="M614.620283 361.957998a21.480645 21.480645 0 0 1-5.574014-0.766731 31.423811 31.423811 0 0 1-15.15207-10.028358c-9.38333-10.953303-10.442149-24.876169-2.434068-31.77675s21.675371-3.748464 31.058701 7.168328a31.472492 31.472492 0 0 1 7.618631 16.490807c0.73022 6.255553-1.217034 11.829568-5.196734 15.298114a15.614543 15.614543 0 0 1-10.320446 3.61459z m-12.839706-36.81527a6.352916 6.352916 0 0 0-4.210936 1.338737c-3.419865 2.933051-2.860029 11.294073 3.419864 18.596275a22.283887 22.283887 0 0 0 10.527342 7.083137c1.776869 0.486813 5.099371 1.010138 7.302202-0.912776s2.227172-5.294097 2.008106-7.131817a22.320398 22.320398 0 0 0-5.42797-11.464458c-4.34481-5.087201-9.651077-7.509098-13.618608-7.509098z" fill="" p-id="1971"></path><path d="M591.800901 392.809803c-0.900605 0-1.81338 0-2.713985-0.097363a31.423811 31.423811 0 0 1-17.038472-6.267724c-4.941157-3.906678-7.545609-9.188605-7.143988-14.494871s3.772805-10.125721 9.237286-13.253497a33.273702 33.273702 0 0 1 34.843675 2.628793c4.941157 3.918849 7.545609 9.200775 7.143988 14.494871s-3.772805 10.137891-9.237286 13.265668a30.632739 30.632739 0 0 1-15.091218 3.724123z m-2.543601-28.49076a21.529326 21.529326 0 0 0-10.49083 2.434068c-1.606485 0.912775-4.32047 2.89654-4.551706 5.841762s2.17849 5.318437 3.651101 6.462449a23.939053 23.939053 0 0 0 24.377185 1.874232c1.606485-0.912775 4.32047-2.88437 4.551706-5.841762s-2.17849-5.306267-3.651101-6.450279a22.210865 22.210865 0 0 0-11.939101-4.271788q-1.022308-0.048681-1.947254-0.048682z" fill="" p-id="1972"></path><path d="M595.975327 433.264004a16.369104 16.369104 0 0 1-12.705832-5.342778c-3.456376-4.040552-4.503025-9.833632-2.835689-15.906631a31.314278 31.314278 0 0 1 10.016187-15.15207 31.41164 31.41164 0 0 1 16.478637-7.630801c6.255553-0.73022 11.829568 1.217034 15.298114 5.208904 6.900581 8.020252 3.748464 21.6632-7.168329 31.04653a31.496833 31.496833 0 0 1-16.490807 7.630802 23.46441 23.46441 0 0 1-2.592281 0.146044z m13.582096-34.831505a14.227124 14.227124 0 0 0-1.545633 0.085192 22.417761 22.417761 0 0 0-11.476628 5.42797 22.429931 22.429931 0 0 0-7.083136 10.527342c-0.486813 1.776869-1.022308 5.099371 0.912775 7.302202s5.294097 2.215001 7.131818 2.008106a22.38125 22.38125 0 0 0 11.464457-5.42797c7.302202-6.279894 9.115583-14.458361 6.170361-17.878226a7.168329 7.168329 0 0 0-5.574014-2.044616z m-16.064845 1.971594z" fill="" p-id="1973"></path><path d="M636.952852 454.537753h-1.107501c-5.306267-0.389451-10.137891-3.760634-13.265667-9.225116a31.3873 31.3873 0 0 1-3.651102-17.805203c1.08316-14.360998 10.210913-24.985702 20.762596-24.18246 5.294097 0.401621 10.125721 3.760634 13.253497 9.237286a31.350789 31.350789 0 0 1 3.651101 17.793033c-1.046649 13.862014-9.565885 24.18246-19.642924 24.18246z m1.703847-41.951152c-4.430003 0-9.675418 6.231213-10.381298 15.578031a22.296058 22.296058 0 0 0 2.434068 12.450255c0.924946 1.606485 2.89654 4.33264 5.841762 4.551706 4.503025 0.316429 10.004017-5.963465 10.734237-15.565861a22.344739 22.344739 0 0 0-2.434067-12.450255c-0.924946-1.606485-2.89654-4.33264-5.841762-4.551706z m-15.042537 15.225092z" fill="" p-id="1974"></path><path d="M681.459775 439.762964c-6.924922 0-14.713938-3.809316-20.689573-10.81943a31.41164 31.41164 0 0 1-7.630802-16.478637c-0.71805-6.267724 1.217034-11.841738 5.208905-15.298113s9.821462-4.503025 15.90663-2.847859a31.448151 31.448151 0 0 1 15.15207 10.016187c9.38333 10.953303 10.442149 24.876169 2.434068 31.776751a15.52935 15.52935 0 0 1-10.381298 3.651101z m-13.642948-16.916769c6.267724 7.302202 14.44619 9.115583 17.866055 6.182531s2.847859-11.294073-3.419865-18.596275a22.39342 22.39342 0 0 0-10.527342-7.095307c-1.776869-0.486813-5.099371-1.010138-7.302202 0.912776s-2.227172 5.294097-2.008105 7.131817a22.283887 22.283887 0 0 0 5.42797 11.464458z" fill="" p-id="1975"></path><path d="M694.056074 400.537967c-0.888435 0-1.80121 0-2.713985-0.097363a31.423811 31.423811 0 0 1-17.038472-6.267723c-4.941157-3.906678-7.545609-9.188605-7.143988-14.494872s3.772805-10.125721 9.237286-13.253497a33.273702 33.273702 0 0 1 34.843675 2.628793c4.941157 3.906678 7.545609 9.200775 7.143988 14.494871s-3.772805 10.137891-9.237286 13.253497a30.523206 30.523206 0 0 1-15.091218 3.736294z m-2.543601-28.490759a21.517156 21.517156 0 0 0-10.47866 2.494919c-1.606485 0.912775-4.33264 2.89654-4.551706 5.841762s2.17849 5.318437 3.651101 6.462449a22.405591 22.405591 0 0 0 11.939101 4.271788 22.36908 22.36908 0 0 0 12.462425-2.434067c1.594314-0.912775 4.32047-2.88437 4.551706-5.841762s-2.17849-5.306267-3.651101-6.462449a22.308228 22.308228 0 0 0-11.951271-4.259618c-0.657198-0.060852-1.314396-0.073022-1.971595-0.073022z" fill="" p-id="1976"></path><path d="M673.731611 366.448852a16.2474 16.2474 0 0 1-12.681492-5.379289c-6.900581-8.032423-3.748464-21.675371 7.168329-31.0587a31.509003 31.509003 0 0 1 16.490807-7.630801c6.255553-0.71805 11.829568 1.217034 15.298114 5.208904s4.503025 9.821462 2.835688 15.906631a31.39947 31.39947 0 0 1-10.016187 15.152069c-5.999976 5.160223-12.924898 7.801186-19.095259 7.801186z m13.606437-34.868016a11.720035 11.720035 0 0 0-1.557803 0.097363 22.283887 22.283887 0 0 0-11.464458 5.427971c-7.302202 6.267724-9.115583 14.44619-6.170361 17.866055s11.294073 2.847859 18.584105-3.419865a22.308228 22.308228 0 0 0 7.095306-10.527342c0.486813-1.776869 1.010138-5.099371-0.912775-7.302202a7.180499 7.180499 0 0 0-5.574014-2.14198zM641.662772 394.696205h-1.302226a16.941109 16.941109 0 1 1 18.182484-15.614543 16.941109 16.941109 0 0 1-16.880258 15.663224z m0-24.54757a7.655142 7.655142 0 1 0 0.584177 0z m12.25553 8.519236zM450.357242 586.305994a4.68558 4.68558 0 0 1-4.503025-3.395524l-49.898382-174.230547a4.673409 4.673409 0 0 1 8.993879-2.567942l49.898383 174.230547a4.68558 4.68558 0 0 1-3.200799 5.780911 4.782943 4.782943 0 0 1-1.290056 0.182555zM556.312198 584.066652a4.515195 4.515195 0 0 1-1.728188-0.34077 4.661239 4.661239 0 0 1-2.616623-6.085168l61.934846-155.512569a4.673409 4.673409 0 0 1 8.689621 3.468546l-61.934846 155.524739a4.69775 4.69775 0 0 1-4.34481 2.945222zM536.462378 448.391733h-0.158215a4.661239 4.661239 0 0 1-4.515195-4.868135l3.94319-114.924494a4.673409 4.673409 0 0 1 9.346818 0.328599l-3.943189 114.985346a4.68558 4.68558 0 0 1-4.673409 4.478684zM531.764628 586.305994h-0.170385a4.673409 4.673409 0 0 1-4.515195-4.868135l3.821486-110.969135a4.673409 4.673409 0 1 1 9.346819 0.316429L536.389356 581.742117a4.673409 4.673409 0 0 1-4.624728 4.563877z" fill="" p-id="1977"></path><path d="M619.281522 620.443789H372.978238a19.545562 19.545562 0 1 1 0-39.078952h246.303284a19.545562 19.545562 0 1 1 0 39.078952z m-246.303284-29.719963a10.186572 10.186572 0 1 0 0 20.373144h246.303284a10.186572 10.186572 0 0 0 0-20.373144z" fill="" p-id="1978"></path><path d="M593.358704 745.871284a4.064893 4.064893 0 0 1-0.754561-0.073022 4.649069 4.649069 0 0 1-3.857997-5.354948c1.630825-10.040528 2.847859-15.541521 5.221075-25.715922l22.02831-94.283603h-237.199871l19.983693 90.973271a4.673409 4.673409 0 0 1-9.139923 2.008105l-21.225068-96.644647a4.68558 4.68558 0 0 1 4.563876-5.683548h248.907736a4.673409 4.673409 0 0 1 4.551707 5.7444L603.070633 716.83286c-2.324534 9.955336-3.517227 15.334625-5.099371 25.083065a4.68558 4.68558 0 0 1-4.612558 3.955359zM400.994355 751.83475a4.68558 4.68558 0 0 1-4.624729-3.95536c-0.71805-4.588217-1.521292-9.225116-2.373215-13.788992a4.673409 4.673409 0 1 1 9.176434-1.740358c0.888435 4.661239 1.703847 9.3955 2.434067 14.08108a4.673409 4.673409 0 0 1-3.894508 5.342778 4.868135 4.868135 0 0 1-0.718049 0.060852zM583.987544 1021.870191H410.146448a34.575928 34.575928 0 0 1-33.760515-41.987663l15.006026-68.263422a442.428268 442.428268 0 0 0 7.521268-144.827012 4.673409 4.673409 0 1 1 9.298138-1.046649 451.957642 451.957642 0 0 1-7.691654 147.930448l-14.993855 68.263422A25.204768 25.204768 0 0 0 410.146448 1012.572053h173.841096a25.204768 25.204768 0 0 0 24.52323-31.083041l-13.959377-58.235063a455.754787 455.754787 0 0 1-10.296105-61.277648 4.673409 4.673409 0 0 1 9.310308-0.912775 444.984038 444.984038 0 0 0 10.077039 60.011932l13.959377 58.235064a34.575928 34.575928 0 0 1-33.614472 42.59618z" fill="" p-id="1979"></path><path d="M537.703752 832.755322a4.271788 4.271788 0 0 1-0.876264-0.085193 4.673409 4.673409 0 0 1-3.724123-5.464481c3.298161-17.31839 24.072927-31.521173 42.389284-44.04445 11.987782-8.202807 25.557708-17.488775 26.665209-23.634795 0.754561-4.271788 0.243407-7.58212-1.533463-9.833633-2.640963-3.371183-7.533439-3.833656-7.58212-3.833656a4.673409 4.673409 0 0 1 0.620687-9.334649c0.912775 0.060852 9.127753 0.778902 14.312317 7.387395 3.480716 4.442173 4.624728 10.247424 3.395524 17.245368-1.764699 10.016187-15.127729 19.14394-30.596228 29.719963-16.831576 11.513139-35.914665 24.54757-38.482606 38.068815a4.673409 4.673409 0 0 1-4.588217 3.809316z" fill="" p-id="1980"></path><path d="M537.703752 872.345428a4.271788 4.271788 0 0 1-0.876264-0.085192 4.673409 4.673409 0 0 1-3.724123-5.464481c3.298161-17.31839 24.072927-31.521173 42.389284-44.044451 11.987782-8.202807 25.557708-17.488775 26.665209-23.634794 0.754561-4.235277 0.243407-7.533439-1.496952-9.73627-2.653134-3.444205-7.59429-3.882338-7.642971-3.894508a4.673409 4.673409 0 0 1 0.645027-9.322478c0.912775 0 9.127753 0.778902 14.312317 7.387394 3.480716 4.442173 4.624728 10.247424 3.395524 17.245368-1.764699 10.016187-15.127729 19.14394-30.596228 29.719964-16.831576 11.500969-35.914665 24.54757-38.482606 38.068814a4.68558 4.68558 0 0 1-4.588217 3.760634z" fill="" p-id="1981"></path><path d="M537.691582 959.704109a4.673409 4.673409 0 0 1-4.67341-4.67341c0-48.267557 31.557684-78.31612 52.441983-98.202451 8.202807-7.825527 15.943142-15.200751 16.697703-19.472539s0.243407-7.56995-1.533463-9.833632c-2.640963-3.371183-7.533439-3.833656-7.58212-3.833657a4.673409 4.673409 0 0 1 0.620687-9.334648c0.912775 0 9.127753 0.778902 14.312317 7.387394 3.480716 4.454343 4.624728 10.247424 3.395524 17.245368-1.290056 7.302202-8.908687 14.604405-19.472539 24.608422-19.715946 18.791001-49.521102 47.184397-49.521102 91.435743a4.673409 4.673409 0 0 1-4.68558 4.67341zM593.833347 986.028548H396.211412a4.673409 4.673409 0 0 1 0-9.346819H593.833347a4.673409 4.673409 0 1 1 0 9.346819zM544.373097 330.473336c-1.569973 0-3.188628 0-4.868135-0.158215-11.306243-0.73022-20.178419-3.651101-26.33661-8.519236-7.606461-6.085169-11.075007-14.933004-10.332616-26.421802s5.598355-24.243312 12.99792-34.247328c8.519236-11.53748 18.924874-17.525286 29.208809-16.855917s19.86199 7.94723 26.774742 20.494847c6.085169 10.880281 9.212945 24.206801 8.519236 35.646918-1.204863 19.50905-13.947206 30.060733-35.963346 30.060733z m-0.791072-76.88002c-6.705856 0-14.020228 4.722091-20.21493 13.107453s-10.563853 19.715946-11.18454 29.294002c-0.547665 8.361022 1.679507 14.42185 6.815389 18.498912 4.649069 3.651101 11.756546 5.878273 21.127705 6.48679 26.385291 1.716018 30.291969-11.257562 30.936997-21.164217 0.620687-9.578055-2.17849-21.261579-7.302202-30.498865-5.294097-9.529374-12.316381-15.249432-19.265644-15.699735-0.304258-0.024341-0.559836-0.024341-0.912775-0.02434z m32.14186 46.527199z" fill="" p-id="1982"></path><path d="M556.263516 292.866994a4.673409 4.673409 0 0 1-4.052722-2.336705c-1.849891-3.24948-4.868135-7.168329-8.458384-7.484757-4.636898-0.37728-9.176434 4.868135-9.212946 4.868135a4.673409 4.673409 0 0 1-7.411735-0.243407c-6.206872-8.616599-10.210913-9.505033-11.221051-9.127753a4.673409 4.673409 0 0 1-5.720058-7.387395 10.064869 10.064869 0 0 1 7.630801-1.922913c4.454343 0.559836 9.01822 3.517227 13.630778 8.823495a19.192622 19.192622 0 0 1 13.095283-4.344811 17.269708 17.269708 0 0 1 11.318413 5.951295 14.470531 14.470531 0 0 1 7.022285-4.746431c3.127777-0.876264 8.093274-0.876264 14.032399 4.052722a4.673409 4.673409 0 1 1-5.975636 7.192669c-1.545633-1.290056-3.772805-2.726156-5.513163-2.239342-2.251512 0.620687-4.162255 4.174426-4.746431 5.793081a4.69775 4.69775 0 0 1-3.991871 3.115606z m-40.06475-14.531383z m0 0zM387.521791 535.202748a82.64876 82.64876 0 0 1-21.991799-3.212969 138.559289 138.559289 0 0 1-35.196615-15.614543 4.673409 4.673409 0 0 1 3.042584-8.519236c9.237286 0.961457 12.791024-3.079095 18.681468-9.73627 6.206872-7.022285 13.922866-15.821438 30.669249-20.141908 13.509074-3.517227 24.012075-2.957392 31.229086 1.667337a18.377209 18.377209 0 0 1 7.448246 9.091241c2.567941 2.215001 7.910719 7.606461 8.908687 14.884323a17.841714 17.841714 0 0 1-3.943189 13.569926c-9.358989 11.92693-22.575975 18.012099-38.847717 18.012099zM346.909376 514.805263c18.04861 8.774813 52.977478 21.042513 72.084907-3.456376a8.519236 8.519236 0 0 0 2.056787-6.523301c-0.584176-4.405662-4.868135-8.519236-6.49896-9.73627a4.68558 4.68558 0 0 1-1.80121-2.860029 8.750472 8.750472 0 0 0-4.077063-4.989838c-3.407694-2.081128-10.271765-3.821486-23.586113-0.35294-13.983717 3.651101-20.385315 10.953303-26.020181 17.294049-3.529398 4.064893-7.131818 8.190637-12.158167 10.624705z" fill="" p-id="1983"></path><path d="M365.870761 518.918837h-0.486813a4.68558 4.68558 0 0 1 0-9.35899h0.462473c32.506971 0 47.026183-20.008034 47.6347-20.859958a4.673409 4.673409 0 0 1 7.667312 5.342778c-0.681539 1.034479-17.69567 24.876169-55.277672 24.87617zM643.403131 578.23706a99.62638 99.62638 0 0 1-17.513116-1.521292c-22.916745-4.125744-39.821343-16.381274-48.900414-35.427852a17.829544 17.829544 0 0 1-0.924946-14.10542c2.847859-7.703823 10.503001-11.939101 12.827535-13.070942 8.056763-6.158191 27.456281-11.951271 46.502859 8.251488 8.823494 9.346819 10.125721 20.360974 11.172369 29.208809 1.290056 10.953303 2.15415 15.371136 10.770749 16.356934a4.673409 4.673409 0 0 1 0.279917 9.249456 86.287691 86.287691 0 0 1-14.214953 1.058819z m-50.14179-55.849677c-1.825551 0.827583-6.912752 3.894508-8.434043 8.068933a8.434044 8.434044 0 0 0 0.608517 6.803219c12.486766 26.214906 39.298019 31.204745 55.983551 31.569854-2.835689-4.673409-3.541568-10.600364-4.186596-16.150037-0.985797-8.263659-1.995935-16.795065-8.689621-23.902542-18.40155-19.472539-33.650982-7.545609-34.28384-7.034455a4.868135 4.868135 0 0 1-0.997968 0.645028z m-1.862061-4.271789z" fill="" p-id="1984"></path><path d="M625.184136 556.306113a4.600387 4.600387 0 0 1-2.093298-0.498984c-17.525286-8.799154-34.308181-34.076944-35.01406-35.123593a4.673409 4.673409 0 0 1 7.813356-5.148053c0.158214 0.243407 16.113526 24.243312 31.39947 31.910624a4.673409 4.673409 0 0 1-2.105468 8.860006zM456.868373 547.665173a45.395358 45.395358 0 0 1-15.614543-2.835688 14.117591 14.117591 0 0 1-8.348851-7.472587c-2.227172-4.977668-1.156182-10.417809-0.389451-13.070943a15.285943 15.285943 0 0 1 1.399589-9.845802c2.957392-5.853932 9.432011-10.137891 19.253473-12.742343 11.525309-3.054755 18.900534 1.472611 26.020181 5.853932 5.537503 3.395524 11.269732 6.912752 19.825479 7.302202a4.661239 4.661239 0 0 1 3.578079 7.399565c-0.219066 0.340769-18.717979 25.411664-45.723956 25.411664zM441.704132 526.184528c-0.438132 1.144012-1.411759 4.868135-0.292088 7.399565a4.673409 4.673409 0 0 0 3.006074 2.494919c11.841738 4.32047 23.841691 2.51926 35.659088-5.367119a64.283721 64.283721 0 0 0 9.565885-7.874208 57.504843 57.504843 0 0 1-15.383307-7.302202c-6.425938-3.943189-11.075007-6.803218-18.730149-4.770772-8.872176 2.348875-12.170337 5.598355-13.302178 7.910719a5.914784 5.914784 0 0 0-0.535495 4.077063 4.673409 4.673409 0 0 1 0.01217 3.432035zM572.656961 486.971702a64.332402 64.332402 0 0 1-13.387371-1.4361c-35.926835-7.557779-44.141813-40.880163-44.470412-42.291922a4.673409 4.673409 0 0 1 7.630801-4.588217c7.728164 6.778878 18.377209 5.561844 29.659112 4.34481 8.640939-0.961457 17.586137-1.959424 25.253449 0.997968A31.180404 31.180404 0 0 1 597.484448 478.513317a4.68558 4.68558 0 0 1-2.093298 3.091266c-0.340769 0.340769-8.592258 5.367119-22.734189 5.367119z m20.275781-9.310308z m0 0z m-64.502787-25.63073a48.036321 48.036321 0 0 0 32.786889 24.340674c14.020228 2.945222 23.45224 0 27.285896-1.728188 0.194725-4.868135-0.839753-16.722043-14.543553-22.00397-5.537503-2.129809-12.98575-1.302226-20.859958-0.425961s-16.58817 1.886402-24.644933-0.182555z" fill="" p-id="1985"></path><path d="M654.831077 142.392945l-10.855941-0.328599a5.257586 5.257586 0 0 0-4.405662 2.141979l-6.438108 8.762643a5.257586 5.257586 0 0 1-9.285967-1.642996l-3.042585-10.429978a5.269756 5.269756 0 0 0-3.395524-3.529398l-10.320446-3.407695a5.257586 5.257586 0 0 1-1.314396-9.346819l8.981709-6.085168a5.221075 5.221075 0 0 0 2.300194-4.32047l0.060851-10.868111a5.269756 5.269756 0 0 1 8.519236-4.137915l8.555747 6.681515a5.245415 5.245415 0 0 0 4.868135 0.851924l10.356957-3.298161a5.257586 5.257586 0 0 1 6.48679 6.730196l-3.651101 10.223083a5.245415 5.245415 0 0 0 0.669368 4.868135l6.352916 8.823495a5.257586 5.257586 0 0 1-4.442173 8.31234z" fill="#FD6C00" p-id="1986"></path><path d="M297.290911 28.989743c0-1.119671 0.194725 0 0.486814-3.456376h-14.227124a3.468546 3.468546 0 0 0 0 6.912752h14.227124c-0.292088-3.456376-0.486813-2.324534-0.486814-3.456376zM319.903398 23.123641l10.636875-10.636875a3.23731 3.23731 0 1 0-4.576047-4.563876l-10.624704 10.624704a12.170337 12.170337 0 0 1 4.563876 4.576047zM309.303034 16.96545c1.131841 0-1.728188 0.206896 5.184564 0.486814V3.23731c0-1.78904-3.395524-3.23731-5.184564-3.23731S304.179322 1.44827 304.179322 3.23731v14.214954c3.395524-0.279918 4.004041-0.486813 5.123712-0.486814zM298.897396 23.123641a12.170337 12.170337 0 0 1 4.576047-4.576047l-10.636875-10.624704a3.225139 3.225139 0 0 0-4.563876 4.563876zM335.250193 25.557708h-14.214954c0.279918 3.456376 0.486813 2.336705 0.486814 3.456376s-0.206896 0-0.486814 3.456376h14.214954a3.468546 3.468546 0 0 0 0-6.912752zM319.903398 35.01406a12.170337 12.170337 0 0 1-4.563876 4.576047l10.624704 10.624704a3.23731 3.23731 0 0 0 4.576047-4.563876zM309.303034 41.196591c-1.119671 0-1.728188-0.206896-5.172393-0.486813v14.227124c0 1.776869 3.395524 3.225139 5.172393 3.225139s5.184564-1.44827 5.184564-3.225139V40.709778c-6.912752 0.279918-4.052722 0.486813-5.184564 0.486813zM298.897396 35.01406l-10.624704 10.636875a3.225139 3.225139 0 1 0 4.563876 4.563876l10.636875-10.624704a12.060804 12.060804 0 0 1-4.576047-4.576047z" fill="#39ADFB" p-id="1987"></path><path d="M514.726156 42.790906c0-1.131841 0.206896 0 0.498983-3.456376h-14.178442a3.468546 3.468546 0 0 0 0 6.912751h14.227124c-0.292088-3.456376-0.547665-2.336705-0.547665-3.456375zM537.399494 36.936973l10.624704-10.624704a3.23731 3.23731 0 0 0-4.563876-4.576047l-10.636875 10.636875a12.036463 12.036463 0 0 1 4.576047 4.563876zM526.79913 30.754442c1.131841 0-1.728188 0.206896 5.184564 0.498984V17.038472c0-1.78904-3.395524-3.23731-5.184564-3.23731s-5.184564 1.44827-5.184564 3.23731v14.214954c3.456376-0.292088 4.064893-0.498984 5.184564-0.498984zM516.393492 36.936973a12.085145 12.085145 0 0 1 4.563876-4.563876l-10.624704-10.636875a3.23731 3.23731 0 0 0-4.576047 4.576047zM552.746289 39.33453h-14.227124c0.292088 3.456376 0.486813 2.324534 0.486813 3.456376s-0.194725 0-0.486813 3.456375h14.227124a3.468546 3.468546 0 0 0 0-6.912751zM537.399494 48.815222a12.036463 12.036463 0 0 1-4.576047 4.563877l10.636875 10.624704a3.225139 3.225139 0 0 0 2.288023 0.949287 3.176458 3.176458 0 0 0 2.275853-0.949287 3.212969 3.212969 0 0 0 0-4.563876zM526.79913 54.997754c-1.131841 0-1.728188-0.206896-5.184564-0.498984v14.227124c0 1.78904 3.395524 3.225139 5.184564 3.225139s5.184564-1.4361 5.184564-3.225139V54.49877c-6.912752 0.267747-4.052722 0.498984-5.184564 0.498984zM516.393492 48.815222l-10.636875 10.624705a3.23731 3.23731 0 0 0 4.576047 4.563876l10.624704-10.624704a12.085145 12.085145 0 0 1-4.563876-4.563877z" fill="#FD6C00" p-id="1988"></path><path d="M884.095889 464.578281a17.038472 17.038472 0 1 1 17.038472-17.038472 17.038472 17.038472 0 0 1-17.038472 17.038472z m0-25.947159a8.860005 8.860005 0 1 0 8.860005 8.860006 8.872176 8.872176 0 0 0-8.860005-8.860006z" fill="#EDD366" p-id="1989"></path><path d="M164.719429 250.356006H133.137404a4.113574 4.113574 0 1 1 0-8.214977h31.582025a4.113574 4.113574 0 0 1 0 8.214977z" fill="#FD6C00" p-id="1990"></path><path d="M148.922331 266.153104a4.113574 4.113574 0 0 1-4.113574-4.113574v-31.582025a4.113574 4.113574 0 0 1 8.227148 0v31.582025a4.113574 4.113574 0 0 1-4.113574 4.113574z" fill="#FD6C00" p-id="1991"></path><path d="M449.480978 166.429361l-7.764675-0.243407a3.784975 3.784975 0 0 0-3.152118 1.533463l-4.600387 6.316405a3.760634 3.760634 0 0 1-6.645004-1.217034l-2.16632-7.460417a3.784975 3.784975 0 0 0-2.434068-2.51926l-7.387394-2.434067a3.760634 3.760634 0 0 1-0.937116-6.681515l6.425938-4.369151a3.748464 3.748464 0 0 0 1.655166-3.091266v-7.776845a3.760634 3.760634 0 0 1 6.085168-2.957392l6.146021 4.770772a3.784975 3.784975 0 0 0 3.456375 0.608517l7.399565-2.434068a3.760634 3.760634 0 0 1 4.68558 4.868135l-2.628793 7.302203a3.772805 3.772805 0 0 0 0.486814 3.456375l4.539536 6.316405a3.772805 3.772805 0 0 1-3.164288 6.012147z" fill="#FFD304" p-id="1992"></path></svg>