<?xml version="1.0" standalone="no"?><!DOCTYPE svg PUBLIC "-//W3C//DTD SVG 1.1//EN" "http://www.w3.org/Graphics/SVG/1.1/DTD/svg11.dtd"><svg t="1551626885253" class="icon" style="" viewBox="0 0 1024 1024" version="1.1" xmlns="http://www.w3.org/2000/svg" p-id="2327" xmlns:xlink="http://www.w3.org/1999/xlink" width="100" height="100"><defs><style type="text/css"></style></defs><path d="M733.8 594.9c60.2 50.3 42.1 196.7-39.3 267-16.2 14-41.3 4-43.1-17.3-15.8-185.5-83.9-161.9-103.2-171.1-20.6-9.8-33.1 0 15.8-45.9 45.5-110.2 68-92.2 68-92.2s71.1 33.8 101.8 59.5z" fill="#FF608C" p-id="2328"></path><path d="M677.3 881.2c-4.9 0-9.9-0.9-14.7-2.9-13.5-5.5-22.7-18-23.9-32.6-12.5-146.5-56.5-153.1-80.1-156.7-5.7-0.9-11.1-1.7-15.8-3.9-3-1.4-6-2.4-8.7-3.3-6.1-2-14.4-4.7-16.5-14-2.6-11.5 5.6-19.4 35.7-47.7 25.2-60.4 47.6-92.4 68.4-97.8 8-2.1 13.6 0.1 16.6 1.8 7.7 3.7 73.4 35.5 103.8 60.9 25.6 21.4 39.8 58.1 40.2 103.5 0.6 69.1-30.6 140.9-79.4 183-7.3 6.4-16.4 9.7-25.6 9.7zM549 659.9c1.5 0.6 3.1 1.3 4.8 2 1.3 0.6 5.3 1.2 8.6 1.7 45.5 6.8 89.3 33.4 101.8 179.9 0.6 7.2 5.8 10.1 8.1 11 4.7 1.9 9.9 1 13.9-2.4 43.3-37.4 71-101.5 70.5-163.4-0.3-37.7-11.3-67.5-31-84-27.4-22.9-90.2-53.5-98.2-57.3-3.8 1.6-21.7 12.8-51.5 85.1l-1.1 2.6-2 1.9c-7.8 7.3-17.5 16.3-23.9 22.9z" fill="#1B1C26" p-id="2329"></path><path d="M628.4 563.6s16.1-38.1 100.2-85.8c206.3-117.1-7.5-144.5-55.6-187.5-80.1-71.6-103.6-39-118.1 8S440.3 505.2 524.7 537c50.3 18.9 103.7 26.6 103.7 26.6z" fill="#FCA2C3" p-id="2330"></path><path d="M636.1 577.5l-9.6-1.2c-2.2-0.3-55.3-8.1-106.4-27.3-17.3-6.5-29.5-18-36.1-34.1-19.6-47.6 15.4-123.7 41-179.3 7.9-17.1 14.7-31.9 17.5-41.1 7.1-22.9 18.4-50.1 43.5-57.1 24.4-6.8 54.7 7 95.4 43.3 10.2 9.2 31 18.3 53 28.1 43.7 19.3 93.2 41.3 95.1 79.6 1.5 31-28.5 63-94.6 100.5-77.9 44.2-94.6 79.5-94.8 79.8l-4 8.8z m-37.6-316.1c-2.1 0-4 0.3-5.6 0.7-10.3 2.8-18.2 15.2-25.9 40-3.3 10.7-10.1 25.5-18.7 44.2-22.3 48.4-55.9 121.6-40.5 158.8 3.8 9.4 10.8 15.9 21.4 19.8 36.9 13.9 75.8 21.6 92.6 24.6 10-15 36.7-46.7 100.5-82.9 72.4-41.1 82.2-65.8 81.7-76.9-1.1-22.6-44.8-41.9-79.9-57.5-23.9-10.6-46.4-20.6-59.7-32.4-34.3-30.6-54.3-38.4-65.9-38.4z" fill="#1B1C26" p-id="2331"></path><path d="M539.4 532.8s178.7-188.6 315.9-67.4c103.9 91.8 63.3 221.1 28.8 286.6-6.7 12.7-25.5 10-28.4-4-9.9-46.5-38.4-119-120.4-140.4-128.1-33.3-105.4 20.7-192.1-41.8-119.3-86.1-3.8-33-3.8-33z" fill="#FCA2C3" p-id="2332"></path><path d="M870.7 773c-1.3 0-2.6-0.1-4-0.3-11.9-1.6-21.2-10.3-23.7-22.1C832.6 701.5 804.9 639 732 620c-54.7-14.2-79.7-12-99.8-10.2-29.2 2.6-46.8 2.3-96.5-33.6-57.3-41.3-64.5-52.4-57.3-64.8 4.9-8.5 12.9-13.8 58.3 6.2 34.4-33 197.7-176.1 327.1-61.7C984.6 562.5 918.5 714 895.4 758c-4.9 9.4-14.4 15-24.7 15zM656.1 582.8c18.9 0 44.3 2.5 82.3 12.4 90.1 23.4 119.9 104.1 129.7 150.1 0.1 0.4 0.4 1.8 2.1 2 1.6 0.2 2.2-0.9 2.5-1.3 80.5-152.9 8.7-240.5-25.9-271.1-126.4-111.7-296.4 64.8-298.1 66.6l-6.3 6.7-4-1.9c3.7 2.8 7.8 5.7 12.2 9 44.3 32 56 30.9 79.3 28.9 7.4-0.6 15.8-1.4 26.2-1.4z" fill="#1B1C26" p-id="2333"></path><path d="M242 476.4s-96.9 34.5-74.8 111.9c4.5 15.7-11.2 29.8-26.3 23.6-19.3-7.9-37.4-17.5-38.1-26.3-4-53.9 33.5-85.5 33.5-85.5L242 476.4z" fill="#FF608C" p-id="2334"></path><path d="M148.3 626.2c-4.1 0-8.3-0.8-12.3-2.4-31.3-12.8-45-23.9-46-37.2-4.4-59.7 36.3-94.8 38-96.3l2.4-2 108.8-24.4 7.1 24.6c-3.5 1.3-85.3 31.5-66.8 96.4 3.4 12-0.3 24.7-9.6 33.1-6.1 5.3-13.8 8.2-21.6 8.2z m-32.8-42.9c1.4 1.7 7.5 7.4 30.2 16.7 3.5 1.4 6.1-0.4 7.1-1.3s3.1-3.3 2-6.9c-10.4-36.6 2.3-66.1 22.2-87.7l-34.6 7.8c-7 6.9-29.3 32.2-26.9 71.4z" fill="#1B1C26" p-id="2335"></path><path d="M524.9 511.4s153-361.7-145.1-391.6c-19-1.9-33.3 16.7-26.7 34.5 12.9 34.5 28 86.6 20.3 125.3-28.5 142.5 43.5 178.2 84 218s67.5 13.8 67.5 13.8z" fill="#FCA2C3" p-id="2336"></path><path d="M501.5 532.8c-15 0-33.4-6.4-53.1-25.8-5.4-5.3-11.5-10.7-18-16.4-40.3-35.3-95.5-83.6-69.5-213.3 5.5-27.5-1.5-69.5-19.7-118.3-4.7-12.5-2.6-26.4 5.6-36.9 8.2-10.6 21-16.1 34.4-14.8 78.6 7.9 134.6 38.9 166.2 92.2 71.3 120.2-7.2 309.1-10.6 317.1l-1 2.4-1.9 1.8c-6.3 5.8-17.7 12-32.4 12zM377.1 132.6c-5.6 0-8.9 3.5-10.1 5-1.3 1.7-4.1 6.3-1.9 12.3 14.1 37.7 29.1 91.2 20.9 132.3-23.1 115.2 21.8 154.4 61.3 189 6.8 5.9 13.2 11.5 19.1 17.4 25.6 25.2 42.3 18.4 47.9 14.8 9.6-24.2 71.1-189.7 10.9-291.1-27.3-45.9-76.6-72.7-146.7-79.7h-1.4z" fill="#1B1C26" p-id="2337"></path><path d="M508 479.1S487.6 269.9 313 298c-62.1 10-122.3 55.8-152.9 91-70 80.2-55.9 176.7-55.9 176.7s90.2-47.8 195.3-65.5c91.2-15.3 208.5 117 208.5-21.1z" fill="#FCA2C3" p-id="2338"></path><path d="M94.1 585.6l-2.6-18c-0.6-4.2-14.1-103.3 58.9-187 35-40.2 98.2-85.2 160.6-95.2 50-8.1 93 1.5 127.9 28.4 70.5 54.3 81.5 159.7 81.9 164.1l0.1 1.2c0 36.2-7.6 58.1-23.9 69.1-23.9 16.1-56.6 2.9-94.5-12.5-32.6-13.2-69.5-28.1-100.7-22.9-101.7 17.1-190.5 63.7-191.4 64.2l-16.3 8.6z m249.8-277.3c-9.3 0-18.9 0.8-28.9 2.4-56 9-113.3 50.1-145.3 86.8-47.5 54.5-53.9 117.8-53.8 148.2 31.7-14.9 101.9-44.7 181.4-58 38.3-6.5 78.9 9.9 114.6 24.4 28.5 11.5 58 23.4 70.6 15 8.2-5.5 12.6-21.8 12.6-47.2-0.9-8.1-12.9-100.3-72.1-145.8-22.2-17.2-48.7-25.8-79.1-25.8z" fill="#1B1C26" p-id="2339"></path><path d="M514.6 490.3c6.7 12 19.7 19 33.4 18 35.1-2.5 97.6 2.8 97.6 72.9 0 90.8-140.4 268.3-323.4 321.7-21.2 6.2-42.8-9-44.3-31.1-7.1-99.5-14.6-352 84.5-427.6 79.3-60.4 131.4 8.5 152.2 46.1z" fill="#FCBED7" p-id="2340"></path><path d="M312.5 917.1c-9.5 0-18.9-2.9-27-8.5-11.9-8.3-19.4-21.4-20.4-35.9C257.5 767 251 512.8 354.6 434c29.2-22.2 58.1-30.5 85.9-24.7 41 8.6 69 45.4 85.3 74.7 4.3 7.7 12.4 12 21.3 11.5 26.4-1.9 62.9 0.6 87.3 23.3 16 14.9 24 35.9 24 62.4 0 49.2-37 119.5-96.5 183.6-67 72.1-150.9 125.5-236.2 150.4-4.3 1.2-8.8 1.9-13.2 1.9z m110.8-483.9c-16.8 0-34.6 7.1-53.2 21.2-96.2 73.3-85.2 337.3-79.5 416.4 0.5 6.7 3.9 12.8 9.5 16.7 5.4 3.8 12.1 4.9 18.5 3.1 179.3-52.3 314.2-223.7 314.2-309.4 0-19.4-5.2-33.7-15.9-43.7-18.5-17.2-50.6-17.7-68-16.5-18.7 1.4-36.5-8.3-45.5-24.6-11.2-20.2-34.9-55.1-68.2-62.1-3.9-0.7-7.9-1.1-11.9-1.1z" fill="#1B1C26" p-id="2341"></path><path d="M707.8 181.9l-167.6 302" fill="#FFFAFC" p-id="2342"></path><path d="M528.904 477.605l167.623-301.983 22.382 12.424-167.622 301.983z" fill="#1B1C26" p-id="2343"></path><path d="M721.2 165.2m-34 0a34 34 0 1 0 68 0 34 34 0 1 0-68 0Z" fill="#FFE785" p-id="2344"></path><path d="M721.2 212.1c-25.8 0-46.8-21-46.8-46.8s21-46.8 46.8-46.8 46.8 21 46.8 46.8-21 46.8-46.8 46.8z m0-68c-11.7 0-21.2 9.5-21.2 21.2s9.5 21.2 21.2 21.2 21.2-9.5 21.2-21.2-9.5-21.2-21.2-21.2z" fill="#1B1C26" p-id="2345"></path><path d="M801.4 257.6L537.1 501.1" fill="#FFFAFC" p-id="2346"></path><path d="M528.409 491.687L792.674 248.26l17.344 18.829-264.265 243.426z" fill="#1B1C26" p-id="2347"></path><path d="M808.751044 278.408397a34 34 0 1 0 21.379655-64.55161 34 34 0 1 0-21.379655 64.55161Z" fill="#FFE785" p-id="2348"></path><path d="M819.5 292.9c-4.9 0-9.9-0.8-14.8-2.4-11.9-3.9-21.5-12.2-27.1-23.4-5.6-11.2-6.5-23.9-2.6-35.7 3.9-11.9 12.2-21.5 23.4-27.1 11.2-5.6 23.9-6.5 35.7-2.6 11.9 3.9 21.5 12.2 27.1 23.4 5.6 11.2 6.5 23.9 2.6 35.7-3.9 11.9-12.2 21.5-23.4 27.1-6.6 3.4-13.7 5-20.9 5z m-0.1-68c-3.3 0-6.5 0.8-9.5 2.3-5 2.5-8.8 6.9-10.6 12.3-1.8 5.4-1.4 11.1 1.2 16.2 2.5 5.1 6.9 8.8 12.3 10.6 5.4 1.8 11.1 1.4 16.2-1.2 5-2.5 8.8-6.9 10.6-12.3 1.8-5.4 1.4-11.1-1.2-16.2-2.5-5.1-6.9-8.8-12.3-10.6-2.2-0.7-4.5-1.1-6.7-1.1z" fill="#1B1C26" p-id="2349"></path></svg>