<?xml version="1.0" standalone="no"?><!DOCTYPE svg PUBLIC "-//W3C//DTD SVG 1.1//EN" "http://www.w3.org/Graphics/SVG/1.1/DTD/svg11.dtd"><svg t="1551629379894" class="icon" style="" viewBox="0 0 1184 1024" version="1.1" xmlns="http://www.w3.org/2000/svg" p-id="4477" xmlns:xlink="http://www.w3.org/1999/xlink" width="115.625" height="100"><defs><style type="text/css"></style></defs><path d="M14.631053 131.652753l1155.652752 0 0 877.716194-1155.652752 0 0-877.716194Z" fill="#FFFFFF" p-id="4478"></path><path d="M1141.0217 1024H43.879797A43.919882 43.919882 0 0 1 0 980.066756V160.914858a43.919882 43.919882 0 0 1 43.879797-43.879797h1097.141903a43.919882 43.919882 0 0 1 43.879797 43.879797v819.151898a43.919882 43.919882 0 0 1-43.879797 43.933244zM43.879797 146.297167a14.697861 14.697861 0 0 0-14.697861 14.617691v819.151898a14.697861 14.697861 0 0 0 14.697861 14.697862h1097.141903a14.697861 14.697861 0 0 0 14.697861-14.697862V160.914858a14.697861 14.697861 0 0 0-14.697861-14.617691z" fill="#684C4B" p-id="4479"></path><path d="M14.631053 131.652753l1155.652752 0 0 234.056761-1155.652752 0 0-234.056761Z" fill="#ED758D" p-id="4480"></path><path d="M1155.15837 380.353928H29.743127A29.76985 29.76985 0 0 1 0 350.610802V146.764826a29.76985 29.76985 0 0 1 29.743127-29.729765h1125.415243a29.76985 29.76985 0 0 1 29.743127 29.729765V350.610802a29.76985 29.76985 0 0 1-29.743127 29.743126zM29.743127 146.297167l-0.494383 204.313635 1125.909626 0.48102a0.481021 0.481021 0 0 0 0.494383-0.48102V146.764826z" fill="#684C4B" p-id="4481"></path><path d="M819.191983 585.148584c0 153.499119-234.056761 277.923196-234.056761 277.923196s-234.056761-124.437439-234.056761-277.923196 226.747915-138.961598 234.056761-43.879797c7.375654-95.095163 234.056761-109.619322 234.056761 43.879797z" fill="#EBDD9E" p-id="4482"></path><path d="M585.135222 877.716195a14.564244 14.564244 0 0 1-6.86791-1.710297c-9.87429-5.251145-241.846628-130.410115-241.846627-290.857314 0-86.289808 66.514503-127.457181 132.414369-129.995903 44.641413-1.81719 92.676697 13.842713 116.246721 45.830604 23.596748-31.987891 71.284628-47.647794 116.246722-45.830604 65.899866 2.538722 132.414369 43.706095 132.414369 129.995903 0 160.447199-231.945614 285.606169-241.846628 290.857314a14.524159 14.524159 0 0 1-6.761016 1.710297z m-109.539152-393.368217c-1.870637 0-3.741274 0-5.598549 0.106894-50.413664 1.937445-104.288007 29.395723-104.288007 100.76052 0 128.766627 181.505226 239.468246 219.425708 261.180996 37.907121-21.79292 219.425708-132.628156 219.425708-261.247804 0-71.338074-53.860981-98.876522-104.221199-100.760521-46.846093-1.777105-97.540353 19.401177-100.560095 57.989744a14.631053 14.631053 0 0 1-29.168573 0c-2.912849-37.065334-49.598601-58.029829-95.014993-58.029829z" fill="#684C4B" p-id="4483"></path><path d="M117.035061 14.631053l87.772956 0 0 219.425708-87.772956 0 0-219.425708Z" fill="#F0D0D3" p-id="4484"></path><path d="M189.655858 248.687814h-57.455276a29.809935 29.809935 0 0 1-29.76985-29.76985V29.783212A29.809935 29.809935 0 0 1 132.200582 0h57.455276a29.809935 29.809935 0 0 1 29.76985 29.783212v189.134752a29.809935 29.809935 0 0 1-29.76985 29.76985z m-57.455276-219.425708l-0.507744 189.655858 58.003105 0.521106a0.507744 0.507744 0 0 0 0.507745-0.521106V29.783212z" fill="#684C4B" p-id="4485"></path><path d="M336.46077 14.631053l87.772955 0 0 219.425708-87.772955 0 0-219.425708Z" fill="#F0D0D3" p-id="4486"></path><path d="M409.081566 248.687814h-57.455276a29.809935 29.809935 0 0 1-29.783212-29.76985V29.783212A29.823297 29.823297 0 0 1 351.62629 0h57.455276a29.809935 29.809935 0 0 1 29.76985 29.783212v189.134752a29.809935 29.809935 0 0 1-29.76985 29.76985z m-57.455276-219.425708l-0.521106 189.655858 58.003106 0.521106a0.507744 0.507744 0 0 0 0.507744-0.521106V29.783212z" fill="#684C4B" p-id="4487"></path><path d="M555.886478 14.631053l87.772955 0 0 219.425708-87.772955 0 0-219.425708Z" fill="#F0D0D3" p-id="4488"></path><path d="M628.507275 248.687814h-57.455277a29.796573 29.796573 0 0 1-29.76985-29.76985V29.783212A29.809935 29.809935 0 0 1 571.051998 0h57.455277a29.809935 29.809935 0 0 1 29.76985 29.783212v189.134752a29.796573 29.796573 0 0 1-29.76985 29.76985z m-57.455277-219.425708l-0.521106 189.655858 58.003106 0.521106a0.521106 0.521106 0 0 0 0.521106-0.521106V29.783212z" fill="#684C4B" p-id="4489"></path><path d="M775.312186 14.631053l87.772956 0 0 219.425708-87.772956 0 0-219.425708Z" fill="#F0D0D3" p-id="4490"></path><path d="M847.932983 248.687814h-57.455276a29.809935 29.809935 0 0 1-29.76985-29.76985V29.783212A29.809935 29.809935 0 0 1 790.477707 0h57.455276a29.809935 29.809935 0 0 1 29.76985 29.783212v189.134752a29.796573 29.796573 0 0 1-29.76985 29.76985z m-57.455276-219.425708l-0.507745 189.655858 57.989744 0.521106a0.507744 0.507744 0 0 0 0.521106-0.521106V29.783212z" fill="#684C4B" p-id="4491"></path><path d="M994.737894 14.631053l87.772956 0 0 219.425708-87.772956 0 0-219.425708Z" fill="#F0D0D3" p-id="4492"></path><path d="M1067.358691 248.687814h-57.455276a29.809935 29.809935 0 0 1-29.76985-29.76985V29.783212A29.809935 29.809935 0 0 1 1009.903415 0h57.455276a29.823297 29.823297 0 0 1 29.783212 29.783212v189.134752a29.809935 29.809935 0 0 1-29.783212 29.76985z m-57.455276-219.425708l-0.507745 189.655858 57.989744 0.521106a0.507744 0.507744 0 0 0 0.521106-0.521106V29.783212z" fill="#684C4B" p-id="4493"></path></svg>