<?xml version="1.0" standalone="no"?><!DOCTYPE svg PUBLIC "-//W3C//DTD SVG 1.1//EN" "http://www.w3.org/Graphics/SVG/1.1/DTD/svg11.dtd"><svg t="1551626901649" class="icon" style="" viewBox="0 0 1024 1024" version="1.1" xmlns="http://www.w3.org/2000/svg" p-id="2631" xmlns:xlink="http://www.w3.org/1999/xlink" width="100" height="100"><defs><style type="text/css"></style></defs><path d="M381.614793 393.200553a126.88134 126.88134 0 0 0 44.625636 32.727089c34.807509 15.244253 49.090633 35.281991 42.301891 67.571096s-103.145077-2.056088-86.927527-100.298185z" fill="#A1E25D" p-id="2632"></path><path d="M442.7743 431.438932c0.498814 0.218992 0.948964 0.45015 1.435612 0.669141q-5.657285-3.187545-12.324365-6.083102c3.406537 1.873595 7.0199 3.722858 10.888753 5.413961zM397.491689 403.736486a99.580379 99.580379 0 0 1-10.35344-10.535933c-10.085783 61.013513 23.261782 97.329631 51.609037 108.413043-24.332408-14.794104-47.740184-47.545525-41.255597-97.87711z" fill="#FFFFFF" p-id="2633"></path><path d="M653.590281 523.050447a81.40407 81.40407 0 0 1-35.087332 5.340964c-24.332408-1.678936-38.408706 5.486958-44.138988 25.841017s59.237247 29.490878 79.22632-31.181981z" fill="#A1E25D" p-id="2634"></path><path d="M590.897832 555.850533C595.691317 538.84218 606.482739 531.66412 624.014239 531.66412c-24.332408-7.299722-38.408706 3.856687-44.138988 24.198579-2.761728 9.80596 10.888752 16.971854 27.982269 15.025262-11.436232-1.508609-19.088774-7.470049-16.959688-15.037428zM635.03682 531.66412c8.783999 0 16.655533-1.995257 22.714303-3.272709 0.462316-1.21662 0.924631-1.605939 1.350448-2.88339 0 0-9.927622-1.107125-24.222912 6.156099z" fill="#FFFFFF" p-id="2635"></path><path d="M524.519024 329.376648a81.294574 81.294574 0 0 1-31.63213 16.083721c-23.614602 6.083102-34.734512 17.27601-33.785549 38.39654s65.502842 9.392309 65.417679-54.480261z" fill="#A1E25D" p-id="2636"></path><path d="M470.123926 389.319534c-0.948964-21.12053 10.170946-32.349936 33.785548-38.384373a82.499029 82.499029 0 0 0 20.244564-8.273019c0.218992-2.53057 0.377152-5.109806 0.364986-7.822869a81.416236 81.416236 0 0 1-31.63213 16.095888c-23.614602 6.083102-34.734512 17.263843-33.785549 38.384373 0.340654 7.664708 9.075988 10.949584 20.049904 9.063822-5.280132-1.131457-8.808332-4.19734-9.027323-9.063822z" fill="#FFFFFF" p-id="2637"></path><path d="M403.842447 169.111244q-7.810703-5.657285-16.82586-11.375401a8.321683 8.321683 0 0 0-12.506857 5.073307c-8.674503 36.401282-28.700075 150.751432 61.317667 153.719986a20.086403 20.086403 0 0 0 10.669761-2.640066 20.524386 20.524386 0 0 0 6.533252-5.76678c12.932675-17.507167 34.065371-61.074344-20.208065-114.775968-7.944531-7.920199 12.494691-49.990932-28.979898-24.235078z" fill="#E381EA" p-id="2638"></path><path d="M424.98731 164.244762c6.557584-9.830293 17.750491 1.788432 28.322922-9.526137 2.080421-2.250748 12.008043-2.859058 13.991135-4.64749a12.08104 12.08104 0 0 1 18.589959 2.956387c20.560885 36.328285 79.627804 157.004861-39.260339 163.282623h-0.766471M403.842447 169.111244c11.253739-22.105992 27.78761-44.722965 57.351486-12.908342" fill="#E381EA" p-id="2639"></path><path d="M608.721321 315.90866q-4.173008-8.674503-9.404476-17.993816a8.33385 8.33385 0 0 0-13.382824-1.47211c-24.892053 27.982269-96.794318 119.082804-18.954946 164.426245a20.293228 20.293228 0 0 0 10.645429 2.72523 20.804209 20.804209 0 0 0 8.516343-1.983091c19.684918-9.282814 58.933092-37.605736 36.668938-110.627292-3.33354-10.694093 34.637182-38.031553-14.088464-35.075166z" fill="#E381EA" p-id="2640"></path><path d="M629.598527 321.711939c10.450769-5.535623 14.781938 10.012786 29.466546 5.061141 2.895557-0.985463 11.92288 3.175379 14.514281 2.542737a12.068874 12.068874 0 0 1 14.952264 11.436231c0.8638 41.730079-4.392 175.984139-112.026405 125.092909l-0.70564-0.328488M608.721321 315.90866c20.402724-14.112797 45.684096-26.181671 56.609347 15.816065" fill="#E381EA" p-id="2641"></path><path d="M518.800908 986.217829a5.438293 5.438293 0 0 1-5.401795-4.866481l-65.502841-664.067907a5.438293 5.438293 0 0 1 10.827921-1.070626l65.502842 664.019242a5.450459 5.450459 0 0 1-4.866482 5.96144z" fill="" p-id="2642"></path><path d="M432.822345 995.257319a5.474792 5.474792 0 0 1-5.219301-7.0199L584.705234 468.801344a5.450459 5.450459 0 1 1 10.426437 3.151047l-157.102191 519.496906a5.450459 5.450459 0 0 1-5.207135 3.808022zM961.991383 1023.993893h-101.612135a5.450459 5.450459 0 1 1 0-10.888753h101.612135a5.450459 5.450459 0 0 1 0 10.888753zM798.708761 1023.993893H62.008617a5.450459 5.450459 0 0 1 0-10.888753H798.708761a5.450459 5.450459 0 1 1 0 10.888753z" fill="" p-id="2643"></path><path d="M363.219493 785.670125V963.199372c0 29.819366 28.164762 51.098056 57.984127 51.098056h172.249115c29.819366 0 52.813491-21.278691 52.813491-51.098056V785.670125z" fill="#528BE8" p-id="2644"></path><path d="M450.548504 510.70175a45.696262 45.696262 0 0 1-8.370348-0.815135c-18.04248-3.394371-37.033925-16.546037-49.565115-34.333028-11.132077-15.816065-23.006292-43.056196-16.363544-83.241167a5.450459 5.450459 0 0 1 9.623467-2.518404 122.501507 122.501507 0 0 0 42.581714 31.145482c18.881948 8.273019 31.692961 17.908652 39.138678 29.442214 7.932365 12.287866 9.988453 26.765649 6.31426 44.236317-2.189917 10.280442-10.986082 16.083722-23.359112 16.083721z m-64.943196-105.383658c-2.433241 30.41551 7.007733 51.329214 15.901228 63.9699 13.103002 18.58996 30.646668 27.629449 42.679044 29.892363 12.482525 2.348077 18.018148-1.970925 19.027942-6.800908 5.985772-28.444585-5.730282-46.827719-39.16301-61.463662a136.383146 136.383146 0 0 1-38.445204-25.597693zM596.847106 575.073135a44.51614 44.51614 0 0 1-12.944841-1.837097c-11.497063-3.503867-17.300342-11.545727-14.781938-20.487887 6.265595-22.239821 22.069494-31.705127 49.747608-29.782867a75.807616 75.807616 0 0 0 32.520263-4.866482 5.450459 5.450459 0 0 1 7.37272 6.679246c-8.382514 25.451699-23.663267 37.715232-35.014335 43.579343a59.614399 59.614399 0 0 1-26.899477 6.715744z m15.025262-41.474589c-18.407466 0-27.921438 6.66708-32.264773 22.105993-1.21662 4.233839 6.022271 6.679246 7.482215 7.117229 7.141562 2.189917 19.222602 2.238582 31.632131-4.173008 7.944531-4.063512 18.176309-11.935046 25.47603-26.98464a89.263438 89.263438 0 0 1-26.120839 2.165584c-2.141252-0.158161-4.221673-0.231158-6.204764-0.231158zM473.311472 398.918669c-11.57006 0-19.246935-5.766781-19.64842-14.818436-1.046294-23.115787 10.949584-37.033925 37.873393-43.90783a76.050941 76.050941 0 0 0 29.332718-14.854935 5.450459 5.450459 0 0 1 9.10032 4.027013c0 26.765649-10.621096 43.263021-19.55109 52.314677-10.280442 10.475102-23.84576 16.886691-36.291786 17.17868z m45.014954-58.397779a88.93495 88.93495 0 0 1-24.113416 10.25611c-21.899167 5.596454-30.500673 15.122591-29.697704 32.848751 0.194659 4.404166 7.810703 4.452831 9.331479 4.416332 7.482215-0.170327 18.967112-3.917518 28.773072-13.905971 6.253429-6.362925 13.455822-17.044852 15.730901-33.65172z" fill="" p-id="2645"></path><path d="M397.589019 162.225172s-14.258791 96.879482 0 131.468c0 0-61.427163-37.325914-19.465927-130.92052zM600.557798 300.433249s-54.845247 104.787514-52.995984 142.149926c0 0-36.437781-74.055683 34.479022-148.172197z" fill="#FFFFFF" p-id="2646"></path><path d="M436.447874 321.955263h-0.778637c-24.648729-0.815136-43.567176-9.659966-56.256527-26.279-28.992064-37.958556-16.789361-106.46645-10.207445-134.15673a13.784309 13.784309 0 0 1 20.682547-8.419013c6.168265 3.917518 11.92288 7.810703 17.105682 11.570059a249.626171 249.626171 0 0 1 29.649039 24.758225c57.75297 57.181158 33.761216 104.276534 20.76771 121.868865a26.096507 26.096507 0 0 1-8.248686 7.299722 25.549028 25.549028 0 0 1-12.713683 3.357872zM382.624588 161.811522a2.859058 2.859058 0 0 0-1.119291 0.231157 2.761728 2.761728 0 0 0-1.703268 1.958759c-2.822559 11.82555-7.603877 35.354989-7.968864 59.86989-0.437983 28.566247 5.024642 50.47758 16.229716 65.150021 10.60893 13.893805 26.765649 21.303023 47.94701 21.996497a14.794104 14.794104 0 0 0 7.78637-1.934426 15.317251 15.317251 0 0 0 4.866482-4.270338c6.350758-8.601506 13.930303-22.616973 14.039799-40.622955 0.121662-22.251987-11.21724-44.808129-33.688219-67.072282a239.85671 239.85671 0 0 0-28.335089-23.663266c-5.00031-3.649861-10.572431-7.397052-16.546037-11.180742A2.664399 2.664399 0 0 0 382.624588 161.811522z" fill="" p-id="2647"></path><path d="M445.815851 321.821435a5.450459 5.450459 0 0 1-0.437983-10.876586h0.973296c30.585837-1.618105 50.915563-11.21724 60.417368-28.541915C527.779566 244.018561 492.473243 175.741825 481.170839 155.72842a6.642747 6.642747 0 0 0-10.207445-1.605939c-1.800598 1.618105-3.735025 3.540365-5.778947 5.730282-10.669761 11.436232-22.020829 27.738945-27.824108 36.498611a5.438293 5.438293 0 1 1-9.051656-6.083102c5.985772-8.978658 17.713993-25.828851 28.919067-37.824727 2.250748-2.433241 4.416332-4.574493 6.448088-6.399424a17.507167 17.507167 0 0 1 26.960308 4.319003c15.41458 27.240131 48.762145 95.127548 25.682856 137.222613-11.424065 20.840707-34.746678 32.33777-69.347362 34.174867H446.278167z" fill="" p-id="2648"></path><path d="M403.830281 174.513038a5.377462 5.377462 0 0 1-2.348077-0.535313 5.438293 5.438293 0 0 1-2.554903-7.299722c6.083102-12.579855 16.509539-28.067432 32.021449-30.41551 11.180741-1.703269 22.68997 3.735025 34.223531 16.156719a5.438293 5.438293 0 1 1-7.968863 7.409218c-8.94216-9.611301-17.227345-13.930303-24.624397-12.798846-11.375401 1.715435-19.818746 15.998558-23.833593 24.332408a5.438293 5.438293 0 0 1-4.915147 3.151046z" fill="" p-id="2649"></path><path d="M582.916802 470.48028a25.695023 25.695023 0 0 1-11.21724-2.603567c-22.154657-10.852254-35.780806-26.668319-40.549957-47.022378-10.86442-46.511397 28.347255-103.996711 45.708428-126.528521a13.772143 13.772143 0 0 1 22.349316 0.827302c4.014847 6.083102 7.664708 11.995877 10.852254 17.567999a249.735667 249.735667 0 0 1 16.862359 34.722345c29.198889 75.831949-11.971545 108.948356-31.035986 119.678948a25.853183 25.853183 0 0 1-10.499434 3.260543 23.979588 23.979588 0 0 1-2.46974 0.097329z m4.866482-170.618843a2.761728 2.761728 0 0 0-2.250748 1.094958c-7.421384 9.635633-21.424685 29.125892-31.814623 51.341381-12.105373 25.865349-16.108054 48.10517-11.910713 66.074653 3.978349 17.032685 15.657904 30.41551 34.710179 39.722656a14.757605 14.757605 0 0 0 7.895867 1.423446 15.292918 15.292918 0 0 0 6.168265-1.897928c9.319312-5.243634 21.98433-14.915766 29.45438-31.303643 9.246315-20.244563 8.151357-45.465104-3.224044-74.980314a238.287269 238.287269 0 0 0-16.132387-33.213737c-3.07805-5.365296-6.606249-11.083412-10.499434-17.032685a2.822559 2.822559 0 0 0-2.27508-1.216621z" fill="" p-id="2650"></path><path d="M623.028777 481.08921c-12.227035 0-25.901848-2.907723-40.939276-8.723168l-0.510981-0.206825h-0.133828a5.450459 5.450459 0 0 1 3.649861-10.268277l0.620476 0.243325h0.267657c28.566247 11.071246 51.037225 10.645428 66.816792-1.216621 34.892673-26.351998 30.671-103.096412 28.55408-125.981041a6.484587 6.484587 0 0 0-2.932055-4.866482 6.606249 6.606249 0 0 0-5.718116-0.778637c-2.299413 0.729972-4.866482 1.691102-7.616043 2.859058C650.633893 338.221478 633.601208 348.428923 624.732045 354.037543a5.438293 5.438293 0 0 1-5.778947-9.221983c9.148985-5.730282 26.765649-16.302713 41.88824-22.641305 3.041551-1.21662 5.912775-2.360244 8.516343-3.187545a17.519334 17.519334 0 0 1 22.823799 14.988763c2.88339 31.169814 5.462626 106.758439-32.848751 135.689672-10.134448 7.603877-22.276319 11.424065-36.303952 11.424065z" fill="" p-id="2651"></path><path d="M662.946092 332.588526a5.438293 5.438293 0 0 1-5.158471-3.649862c-4.209507-12.43386-9.988453-19.770081-17.203012-21.777505-11.083412-3.090216-24.636563 6.47242-31.72946 12.458193a5.438293 5.438293 0 1 1-7.019899-8.321683c10.669761-9.002991 26.570989-18.833284 41.669248-14.599445 10.888752 3.041551 19.173937 12.725849 24.600064 28.773072a5.438293 5.438293 0 0 1-3.418703 6.898238 5.073307 5.073307 0 0 1-1.739767 0.218992z" fill="" p-id="2652"></path><path d="M593.452735 1022.850269H421.20362a59.723895 59.723895 0 0 1-59.614399-59.614399V756.909219a5.450459 5.450459 0 1 1 10.949584 0V963.199372a48.835142 48.835142 0 0 0 48.774311 48.774311h172.139619a48.835142 48.835142 0 0 0 48.774311-48.774311V690.408748a48.90814 48.90814 0 0 0-42.265392-48.275497 5.462626 5.462626 0 0 1-4.720487-5.365296 28.49325 28.49325 0 0 0-28.420252-28.262091h-118.973308a28.505416 28.505416 0 0 0-28.432419 28.262091 5.450459 5.450459 0 0 1-4.720487 5.365296 48.920306 48.920306 0 0 0-42.265392 48.275497v25.147544a5.450459 5.450459 0 0 1-10.949584 0v-25.147544a59.869889 59.869889 0 0 1 47.277869-58.300449 39.442833 39.442833 0 0 1 39.029182-34.491188h119.034139a39.442833 39.442833 0 0 1 39.017016 34.491188 59.869889 59.869889 0 0 1 47.277868 58.300449V963.199372a59.723895 59.723895 0 0 1-59.663064 59.650897z" fill="" p-id="2653"></path><path d="M400.995556 860.735603m-12.957007 0a12.957007 12.957007 0 1 0 25.914014 0 12.957007 12.957007 0 1 0-25.914014 0Z" fill="#FFFFFF" p-id="2654"></path><path d="M461.644082 982.008323m-8.58934 0a8.58934 8.58934 0 1 0 17.17868 0 8.58934 8.58934 0 1 0-17.17868 0Z" fill="#FFFFFF" p-id="2655"></path><path d="M599.46284 827.655694m-8.58934 0a8.58934 8.58934 0 1 0 17.17868 0 8.58934 8.58934 0 1 0-17.17868 0Z" fill="#FFFFFF" p-id="2656"></path><path d="M678.032184 196.521701A17.215179 17.215179 0 1 1 695.296028 179.306523a17.227345 17.227345 0 0 1-17.263844 17.215178z m0-27.179299a9.964121 9.964121 0 1 0 9.951955 9.964121 9.964121 9.964121 0 0 0-9.951955-9.964121z" fill="#FD6C00" p-id="2657"></path><path d="M802.261292 379.331081m-13.589649 0a13.58965 13.58965 0 1 0 27.179299 0 13.58965 13.58965 0 1 0-27.179299 0Z" fill="#39ADFB" p-id="2658"></path><path d="M331.988847 43.349194m-13.589649 0a13.58965 13.58965 0 1 0 27.179299 0 13.58965 13.58965 0 1 0-27.179299 0Z" fill="#39ADFB" p-id="2659"></path><path d="M287.837693 307.294988l-12.166204-0.377153a5.912775 5.912775 0 0 0-4.951645 2.433241l-7.238891 9.854625a5.924941 5.924941 0 0 1-10.450769-1.849263l-3.418703-11.740386a5.937107 5.937107 0 0 0-3.820188-3.966183l-11.594393-3.84452a5.912775 5.912775 0 0 1-1.47211-10.511601l10.097949-6.873905a5.912775 5.912775 0 0 0 2.591401-4.866481l0.060831-12.227035a5.912775 5.912775 0 0 1 9.538304-4.64749l9.672132 7.494381a5.888443 5.888443 0 0 0 5.413961 0.948964l11.655223-3.710692a5.912775 5.912775 0 0 1 7.360554 7.62821l-4.124343 11.509229a5.888443 5.888443 0 0 0 0.754304 5.450459l7.141562 9.927623a5.912775 5.912775 0 0 1-5.048975 9.367977z" fill="#FD6C00" p-id="2660"></path><path d="M804.00106 47.181548c0-1.7641 0.316321-1.812764 0.76647-5.438293h-22.373649a5.462626 5.462626 0 0 0 0 10.888753H804.791863c-0.474482-7.263224-0.790803-3.674194-0.790803-5.45046zM839.57504 36.402292l16.716364-16.716364a5.085473 5.085473 0 0 0-7.17806-7.190227L832.384813 29.199899a18.954946 18.954946 0 0 1 7.190227 7.202393zM822.274698 26.681495c1.776266 0 1.812764 0.316321 5.438293 0.778637V5.086483a5.450459 5.450459 0 0 0-10.876586 0v22.373649c7.251058-0.462316 3.662027-0.778637 5.438293-0.778637zM806.53163 36.402292a19.040109 19.040109 0 0 1 7.190226-7.17806L797.005492 12.495701a5.085473 5.085473 0 1 0-7.190226 7.190227zM863.712788 41.743255H841.290474c0.45015 3.649861 0.778637 3.649861 0.778638 5.438293s-0.328488-1.812764-0.778638 5.45046h22.373649a5.462626 5.462626 0 0 0 0-10.888753zM839.57504 55.077415a18.979278 18.979278 0 0 1-7.190227 7.190226l16.728531 16.716364a5.085473 5.085473 0 0 0 7.17806 0 5.061141 5.061141 0 0 0 0-7.190226zM822.274698 64.798212c-1.776266 0 1.812764-0.316321-5.438293-0.766471V86.381057a5.450459 5.450459 0 0 0 10.876586 0V64.031741c-3.625529 0.45015-3.662027 0.766471-5.438293 0.766471zM806.53163 55.077415L789.815266 71.781613a5.085473 5.085473 0 0 0 0 7.190226 5.097639 5.097639 0 0 0 7.190226 0l16.716364-16.716364a19.064441 19.064441 0 0 1-7.190226-7.17806z" fill="#FFD304" p-id="2661"></path></svg>