<?xml version="1.0" standalone="no"?><!DOCTYPE svg PUBLIC "-//W3C//DTD SVG 1.1//EN" "http://www.w3.org/Graphics/SVG/1.1/DTD/svg11.dtd"><svg t="1551629405794" class="icon" style="" viewBox="0 0 1024 1024" version="1.1" xmlns="http://www.w3.org/2000/svg" p-id="5485" xmlns:xlink="http://www.w3.org/1999/xlink" width="100" height="100"><defs><style type="text/css"></style></defs><path d="M780.088 991.722c-26.972 0-48.672-22.572-47.242-49.854 1.34-25.582 24.302-44.766 49.92-44.766h93.366c26.968 0 50.474-18.354 57.016-44.516l4.642-18.564h63.08l-31.538 78.85 29.976 78.85h-219.22zM243.912 991.722c26.972 0 48.672-22.572 47.242-49.854-1.34-25.582-24.302-44.766-49.92-44.766H147.868c-26.968 0-50.474-18.354-57.016-44.516l-4.642-18.564H23.132l31.54 78.85-29.976 78.85h219.216z" fill="#FAEDD6" p-id="5486"></path><path d="M920.084 118.262c-111.868-111.868-293.238-111.868-405.104 0l-5.958 5.958c-111.868-111.868-293.238-111.868-405.104 0s-111.868 293.238 0 405.104L509.02 934.428l411.062-411.062c111.868-111.868 111.868-293.24 0.002-405.104z" fill="#FA004B" p-id="5487"></path><path d="M291.222 755.172H157.176c-39.192 0-70.964 31.772-70.964 70.964s31.772 70.964 70.964 70.964h134.044v-141.928h0.002zM732.778 755.172h134.044c39.192 0 70.964 31.772 70.964 70.964s-31.772 70.964-70.964 70.964h-134.044v-141.928z" fill="#36C9A3" p-id="5488"></path><path d="M937.802 834.022c0-48.05-37.904-80.426-85.952-80.426H172.15c-48.05 0-84.95 32.378-84.95 80.426v-145c0-48.05 36.9-93.484 84.95-93.484h679.7c48.05 0 85.952 45.438 85.952 93.484v145z" fill="#FAEDD6" p-id="5489"></path><path d="M512.004 676.322m-78.85 0a78.85 78.85 0 1 0 157.7 0 78.85 78.85 0 1 0-157.7 0Z" fill="#FFFFFF" p-id="5490"></path><path d="M921.844 312.698h-31.196c0-95.666-77.632-172.724-173.298-172.724V108.778c112.308 0 204.494 91.616 204.494 203.92z" fill="#FFFFFF" p-id="5491"></path><path d="M638.324 660.016h29.116v31.196h-29.116z" fill="#FA004B" p-id="5492"></path><path d="M688.238 660.016h31.196v31.196h-31.196z" fill="#232323" p-id="5493"></path><path d="M736.07 660.016h31.196v31.196h-31.196z" fill="#FA004B" p-id="5494"></path><path d="M781.824 660.016h29.116v31.196h-29.116z" fill="#232323" p-id="5495"></path><path d="M827.578 660.016h33.276v31.196h-33.276zM355.484 660.016h33.276v31.196h-33.276z" fill="#FA004B" p-id="5496"></path><path d="M307.652 660.016h29.116v31.196h-29.116z" fill="#232323" p-id="5497"></path><path d="M261.898 660.016h29.116v31.196h-29.116z" fill="#FA004B" p-id="5498"></path><path d="M214.064 660.016h31.196v31.196h-31.196z" fill="#232323" p-id="5499"></path><path d="M166.23 660.016h31.196v31.196H166.23z" fill="#FA004B" p-id="5500"></path><path d="M889.97 343.902h31.196v33.276h-31.196z" fill="#FFFFFF" p-id="5501"></path><path d="M535.452 658.918a16.462 16.462 0 0 0-23.28 0l-0.344 0.344a16.462 16.462 0 0 0-23.28 23.28l23.28 23.28 23.622-23.622a16.464 16.464 0 0 0 0.002-23.282z" fill="#FA004B" p-id="5502"></path><path d="M1024 818.066h-69.56v-129.044c0-48.278-31.936-90.35-74.302-103.652l50.976-50.976c57.05-57.05 88.468-132.902 88.468-213.582S988.164 164.28 931.114 107.23C874.064 50.18 798.212 18.76 717.532 18.76c-78.416 0-152.272 29.682-208.736 83.73C390.374-4.468 206.976-0.9 92.888 113.19 35.838 170.24 4.42 246.09 4.42 326.77s31.418 156.534 88.468 213.582l46.618 46.618c-39.624 14.838-68.942 55.568-68.942 102.052v129.044H0l37.846 93.586L0 1005.24h243.912c34.688 0 62.906-28.454 62.906-63.432l-0.002-0.102h0.002l-1.596-155.154-31.194 0.32 1.026 99.86a62.086 62.086 0 0 0-31.144-8.354h-94.62c-26.854 0-47.15-18.728-47.516-43.674h0.034c0-37.434 28.924-64.47 70.34-64.47h150.616l186.254 186.254 186.254-186.254h156.572c41.902 0 71.198 26.868 71.386 64.116-0.188 24.716-21.43 44.03-48.528 44.03h-94.62a62.094 62.094 0 0 0-31.54 8.584v-100.09h-31.196l-0.172 154.938c0 34.976 28.22 63.432 62.906 63.432h243.912l-37.846-93.586L1024 818.066zM114.946 518.296c-105.606-105.606-105.606-277.442 0-383.046s277.44-105.606 383.046 0l11.028 11.028 16.986-16.984c51.158-51.158 119.176-79.332 191.524-79.332s140.366 28.174 191.522 79.332c105.606 105.606 105.606 277.44 0 383.046l-68.642 68.642H177.63l-62.684-62.686z m460.308 158.026c0 32.128-24.08 58.716-55.138 62.714h-16.228c-31.056-3.998-55.138-30.586-55.138-62.714 0-34.876 28.376-63.252 63.252-63.252 34.876 0.002 63.252 28.376 63.252 63.252zM149.292 909.574h94.62c17.476 0 31.692 14.444 31.71 32.204v0.052c-0.01 17.764-14.232 32.214-31.712 32.214H46.266l25.234-62.392-25.234-62.392h25.836c7.156 34.82 38.5 60.314 77.19 60.314z m22.858-170.536c-28.124 0-52.542 9.046-70.392 24.604v-40.01h0.05c0-17.58 14.712-32.428 32.128-32.428h15.354v-31.196h-15.354a62.668 62.668 0 0 0-28.998 7.092c9.104-31.028 36.622-54.926 67.21-54.926h270.614c-12.114 13.066-20.572 29.552-23.772 47.834h-13.596v31.196h13.34c2.89 18.188 10.996 34.654 22.724 47.834H172.15z m336.87 173.33l-142.138-142.138h284.276l-142.138 142.138z m342.83-173.33H582.538c11.73-13.18 19.834-29.646 22.724-47.834h14.342v-31.196h-14.598c-3.198-18.28-11.656-34.766-23.772-47.834h270.612c31.318 0 59.45 24.358 68.414 55.812a64.4 64.4 0 0 0-29.786-7.262h-15.77v31.196h15.77c17.76 0 32.766 14.522 32.766 31.714v40.954c-18.704-16.26-44.03-25.55-71.39-25.55z m125.884 235.006h-197.648c-16.45 0-30.006-12.8-31.556-29.116h0.016v-6.462c1.652-16.21 15.166-28.894 31.54-28.894h94.62c39.184 0 70.926-25.494 78.174-60.312h24.852l-25.234 62.392 25.236 62.392z" fill="#232323" p-id="5503"></path></svg>