<?xml version="1.0" standalone="no"?><!DOCTYPE svg PUBLIC "-//W3C//DTD SVG 1.1//EN" "http://www.w3.org/Graphics/SVG/1.1/DTD/svg11.dtd"><svg t="1551626935511" class="icon" style="" viewBox="0 0 1024 1024" version="1.1" xmlns="http://www.w3.org/2000/svg" p-id="3155" xmlns:xlink="http://www.w3.org/1999/xlink" width="100" height="100"><defs><style type="text/css"></style></defs><path d="M506.3 221.8l-4.6-0.2c-35.6-1.6-67.5-20.7-85.5-50.9l-3-5.1c-8.4-13.9-16.4-27.1-17.1-43.4-1.5-5.4 0.7-11.2 5.6-14.2 2.9-1.7 6.1-2.1 9.2-1.4 0.8-3.1 2.8-5.8 5.7-7.6 3-1.8 6.4-2.2 9.6-1.3 0.8-3 2.8-5.6 5.6-7.3 2.9-1.7 6.1-2.1 9.2-1.4 0.8-3.1 2.8-5.8 5.7-7.6 3.6-2.1 7.8-2.3 11.3-0.7l2-1.2 4.7-2.8 3.4 1.7c17.7 8.6 25.4 21.6 35.1 37.9l1.1 1.9c18 30.2 19.5 67.4 4 99.5l-2 4.1z m-96-96.8c1.5 11.4 7.7 21.7 14.8 33.4 1 1.7 2.1 3.4 3.1 5.1 14.8 24.8 40.5 41 69.5 43.7 11.3-26.8 9.4-57.1-5.4-81.9l-1.1-1.9c-7.8-13.1-13.3-22.4-23.3-29.1-0.7 0.7-1.5 1.4-2.3 1.9-2.3 1.4-5.1 1.8-7.8 1.1h-0.1l0.1 0.1-2.3 1.3c0 0.1 0 0.2-0.1 0.2-0.7 2.7-2.3 4.9-4.7 6.3-2.3 1.4-5 1.8-7.6 1.2l-0.4-0.1-2.1 1.2-0.2-0.3c-0.6 2.7-2.2 5.1-4.8 6.6-2.3 1.4-5.1 1.8-7.8 1.1h-0.1l0.1 0.1-2.3 1.3c0 0.1 0 0.2-0.1 0.2-0.7 2.7-2.3 4.9-4.7 6.3-2.5 1.5-5.4 1.8-8 1.1l-2.1 1.3-0.3-0.2z" fill="#231815" p-id="3156"></path><path d="M405.4 267.3c-12.7 0-24.8-1-36.3-7.1-5.4-1.3-9.4-6.2-9.5-11.9 0-3.3 1.2-6.4 3.3-8.7-2.3-2.2-3.7-5.3-3.7-8.8 0-3.5 1.3-6.7 3.6-8.9-2.1-2.2-3.5-5.2-3.5-8.5s1.2-6.4 3.3-8.7c-2.3-2.2-3.7-5.3-3.7-8.8-0.1-4.1 1.9-7.9 5-10.2l-0.1-7.9 3.1-2.1c16.3-11 31.4-11.2 50.4-11.5h2.2c35.2-0.5 68.1 16.8 88.1 46.2l2.6 3.8-2.5 3.9c-19.2 30-51.7 48.1-86.9 48.6-2 0-4 0.1-5.9 0.1-3 0.4-6.3 0.5-9.5 0.5z m-26.8-18.1c10.6 4.4 22.6 4.2 36.3 3.9 2 0 4-0.1 6-0.1 28.9-0.4 55.7-14.6 72.6-38.3-17.5-23.2-44.7-36.7-73.6-36.3h-2.2c-15.2 0.2-26.1 0.3-36.8 5.6 0.3 0.9 0.5 1.9 0.5 3 0 2.9-1.2 5.6-3.1 7.5l0.1 2.4 0.3 0.3c2 1.9 3.1 4.5 3.1 7.2s-1 5.2-2.8 7.2l-0.3 0.3v2.4h-0.4c2 1.8 3.3 4.5 3.3 7.4 0 2.9-1.1 5.5-3 7.4h0.1v2.7l0.2 0.2c2 1.9 3.1 4.5 3.1 7.2s-1 5.3-2.9 7.3l-0.2 0.2v2.4l-0.3 0.1z" fill="#231815" p-id="3157"></path><path d="M462.9 355.6c-2.1 0-4.1-0.5-6-1.6-2.9-1.6-4.9-4.3-5.8-7.2-3.1 0.9-6.4 0.5-9.4-1.1-3-1.7-5.1-4.5-5.9-7.6-3 0.7-6.2 0.4-9.1-1.2-2.9-1.6-4.9-4.3-5.8-7.2-3.1 0.9-6.4 0.5-9.4-1.1-3.6-2-5.8-5.6-6.3-9.4l-2.1-1.1v-0.1l-4.8-2.7-0.3-3.8c-1.4-19.7 6-32.8 15.3-49.4l1.1-1.9c17.2-30.7 48.6-50.6 84.1-53.2l4.6-0.3 2.1 4.1c16.4 31.6 15.9 68.8-1.3 99.5-1 1.7-1.9 3.5-2.9 5.2-7.8 14.2-15.2 27.7-29.1 36.5-2.4 2.3-5.7 3.6-9 3.6z m2.2-18.9l2.1 1.2-0.1 0.2c9.2-7 14.9-17.5 21.5-29.5 1-1.7 1.9-3.5 2.9-5.2 14.1-25.2 15.2-55.6 3.2-82-28.9 3.6-54.1 20.4-68.3 45.6l-1.1 2c-7.4 13.3-12.8 22.8-13.6 34.7 1 0.2 1.9 0.6 2.8 1.1 2.5 1.4 4.2 3.7 4.9 6.3l2.3 1.3c0.1 0 0.2-0.1 0.3-0.1 2.6-0.7 5.4-0.4 7.8 0.9 2.3 1.3 4.1 3.5 4.8 6l0.1 0.4 2.1 1.2-0.2 0.4c0.1 0 0.2-0.1 0.3-0.1 2.6-0.7 5.4-0.4 7.8 0.9 2.5 1.4 4.3 3.8 4.9 6.4l2.2 1.2c2.6-0.9 5.6-0.7 8.2 0.8 2.7 1.3 4.4 3.6 5.1 6.3z" fill="#231815" p-id="3158"></path><path d="M536.3 351.8l-3.4-1.7c-17.7-8.6-25.4-21.6-35.1-37.9l-1.1-1.9c-18-30.2-19.5-67.4-4-99.5l2-4.2 4.6 0.2c35.6 1.6 67.5 20.7 85.5 50.9l3 5.1c8.4 13.9 16.4 27.1 17 43.4 1.5 5.4-0.7 11.2-5.6 14.2-2.9 1.7-6.1 2.1-9.2 1.4-0.8 3.1-2.8 5.8-5.7 7.6-3 1.8-6.4 2.2-9.6 1.3-0.8 3-2.8 5.6-5.6 7.3-2.9 1.7-6.1 2.1-9.2 1.4-0.8 3.1-2.8 5.8-5.7 7.6-3.6 2.1-7.8 2.3-11.3 0.7l-2 1.2-4.6 2.9z m-33.1-130.6c-11.3 26.8-9.4 57.1 5.4 81.9l1.1 1.9c7.8 13.1 13.3 22.4 23.3 29.1 0.7-0.7 1.4-1.4 2.3-1.9 2.3-1.4 5.1-1.8 7.8-1.1h0.1l-0.1-0.1 2.3-1.3c0.6-2.6 2.2-5 4.7-6.5 2.3-1.4 5-1.8 7.6-1.2l0.3 0.1 2.1-1.3 0.3 0.4c0.6-2.7 2.2-5.1 4.8-6.6 2.3-1.4 5.1-1.8 7.8-1.1h0.1l-0.1-0.1 2.3-1.3c0.6-2.6 2.2-5 4.7-6.5s5.4-1.8 8-1.1l2.1-1.3 0.2 0.3c-1.5-11.4-7.7-21.7-14.8-33.4-1-1.7-2.1-3.4-3.1-5.1-14.5-24.9-40.2-41-69.2-43.8z" fill="#231815" p-id="3159"></path><path d="M579.8 264c-34.7 0-67-17.2-86.7-46.3l-2.6-3.8 2.5-3.9c19.2-30 51.7-48.1 86.9-48.6 2 0 4-0.1 5.9-0.1 16.3-0.3 31.6-0.6 46.1 6.9 5.4 1.3 9.4 6.2 9.5 11.9 0 3.3-1.2 6.4-3.3 8.7 2.3 2.2 3.7 5.3 3.7 8.8 0 3.5-1.3 6.6-3.6 8.9 2.1 2.2 3.5 5.2 3.5 8.5s-1.2 6.4-3.3 8.7c2.3 2.2 3.7 5.3 3.7 8.8 0.1 4.1-1.9 7.9-5 10.2l0.1 7.9-3.1 2.1c-16.3 11-31.4 11.2-50.4 11.5h-2.2c-0.7-0.2-1.2-0.2-1.7-0.2z m-72.4-50.3c17.5 23.2 44.7 36.7 73.6 36.3h2.2c15.2-0.2 26.1-0.3 36.8-5.6-0.3-0.9-0.5-1.9-0.5-3 0-2.7 1-5.3 2.9-7.3l0.1-0.1h-0.1v-2.7c-2-1.8-3.2-4.5-3.3-7.4 0-2.7 1-5.2 2.8-7.2l0.2-0.3-0.1-2.5h0.5c-2-1.8-3.3-4.5-3.3-7.4 0-2.7 1-5.3 2.9-7.3l0.1-0.1h-0.1v-2.7l-0.2-0.2c-2-1.9-3.1-4.5-3.1-7.2s1-5.3 2.9-7.3l0.3-0.3V179h0.1c-10.6-4.4-22.6-4.2-36.3-3.9-2 0-4 0.1-6 0.1-28.7 0.6-55.5 14.9-72.4 38.5z" fill="#231815" p-id="3160"></path><path d="M494.8 221.2l-2.1-4.1c-16.4-31.6-15.9-68.8 1.3-99.5 1-1.7 1.9-3.5 2.9-5.2 7.8-14.2 15.2-27.7 29.1-36.5 3.9-4 10.1-5 15-2.2 2.9 1.6 4.9 4.3 5.8 7.2 3.1-0.9 6.4-0.5 9.4 1.1 3 1.7 5.1 4.5 5.9 7.6 3-0.7 6.2-0.4 9.1 1.2 2.9 1.6 4.9 4.3 5.8 7.2 3.1-0.9 6.4-0.5 9.4 1.1 3.6 2 5.8 5.6 6.3 9.4l6.9 3.8 0.3 3.8c1.4 19.7-6 32.8-15.3 49.4l-1.1 1.9c-17.2 30.7-48.6 50.6-84.1 53.2l-4.6 0.6z m35.8-131.6c-9.2 7-14.9 17.5-21.5 29.5-1 1.7-1.9 3.5-2.9 5.2-14.1 25.2-15.2 55.6-3.2 82 28.9-3.6 54.1-20.4 68.3-45.6l1.1-2c7.4-13.3 12.8-22.8 13.6-34.7-1-0.2-1.9-0.6-2.8-1.1-2.5-1.4-4.3-3.8-4.9-6.4l-2.2-1.2c-2.6 0.9-5.6 0.7-8.2-0.8-2.3-1.3-4.1-3.5-4.8-6l-0.1-0.4-2.1-1.2 0.2-0.3c-0.1 0-0.2 0.1-0.3 0.1-2.6 0.7-5.4 0.4-7.8-0.9-2.5-1.4-4.2-3.7-4.9-6.3l-0.1 0.1-2.3-1.3c-0.1 0-0.2 0-0.2 0.1-2.6 0.7-5.4 0.4-7.8-0.9-2.6-1.4-4.3-3.8-4.9-6.5l-2.1-1.2-0.1-0.2zM195.5 367.8c-4.4 0-8.7-0.3-13.1-0.8-2-0.3-3.9-0.5-5.9-0.7-16.1-1.9-31.4-3.8-44.7-13.3-5.2-2.1-8.4-7.5-7.7-13.1 0.4-3.3 2.1-6.2 4.5-8.1-1.9-2.5-2.9-5.8-2.5-9.2 0.4-3.4 2.3-6.4 4.8-8.4-1.8-2.5-2.7-5.6-2.3-8.9 0.4-3.3 2.1-6.2 4.5-8.1-1.9-2.5-2.9-5.8-2.5-9.2 0.5-4.1 3-7.5 6.4-9.4l1-7.8 3.4-1.7c17.7-8.6 32.6-6.7 51.5-4.3l2.2 0.3c34.9 4.4 65.1 26.1 80.8 58.1l2 4.1-3 3.5c-20 23.7-49 37-79.4 37z m-52.7-24.4c9.9 5.9 21.8 7.3 35.4 8.9 2 0.2 3.9 0.5 5.9 0.7 28.7 3.6 57.2-6.7 77.2-27.8-14.1-25.4-39.2-42.6-67.9-46.2l-2.2-0.3c-15.1-1.9-25.9-3.3-37.3 0.4 0.2 1 0.2 2 0.1 3-0.4 2.9-1.9 5.4-4.2 7l-0.2 2.4c1.8 2.1 2.7 5 2.4 7.9-0.3 2.7-1.7 5-3.8 6.7l-0.3 0.2-0.3 2.4h-0.4c0.1 0.1 0.1 0.2 0.2 0.3 1.7 2.2 2.4 4.8 2.1 7.6-0.3 2.7-1.7 5.1-3.9 6.8-0.1 0.1-0.2 0.1-0.2 0.2l-0.3 2.4c1.8 2.1 2.7 4.9 2.4 7.9-0.4 2.9-1.9 5.4-4.1 7l-0.3 2.4-0.3 0.1z" fill="#231815" p-id="3161"></path><path d="M216.2 461.8c-2.6 0-5.3-0.8-7.5-2.5-2.7-2-4.3-4.9-4.8-8-3.1 0.4-6.4-0.4-9.2-2.5-2.8-2.1-4.4-5.2-4.8-8.4-3.1 0.3-6.2-0.5-8.8-2.5-2.7-2-4.3-4.9-4.8-8-3.1 0.4-6.4-0.4-9.2-2.4-3.3-2.5-5-6.3-4.9-10.2l-1.9-1.4-4.4-3.3 0.3-3.8c1.4-19.7 10.5-31.6 22-46.8l1.4-1.8c21.3-28 55.2-43.3 90.7-41l4.6 0.3 1.5 4.4c11.8 33.6 6.1 70.4-15.2 98.4-1.2 1.6-2.4 3.2-3.5 4.7-9.7 13-19 25.3-33.9 32.1-2.1 1.8-4.8 2.7-7.6 2.7z m3.1-18.6l1.9 1.5-0.1 0.2c10-5.6 17.2-15.2 25.4-26.2l3.6-4.8c17.5-23 22.8-52.9 14.5-80.8-29-0.5-56.4 12.6-73.9 35.7l-1.4 1.8c-9.2 12.1-15.8 20.8-18.3 32.5 0.9 0.3 1.8 0.8 2.6 1.5 2.3 1.7 3.7 4.3 4 7l2 1.5c0.1 0 0.2 0 0.4-0.1 2.7-0.4 5.4 0.3 7.6 2 2.1 1.6 3.5 4 3.9 6.6l0.1 0.5 1.9 1.5-0.2 0.3c2.7-0.5 5.6 0.2 7.9 1.9 2.3 1.7 3.7 4.3 4 6.9l2 1.5c0.1 0 0.2 0 0.4-0.1 2.7-0.4 5.4 0.3 7.6 2 2.5 1.8 3.9 4.4 4.1 7.1z" fill="#231815" p-id="3162"></path><path d="M285.2 470.1L282 468c-16.3-11-22.2-24.9-29.5-42.5l-0.9-2.1c-13.6-32.4-9.9-69.5 9.9-99.1l2.6-3.8 4.5 0.9c35 6.6 64 29.9 77.6 62.3 0.8 1.8 1.5 3.6 2.3 5.4 6.4 14.9 12.4 29.1 10.8 45.4 0.8 5.5-2.2 11-7.5 13.2-3.1 1.3-6.4 1.3-9.3 0.1-1.2 2.9-3.5 5.4-6.7 6.7-3.2 1.3-6.7 1.2-9.7 0-1.2 2.8-3.5 5.2-6.5 6.4-3.1 1.3-6.4 1.3-9.3 0.1-1.2 2.9-3.5 5.4-6.7 6.7-3.8 1.6-8 1.2-11.3-0.8l-2.2 0.9-4.9 2.3z m-14.6-133.9c-14.9 24.9-17.3 55.2-6.1 81.9l0.9 2.1c5.9 14 10.1 24.1 19 32.1 0.8-0.6 1.6-1.2 2.6-1.6 2.5-1.1 5.3-1.1 7.8 0 0.1 0 0.1 0.1 0.2 0.1l2.3-1c0.9-2.6 2.9-4.8 5.6-5.9 2.5-1 5.2-1.1 7.7-0.1l0.4 0.2 2.2-0.9 0.1 0.3h0.1c1-2.6 2.9-4.7 5.6-5.9 2.7-1.1 5.6-1 8.1 0.1l2.2-1c0.1-0.1 0.1-0.3 0.2-0.4 1-2.5 3-4.5 5.5-5.6 2.7-1.1 5.7-1 8.2 0.1l2.2-0.9 0.1 0.1c0.1-11.5-4.6-22.5-10-35.1-0.8-1.8-1.6-3.6-2.3-5.5-11-26.8-34.3-46.3-62.6-53.1z" fill="#231815" p-id="3163"></path><path d="M367.4 391.8c-7.4 0-15-1-23.3-2l-2.2-0.3c-34.9-4.4-65.1-26.1-80.8-58.1l-2-4.1 3-3.5c23.2-27 57.9-40.5 92.8-36.1 2 0.3 3.9 0.5 5.9 0.7 16.1 1.9 31.4 3.8 44.7 13.3 5.2 2.1 8.4 7.5 7.7 13.1-0.4 3.3-2.1 6.2-4.5 8.1 1.9 2.5 2.9 5.8 2.5 9.2-0.4 3.4-2.3 6.4-4.8 8.4 1.8 2.5 2.7 5.6 2.3 8.9-0.4 3.3-2.1 6.2-4.5 8.1 1.9 2.5 2.9 5.8 2.5 9.2-0.5 4.1-3 7.5-6.4 9.3l-0.3 2.4h-0.1l-0.7 5.5-3.4 1.7c-10 4.6-19 6.2-28.4 6.2z m-91.6-62.4c14.1 25.4 39.2 42.6 67.9 46.2l2.2 0.3c15.1 1.9 25.9 3.3 37.3-0.4-0.2-1-0.2-2-0.1-3 0.3-2.7 1.7-5.1 3.9-6.8l0.1-0.1h-0.1l0.3-2.6c-1.7-2.1-2.6-4.9-2.3-7.8 0.3-2.7 1.7-5.1 3.8-6.7l0.4-0.3 0.3-2.4h0.3v-0.1c-1.7-2.1-2.6-4.9-2.3-7.8 0.3-2.7 1.7-5.1 3.9-6.8l0.1-0.1h-0.1l0.3-2.6c-0.1-0.1-0.1-0.2-0.2-0.2-1.7-2.2-2.4-4.8-2.1-7.6 0.3-2.7 1.7-5.1 3.9-6.8 0.1-0.1 0.2-0.2 0.3-0.2l0.3-2.4h0.1c-9.9-5.9-21.8-7.3-35.4-8.9-2-0.2-3.9-0.5-5.9-0.7-28.3-3.7-56.9 6.7-76.9 27.8z" fill="#231815" p-id="3164"></path><path d="M274 335.5c-2.4 0-4.8-0.1-7.2-0.2l-4.6-0.3-1.5-4.4c-11.8-33.6-6.1-70.4 15.2-98.4 1.2-1.6 2.4-3.2 3.5-4.7 9.7-13 19-25.3 33.9-32.1 4.4-3.4 10.7-3.6 15.2-0.1 2.7 2 4.3 4.9 4.8 8 3.1-0.4 6.4 0.4 9.2 2.4 2.8 2.1 4.4 5.2 4.8 8.4 3.1-0.3 6.2 0.5 8.8 2.5 2.7 2 4.3 4.9 4.8 8 3.1-0.4 6.4 0.4 9.2 2.4 3.3 2.5 5 6.3 4.9 10.2l1.9 1.4 4.4 3.3-0.3 3.8c-1.4 19.7-10.5 31.6-22 46.8l-1.4 1.8c-19.9 26.1-50.7 41.2-83.6 41.2z m-1.5-14c29.1 0.5 56.4-12.6 73.9-35.7l1.4-1.8c9.2-12.1 15.8-20.8 18.3-32.5-0.9-0.3-1.8-0.8-2.6-1.5-2.3-1.7-3.7-4.3-4-7l-2-1.5c-2.7 0.5-5.6-0.1-7.9-1.9-2.1-1.6-3.5-4-3.9-6.6l-0.1-0.5-1.9-1.5 0.2-0.3h-0.3c-2.7 0.4-5.4-0.3-7.6-2-2.3-1.7-3.7-4.3-4-6.9l-2-1.5c-2.7 0.5-5.6-0.1-7.9-1.9-2.3-1.8-3.7-4.4-4-7.1l-1.9-1.5 0.1-0.1c-10 5.6-17.2 15.2-25.4 26.2l-3.6 4.8c-17.8 23-23.1 52.9-14.8 80.8z" fill="#231815" p-id="3165"></path><path d="M270.6 336l-4.5-0.9c-35-6.6-64-29.9-77.6-62.3-0.8-1.8-1.5-3.6-2.3-5.4-6.4-14.9-12.4-29.1-10.8-45.4-0.8-5.5 2.2-11 7.5-13.2 3.1-1.3 6.4-1.3 9.3-0.1 1.2-2.9 3.5-5.4 6.7-6.7 3.2-1.3 6.7-1.2 9.7 0 1.2-2.8 3.5-5.2 6.5-6.4 3.1-1.3 6.4-1.3 9.3-0.1 1.2-2.9 3.5-5.4 6.7-6.7 3.8-1.6 8-1.2 11.3 0.9l7.2-3 3.1 2.1c16.3 11 22.2 24.9 29.5 42.5l0.9 2.1c13.6 32.4 9.9 69.5-9.9 99.1l-2.6 3.5zM189 226.8c-0.1 11.5 4.6 22.5 10 35.1 0.8 1.8 1.6 3.7 2.3 5.5 11.2 26.7 34.4 46.2 62.7 53 14.9-24.9 17.3-55.2 6.1-81.9l-0.9-2.1c-5.9-14-10.1-24.1-19-32.1-0.8 0.6-1.6 1.2-2.6 1.6a9.63 9.63 0 0 1-7.8 0s-0.1 0-0.1-0.1v0.1l-2.4 1c-1 2.5-2.9 4.7-5.6 5.8-2.5 1-5.2 1.1-7.7 0.1l-0.4-0.2-2.2 1-0.2-0.4c0 0.1-0.1 0.2-0.1 0.3-1 2.5-3 4.5-5.5 5.6-2.7 1.1-5.5 1-8 0l0.1 0.2-2.5 1c-1 2.5-2.9 4.6-5.6 5.7-2.7 1.1-5.6 1-8.1-0.1l-2.2 0.9h-0.3zM144.8 704.8c-3.2 0-6.4-1.2-8.8-3.7-2.3-2.4-3.6-5.4-3.6-8.5-3.2 0-6.3-1.3-8.8-3.7-2.4-2.5-3.7-5.7-3.6-9-3.1-0.1-6.1-1.3-8.4-3.7-2.3-2.4-3.6-5.4-3.6-8.6-3.2 0-6.3-1.3-8.8-3.7-2.9-2.9-4.1-6.9-3.5-10.7l-1.7-1.7 0.1-0.1-3.9-3.9 0.8-3.7c4.1-19.3 14.8-29.9 28.3-43.3l1.6-1.6c25-24.8 60.7-35.2 95.5-28l4.5 0.9 0.9 4.5c7 34.9-3.7 70.5-28.7 95.3l-4.2 4.2c-11.5 11.5-22.3 22.4-38 27-1.8 1.5-4 2-6.1 2z m3.9-18.1l1.7 1.7-0.2 0.2c10.7-4.2 19.2-12.7 28.8-22.4l4.2-4.2c20.5-20.4 29.9-49.2 25.6-78-28.7-4.5-57.7 4.7-78.2 25l-1.6 1.6c-10.8 10.7-18.5 18.4-22.6 29.6 0.9 0.5 1.7 1.1 2.4 1.8 1.9 1.9 3 4.5 3 7.3v0.1l0.1-0.1 1.8 1.9c2.7 0 5.4 1 7.4 3 1.9 1.9 2.9 4.4 3 7.1v0.4l1.8 1.7-0.3 0.4c2.7-0.1 5.5 0.9 7.6 3 1.9 1.9 3 4.5 3 7.3v0.2l1.8 1.7c2.8-0.1 5.6 0.9 7.7 3 2.1 2.3 3.1 5 3 7.7z" fill="#231815" p-id="3166"></path><path d="M228.4 721.7c-2.9 0-5.7-1-7.9-2.8l-2.3 0.6v-0.1l-5.3 1.4-2.8-2.5c-14.6-13.2-18.5-27.7-23.3-46.1l-0.6-2.2c-9-34-0.2-70.2 23.6-96.7l3.1-3.4 4.4 1.5c33.7 11.4 59.2 38.5 68.2 72.5l1.5 5.7c4.3 15.7 8.3 30.5 4.4 46.4 0 5.6-3.8 10.6-9.3 12.1-3.2 0.8-6.5 0.4-9.2-1.2-1.6 2.7-4.3 4.9-7.6 5.7-3.4 0.9-6.8 0.3-9.6-1.4-1.6 2.6-4.2 4.6-7.4 5.4-3.2 0.8-6.5 0.4-9.2-1.2-1.6 2.7-4.3 4.9-7.6 5.7-0.9 0.5-2 0.6-3.1 0.6z m-11.2-135.5c-18.3 22.6-24.8 52.3-17.4 80.2l0.6 2.2c3.9 14.7 6.6 25.2 14.4 34.4 0.8-0.5 1.8-0.9 2.8-1.2 2.8-0.7 5.6-0.2 7.9 1.1l-0.1-0.4 2.8-0.6c1.3-2.3 3.5-4 6.2-4.8 2.6-0.7 5.3-0.3 7.7 1l0.4 0.2 2.3-0.6 0.1 0.4h0.1c0-0.1 0.1-0.2 0.2-0.3 1.4-2.4 3.6-4 6.2-4.7 2.6-0.7 5.4-0.3 7.8 1.1 0.1 0 0.1 0.1 0.2 0.1l2.4-0.7c0.1-0.1 0.1-0.2 0.2-0.3 1.4-2.4 3.6-4 6.2-4.7 2.6-0.7 5.4-0.3 7.8 1.1 0.1 0.1 0.2 0.1 0.4 0.2l2.3-0.6v0.1c1.7-11.4-1.4-23-5-36.2-0.5-1.9-1-3.8-1.6-5.8-7.6-27.9-27.9-50.5-54.9-61.2z" fill="#231815" p-id="3167"></path><path d="M315 658.7c-10.7 0-20.8-2.8-32.6-6l-2.2-0.6c-34-9.2-60.9-34.9-72-68.8l-1.4-4.4 3.5-3.1c26.7-23.5 62.9-32 96.9-22.8l5.7 1.5c15.7 4.2 30.6 8.1 42.4 19.4 4.8 2.8 7.3 8.6 5.8 14.1-0.9 3.2-2.9 5.8-5.6 7.4 1.6 2.8 2.1 6.1 1.2 9.4-0.9 3.4-3.1 6-6 7.6 1.4 2.7 1.9 5.9 1 9.1-0.9 3.2-2.9 5.8-5.6 7.4 1.6 2.8 2.1 6.1 1.2 9.4-1.1 4-4 7-7.6 8.4l-2.1 7.6-3.6 1.2c-6.7 2.3-12.9 3.2-19 3.2z m-91.8-75.2c10.5 27.1 32.9 47.6 60.8 55.2l2.2 0.6c14.7 4 25.2 6.9 37 4.8 0-1 0.1-2 0.4-3 0.7-2.6 2.4-4.8 4.8-6.2 0.1 0 0.1-0.1 0.2-0.1l0.7-2.5c-1.4-2.3-2-5.2-1.2-8.1 0.7-2.6 2.4-4.8 4.7-6.1l0.3-0.2 0.6-2.4 0.5 0.1c-1.4-2.3-2-5.2-1.2-8.1 0.8-2.8 2.6-5 4.9-6.3l0.7-2.5c-0.1-0.1-0.1-0.2-0.2-0.3-1.4-2.4-1.7-5.1-1-7.8 0.8-2.9 2.7-5.1 5.1-6.4l0.6-2.3h0.1c-9-7.2-20.6-10.3-33.8-13.8-1.9-0.5-3.8-1-5.8-1.5-27.9-7.5-57.6-1.2-80.4 16.9z" fill="#231815" p-id="3168"></path><path d="M235.5 590.3c-7.3 0-14.6-0.7-21.9-2.3l-4.5-0.9-0.9-4.5c-7-34.9 3.7-70.5 28.7-95.3l4.2-4.2c11.5-11.5 22.3-22.4 38-27 4.8-2.8 11.1-2.1 15.1 2 2.3 2.4 3.6 5.4 3.6 8.5 3.2 0 6.3 1.3 8.8 3.7 2.4 2.5 3.7 5.7 3.6 9 3.1 0.1 6.1 1.3 8.4 3.7 2.3 2.4 3.6 5.4 3.6 8.6 3.2 0 6.3 1.3 8.8 3.7 2.9 2.9 4.1 7 3.4 10.8l1.7 1.7 3.9 3.9-0.8 3.7c-4.1 19.3-14.8 29.9-28.3 43.3l-1.6 1.6c-20 19.4-46.4 30-73.8 30zM221 575.2c28.7 4.5 57.7-4.7 78.2-25l1.6-1.6c10.8-10.7 18.5-18.4 22.6-29.6-0.9-0.5-1.7-1.1-2.4-1.8-1.9-1.9-3-4.5-3-7.3v-0.2l-1.8-1.8h-0.4c-2.7 0-5.3-1.1-7.2-3-1.9-1.9-2.9-4.4-3-7.1v-0.5l-1.7-1.7 0.3-0.3h-0.3c-2.7 0-5.3-1.1-7.2-3s-3-4.5-3-7.2v-0.2l-1.8-1.8h-0.4c-2.7 0-5.3-1.1-7.2-3-2.1-2.1-3.1-4.8-3-7.6l-1.7-1.7 0.2-0.2c-10.7 4.2-19.2 12.7-28.8 22.4l-4.2 4.2c-20.6 20.4-30.1 49.2-25.8 78z" fill="#231815" p-id="3169"></path><path d="M217.1 589.3l-4.4-1.5c-33.7-11.4-59.2-38.5-68.2-72.5l-1.5-5.7c-4.3-15.7-8.3-30.5-4.4-46.4 0-5.6 3.8-10.6 9.3-12.1 3.2-0.8 6.5-0.4 9.2 1.2 1.6-2.7 4.3-4.9 7.6-5.7 3.4-0.9 6.8-0.3 9.6 1.4 1.6-2.6 4.2-4.6 7.4-5.4 3.2-0.8 6.5-0.4 9.2 1.2 1.6-2.7 4.3-4.9 7.6-5.7 4-1 8 0 11 2.4l2.3-0.6v0.1l5.3-1.4 2.8 2.5c14.6 13.2 18.5 27.7 23.3 46.1l0.6 2.2c9 34 0.2 70.2-23.6 96.7l-3.1 3.2z m-65.5-119.5c-1.7 11.4 1.4 23 5 36.2 0.5 1.9 1 3.8 1.6 5.8 7.4 28 27.7 50.5 54.7 61.2 18.3-22.6 24.8-52.3 17.4-80.2l-0.6-2.2c-3.9-14.7-6.6-25.2-14.4-34.4-0.8 0.5-1.8 0.9-2.8 1.2-2.8 0.7-5.7 0.2-8-1.2l-2.4 0.7c-1.3 2.4-3.6 4.3-6.4 5.1-2.6 0.7-5.3 0.3-7.7-1l-0.3-0.2-2.4 0.6-0.1-0.4c-1.3 2.4-3.6 4.3-6.4 5-2.6 0.7-5.4 0.3-7.8-1.1l-0.1-0.1v0.2l-2.6 0.6c0 0.1-0.1 0.1-0.1 0.2-1.4 2.4-3.6 4-6.2 4.7-2.6 0.7-5.4 0.3-7.8-1.1-0.1-0.1-0.2-0.1-0.3-0.2l-2.3 0.6z" fill="#231815" p-id="3170"></path><path d="M150 612.9c-9.1 0-18.3-1.2-27.3-3.7l-5.7-1.5c-15.7-4.2-30.6-8.1-42.4-19.4-4.8-2.8-7.3-8.6-5.8-14.1 0.9-3.2 2.9-5.8 5.6-7.4-1.6-2.8-2.1-6.1-1.2-9.4 0.9-3.4 3.1-6 6-7.6-1.4-2.7-1.9-6-1-9.1 0.9-3.2 2.9-5.8 5.6-7.4-1.6-2.8-2.1-6.1-1.2-9.4 1.1-4 4-7 7.6-8.4l2.1-7.6 3.6-1.2c18.7-6.1 33.3-2.1 51.6 2.9l2.2 0.6c34 9.2 60.9 34.9 72 68.8l1.4 4.4-3.5 3.1c-19.6 17.2-44.4 26.4-69.6 26.4z m-63.2-32.5c9 7.2 20.6 10.3 33.8 13.8 1.9 0.5 3.8 1 5.8 1.5 27.9 7.6 57.6 1.3 80.4-16.8-10.5-27.1-32.9-47.6-60.8-55.2l-2.2-0.6c-14.7-4-25.2-6.9-37-4.8 0 1-0.1 2-0.4 3-0.7 2.6-2.4 4.8-4.8 6.2 0 0-0.1 0-0.1 0.1h0.1l-0.7 2.5c1.4 2.3 1.9 5.2 1.1 8-0.7 2.6-2.4 4.8-4.7 6.1l-0.4 0.2-0.6 2.3-0.4-0.1c1.4 2.3 2 5.2 1.2 8.1-0.8 2.8-2.6 5-4.9 6.3l-0.7 2.5c0.1 0.1 0.1 0.2 0.2 0.3 1.4 2.4 1.7 5.1 1 7.8-0.8 2.8-2.7 5.1-5.1 6.4l-0.6 2.3-0.2 0.1zM374.5 920.5c-3.5 0-6.8-1.5-9.1-4l-2.4 0.3v-0.1l-5.5 0.7-2.4-2.9c-12.7-15.1-14.4-30-16.7-48.9l-0.3-2.2c-4.2-34.9 9.6-69.5 36.8-92.5l3.5-3 4.1 2.1c31.8 16 53.3 46.3 57.4 81.3 0.2 2 0.5 3.9 0.7 5.9 2 16.1 3.9 31.4-2.1 46.6-0.8 5.5-5.2 10-10.9 10.7-3.3 0.4-6.5-0.6-9-2.4-2 2.5-4.9 4.2-8.3 4.6-3.5 0.4-6.8-0.6-9.3-2.7-2 2.4-4.8 4-8.1 4.4-3.3 0.4-6.5-0.6-9-2.4-2 2.5-4.9 4.2-8.3 4.6-0.1-0.1-0.6-0.1-1.1-0.1z m-8.5-21.4c2.3 0 4.5 0.8 6.3 2.2l0.2 0.2 2.4-0.3c1.6-2.2 4.1-3.8 7.1-4.2 2.7-0.3 5.3 0.4 7.4 2.1l0.4 0.4 2.3-0.2v0.2h0.1c1.6-2.2 4.1-3.7 7-4.1 2.7-0.3 5.4 0.4 7.5 2.1 0.1 0 0.1 0.1 0.2 0.1l2.4-0.3 0.3-0.3c1.7-2.1 4.1-3.5 6.8-3.8 2.9-0.3 5.6 0.6 7.7 2.3l2.4-0.3 0.1 0.3c3.3-11 1.8-22.9 0.1-36.5-0.2-2-0.5-3.9-0.7-5.9-3.4-28.7-20.4-53.9-45.7-68.2-21.2 19.9-31.8 48.3-28.4 77l0.3 2.2c1.8 15.1 3.1 25.9 9.4 36.1 0.9-0.4 1.9-0.7 2.9-0.8 0.6-0.3 1.1-0.3 1.5-0.3z" fill="#231815" p-id="3171"></path><path d="M476.1 867.4c-14 0-25.7-5-39.7-11l-2.1-0.9c-32.3-13.9-55.4-43.1-61.7-78.1l-0.8-4.5 3.9-2.5c29.7-19.6 66.8-23 99.1-9.1 1.8 0.8 3.6 1.5 5.4 2.3 15 6.3 29.1 12.3 39.3 25.1 4.4 3.4 6.1 9.5 3.8 14.7-1.3 3.1-3.7 5.3-6.6 6.5 1.2 2.9 1.2 6.3-0.2 9.5s-3.9 5.5-7 6.7c1.1 2.9 1 6.2-0.2 9.2-1.3 3.1-3.7 5.3-6.6 6.5 1.2 2.9 1.2 6.3-0.2 9.5-1.6 3.8-5 6.4-8.7 7.2l-3.1 7.2-3.7 0.7c-3.8 0.7-7.4 1-10.9 1z m-88.7-87.8c6.6 28.3 25.9 51.7 52.5 63.1l2.1 0.9c14 6 24 10.3 35.9 9.9 0.1-1 0.4-2 0.8-2.9 1.1-2.6 3.3-4.6 5.8-5.5l1-2.4c0-0.1-0.1-0.2-0.1-0.3-1-2.5-1-5.3 0.1-7.8s3-4.4 5.5-5.4l0.4-0.2 0.9-2.2 0.3 0.1c0-0.1-0.1-0.2-0.1-0.3-1-2.5-1-5.3 0.1-7.8s3.1-4.5 5.6-5.5c0 0 0.1 0 0.1-0.1l-0.2-0.1 1.1-2.5c-1-2.5-1.1-5.3 0-8 1.2-2.7 3.3-4.6 5.9-5.6l0.9-2.2 0.2 0.1c-7.9-8.4-19-13-31.6-18.3-1.8-0.8-3.7-1.5-5.5-2.3-26.4-11.6-56.7-9.5-81.7 5.3z" fill="#231815" p-id="3172"></path><path d="M415.8 791.1c-12.1 0-24.3-2.1-36.1-6.3l-4.3-1.6-0.3-4.6c-2.1-35.5 13.5-69.3 41.7-90.4 1.6-1.2 3.2-2.4 4.7-3.6 12.9-9.8 25.2-19.1 41.4-21.5 5.2-2.1 11.2-0.5 14.7 4.1 2 2.7 2.8 5.9 2.4 9 3.1 0.5 6.1 2.1 8.2 4.9 2.1 2.8 2.8 6.2 2.3 9.4 3 0.5 5.9 2.2 7.8 4.8 2 2.7 2.8 5.9 2.4 9 3.1 0.5 6.1 2.1 8.2 4.9 2.5 3.3 3.1 7.5 1.9 11.2l1.4 1.9 3.3 4.4-1.3 3.6c-6.7 18.5-18.8 27.5-34.1 38.9l-1.8 1.3c-18.4 13.5-40.3 20.6-62.5 20.6z m-26.9-18c27.8 8.5 57.7 3.4 80.9-13.9l1.8-1.3c12.2-9.1 20.9-15.6 26.5-26.2-0.8-0.6-1.5-1.3-2.1-2.1-1.7-2.3-2.3-5.1-1.9-7.7l-1.6-2.1c-2.7-0.3-5.3-1.7-7.1-4-1.6-2.1-2.3-4.8-1.9-7.5l0.1-0.4-1.4-1.9 0.3-0.2c-2.7-0.3-5.3-1.7-7.1-4-1.7-2.3-2.3-5.1-1.9-7.7l-1.6-2.1c-2.7-0.3-5.3-1.7-7.1-4-1.6-2.2-2.3-4.9-1.9-7.6 0-0.1 0-0.2 0.1-0.3l-1.4-1.9 0.2-0.1c-11.2 2.6-20.8 9.9-31.7 18.2l-4.8 3.6c-23.3 16.8-36.7 44.1-36.4 73.2z" fill="#231815" p-id="3173"></path><path d="M383 786.5l-4.1-2.1c-31.8-16-53.3-46.3-57.4-81.3-0.2-2-0.5-3.9-0.7-5.9-2-16.1-3.9-31.4 2.1-46.6 0.8-5.5 5.2-10 10.9-10.7 3.3-0.4 6.5 0.6 9 2.4 2-2.5 4.9-4.2 8.3-4.6 3.4-0.4 6.8 0.6 9.3 2.7 2-2.4 4.8-4 8.1-4.4 3.3-0.4 6.5 0.6 9 2.4 2-2.5 4.9-4.2 8.3-4.6 4.1-0.5 8 1.1 10.6 3.9l7.8-0.9 2.4 2.9c12.7 15.1 14.4 30 16.7 48.9l0.3 2.2c4.2 34.9-9.6 69.5-36.8 92.5l-3.8 3.2zM334.7 659c-3.3 11-1.8 22.9-0.1 36.5 0.2 2 0.5 3.9 0.7 5.9 3.4 28.7 20.4 53.9 45.7 68.2 21.2-19.9 31.8-48.3 28.4-77l-0.3-2.2c-1.8-15.1-3.1-25.9-9.4-36.1-0.9 0.4-1.9 0.7-2.9 0.8-2.7 0.3-5.4-0.4-7.5-2.1l-0.2-0.2-2.4 0.3c-0.1 0.1-0.2 0.2-0.2 0.3-1.7 2.2-4.1 3.5-6.8 3.8-2.7 0.3-5.3-0.4-7.4-2l-0.4-0.4-2.3 0.2v-0.2h-0.1c-1.6 2.2-4.1 3.7-7 4.1-2.7 0.3-5.4-0.4-7.5-2.1l-0.2-0.2-2.4 0.3-0.3 0.3c-1.7 2.1-4.1 3.5-6.8 3.8-2.9 0.4-5.8-0.6-7.9-2.4l-2.7 0.4z" fill="#231815" p-id="3174"></path><path d="M327.8 801.6c-13.9 0-27.8-2.8-41-8.4-1.8-0.8-3.6-1.5-5.4-2.3-15-6.3-29.1-12.3-39.3-25.1-4.4-3.4-6-9.5-3.8-14.7 1.3-3.1 3.7-5.3 6.6-6.5-1.2-2.9-1.2-6.3 0.2-9.5s3.9-5.5 7-6.7c-1.1-2.9-1-6.2 0.2-9.2 1.3-3.1 3.7-5.3 6.6-6.5-1.2-2.9-1.2-6.3 0.2-9.5 1.6-3.8 5-6.4 8.7-7.2l0.9-2.2 2.2-5.1 3.7-0.7c19.4-3.4 33.2 2.5 50.7 10l2.1 0.9c32.3 13.9 55.4 43.1 61.7 78.1l0.8 4.5-3.9 2.5c-17.7 11.6-37.9 17.6-58.2 17.6z m-72.6-42c7.9 8.4 19 13 31.6 18.3 1.8 0.8 3.7 1.5 5.5 2.3 26.6 11.4 56.9 9.3 81.9-5.4-6.6-28.3-25.9-51.7-52.5-63.1l-2.1-0.9c-14-6-24-10.3-36-9.9-0.1 1-0.4 2-0.8 2.9-1.1 2.5-3.1 4.5-5.6 5.5-0.1 0-0.2 0.1-0.3 0.1l-0.9 2.2c0.1 0.2 0.1 0.3 0.2 0.5 1 2.5 1 5.3-0.1 7.8s-3 4.4-5.5 5.4l-0.4 0.2-0.9 2.2-0.4-0.1c1.1 2.5 1.2 5.4 0 8.1-1.1 2.5-3.1 4.5-5.6 5.5-0.1 0-0.2 0.1-0.3 0.1l-0.9 2.2c1.2 2.5 1.3 5.5 0.1 8.3-1.2 2.7-3.3 4.6-5.9 5.6l-0.9 2.2h-0.2z" fill="#231815" p-id="3175"></path><path d="M296.6 894.1c-3.8 0-7.6-1.7-10-5-2-2.7-2.8-5.9-2.4-9-3.1-0.5-6.1-2.1-8.2-4.9-2.1-2.8-2.8-6.2-2.3-9.4-3-0.5-5.9-2.2-7.8-4.8-2-2.7-2.8-5.9-2.4-9-3.1-0.5-6.1-2.1-8.2-4.9-2.5-3.3-3.1-7.5-1.9-11.2l-4.7-6.3 1.3-3.6c6.7-18.5 18.8-27.5 34-38.9l1.8-1.3c28.2-21.1 65-26.4 98.5-14.4l4.3 1.6 0.3 4.6c2.1 35.5-13.5 69.3-41.7 90.4-1.6 1.2-3.2 2.4-4.7 3.6-12.9 9.8-25.2 19.1-41.4 21.5-1.3 0.7-2.9 1-4.5 1z m4.6-17.4l1.4 1.9-0.1 0.1c11.2-2.6 20.8-9.9 31.7-18.2l4.8-3.6c23.2-17.3 36.5-44.6 36.2-73.7-27.8-8.5-57.7-3.4-80.9 13.9l-1.8 1.3c-12.2 9.1-20.9 15.6-26.5 26.2 0.8 0.6 1.5 1.3 2.1 2.1 1.6 2.2 2.3 4.9 1.9 7.6v0.1l1.6 2.1c2.7 0.3 5.3 1.7 7.1 4 1.6 2.2 2.3 4.8 1.9 7.5l-0.1 0.4 1.4 1.9-0.3 0.2c2.7 0.3 5.3 1.7 7.1 4 1.6 2.2 2.3 4.9 1.9 7.6v0.1l1.6 2.1c2.7 0.3 5.3 1.7 7.1 4 1.8 2.8 2.4 5.7 1.9 8.4zM728.6 873c-18.4 0-30.8-7.6-46.4-17l-1.9-1.2c-30.1-18.2-48.9-50.4-50.2-85.9l-0.2-4.6 4.2-2c32.2-15.2 69.3-13.5 99.4 4.8l5.1 3c14 8.3 27.2 16.2 35.4 30.3 3.9 4 4.7 10.2 1.7 15.1-1.7 2.8-4.4 4.8-7.4 5.6 0.7 3.1 0.3 6.4-1.5 9.4s-4.7 4.9-7.8 5.7c0.6 3 0.2 6.2-1.5 9s-4.4 4.8-7.4 5.6c0.8 3.1 0.3 6.5-1.5 9.4-2.1 3.5-5.7 5.6-9.5 5.9l-1.2 2.1-0.1-0.1-2.9 4.7-3.8 0.1c-0.9 0.1-1.7 0.1-2.5 0.1z m-84.3-100c2.6 29 18.5 54.8 43.2 69.8l1.9 1.2c13 7.9 22.3 13.5 34.2 14.8 0.2-1 0.6-1.9 1.2-2.8 1.4-2.3 3.7-4 6.3-4.6h0.2l1.2-2.1h0.1c-0.8-2.7-0.5-5.6 1.1-8.2 1.4-2.3 3.6-3.9 6.2-4.6l0.6-0.1 1.3-2 0.2 0.1c-0.7-2.6-0.4-5.6 1.1-8.1s3.9-4.1 6.5-4.7h-0.1l1.4-2.2c-0.7-2.6-0.4-5.5 1.1-8s4-4.2 6.7-4.7l1.3-2 0.1 0.1c-6.6-9.4-17-15.5-28.7-22.6-1.7-1-3.4-2-5.1-3.1-24.9-15.2-55.1-17.3-82-6.2z" fill="#231815" p-id="3176"></path><path d="M683.2 787.1c-16.9 0-33.9-4.1-49.4-12.3l-4.1-2.2 0.4-4.6c2.9-35.5 23-66.8 53.9-83.7 1.7-1 3.5-1.9 5.2-2.9 14.2-7.9 27.6-15.4 44-15.5 5.4-1.4 11.2 1.1 13.9 6.1 1.6 2.9 1.9 6.2 1.1 9.2 3 0.9 5.7 3 7.4 6 1.7 3 1.9 6.5 1 9.6 2.9 0.9 5.5 3 7.1 5.8 1.6 2.9 1.9 6.2 1.1 9.2 3 0.9 5.7 3 7.4 6 2 3.6 2 7.8 0.3 11.3l3.8 6.9-1.8 3.3c-9.3 17.4-22.4 24.6-39.1 33.8l-2 1.1c-15.7 8.6-33 12.9-50.2 12.9z m-38.7-22.6c26.4 12.3 56.7 11.4 82.1-2.5l2-1.1c13.4-7.3 22.9-12.5 29.9-22.3-0.7-0.7-1.3-1.5-1.8-2.4-1.3-2.4-1.6-5.2-0.9-7.8v-0.1h-0.1l-1.2-2.3c-2.6-0.7-5-2.4-6.4-5-1.3-2.4-1.6-5.1-0.9-7.7l0.1-0.5-1.1-2.1 0.2-0.2v-0.1c-2.6-0.7-5-2.4-6.4-5-1.4-2.5-1.6-5.4-0.8-7.9l-0.3 0.1-1.2-2.5h-0.1c-2.6-0.8-4.8-2.5-6.1-4.9-1.4-2.5-1.6-5.4-0.8-8l-1.2-2.2 0.3-0.2c-11.5 1.1-21.9 6.9-33.9 13.6-1.7 1-3.5 1.9-5.2 2.9-25.4 14.2-42.4 39.3-46.2 68.2z" fill="#231815" p-id="3177"></path><path d="M639.9 776.2l-3.8-2.6c-29.3-20.2-46.3-53.3-45.6-88.5 0-2 0.1-4 0.1-5.9 0.2-16.2 0.5-31.6 8.5-45.8 1.5-5.4 6.5-9.2 12.2-9 3.3 0.1 6.3 1.4 8.5 3.6 2.3-2.2 5.4-3.5 8.9-3.4 3.5 0.1 6.6 1.6 8.8 3.9 2.3-2.1 5.3-3.3 8.6-3.2 3.3 0.1 6.3 1.5 8.5 3.6 2.3-2.2 5.4-3.5 8.9-3.4 4.1 0.1 7.8 2.2 10 5.4l7.9 0.2 2 3.2c10.4 16.7 10.1 31.8 9.7 50.8v2.2c-0.8 35.2-19.2 67.5-49.3 86.5l-3.9 2.4z m-30-133c-4.8 10.4-5 22.5-5.2 36.1 0 2-0.1 4-0.1 6-0.6 28.9 12.7 56.2 35.7 73.9 23.8-16.7 38.2-43.4 38.8-72.3v-2.2c0.3-15.2 0.6-26.1-4.3-37-0.9 0.3-2 0.4-3 0.4-2.7-0.1-5.3-1.2-7.2-3.2l-0.1-0.1v0.3l-2.8-0.2c-2 1.9-4.5 2.9-7.3 2.8-2.7-0.1-5.2-1.1-7.1-3.1l-0.4-0.4-2.4-0.1v-0.2h-0.1c-1.9 1.9-4.6 3.1-7.5 3-2.9-0.1-5.6-1.4-7.4-3.4h-2.4c-1.9 2-4.7 3.2-7.6 3.2-2.7-0.1-5.3-1.2-7.2-3.2 0 0-0.1-0.1-0.1-0.2h-2.5l0.2-0.1z" fill="#231815" p-id="3178"></path><path d="M597.7 784.4c-18.8 0-37.4-5.1-54-15.1l-5.1-3c-14-8.3-27.2-16.2-35.4-30.3-3.9-4-4.7-10.2-1.7-15.1 1.7-2.8 4.4-4.8 7.4-5.6-0.7-3.1-0.3-6.5 1.5-9.4 1.8-3 4.7-4.9 7.8-5.7-0.6-3-0.2-6.2 1.5-9s4.4-4.8 7.4-5.6c-0.8-3.1-0.3-6.5 1.5-9.4 2.1-3.5 5.7-5.6 9.5-5.9l1.2-2.1 0.1 0.1 2.9-4.7 3.8-0.1c19.7-0.7 32.6 7.1 48.8 17l1.9 1.2c30.1 18.2 48.9 50.4 50.2 85.9l0.2 4.6-4.2 2c-14.4 6.8-29.9 10.2-45.3 10.2z m-80.6-52.7c6.6 9.4 17 15.6 28.7 22.6 1.7 1 3.4 2 5.1 3.1 24.7 15 55 17.1 81.9 6-2.6-29-18.5-54.8-43.2-69.8l-1.9-1.2c-13-7.9-22.3-13.5-34.2-14.8-0.2 1-0.6 1.9-1.2 2.8-1.5 2.5-3.9 4.1-6.5 4.7l-1.2 2.2h-0.1c0 0.1 0.1 0.3 0.1 0.4 0.7 2.7 0.2 5.4-1.2 7.7s-3.6 3.9-6.2 4.6l-0.3 0.1-1.2 2.1-0.5-0.2c0.7 2.6 0.4 5.6-1.1 8.1-1.4 2.3-3.7 4-6.3 4.6h-0.2l-1.2 2.2h-0.1c0.8 2.7 0.5 5.6-1.1 8.2-1.5 2.5-4 4.1-6.6 4.7l-1.2 2.1-0.3-0.2z" fill="#231815" p-id="3179"></path><path d="M541.1 870.8c-4.4 0-8.7-2.4-10.9-6.4-1.6-2.9-1.9-6.2-1.1-9.2-3-0.9-5.7-3-7.4-6-1.7-3-1.9-6.5-1-9.6-2.9-0.9-5.5-3-7.1-5.8-1.6-2.9-1.9-6.2-1.1-9.2-3-0.9-5.7-3-7.4-6-2-3.6-2-7.8-0.3-11.3l-3.8-6.9 1.8-3.3c9.3-17.4 22.4-24.6 39.1-33.8l2-1.1c30.8-16.9 68.1-17.1 99.5-0.5l4.1 2.2-0.4 4.6c-2.9 35.5-23 66.8-53.9 83.7-1.7 1-3.5 1.9-5.2 2.9-14.2 7.9-27.6 15.4-44 15.5-0.9 0.1-1.9 0.2-2.9 0.2z m5.3-16.7l1.1 2.1-0.1 0.1c11.5-1.1 21.9-6.9 33.9-13.6 1.7-1 3.5-1.9 5.2-2.9 25.4-13.9 42.3-39.1 46.1-67.9-26.4-12.3-56.7-11.4-82.1 2.5l-2 1.1c-13.4 7.3-22.9 12.5-29.9 22.3 0.7 0.7 1.3 1.5 1.8 2.4 1.4 2.5 1.6 5.4 0.8 7.9h0.1l1.2 2.3c2.6 0.7 5 2.4 6.4 5 1.3 2.4 1.6 5.1 0.9 7.7l-0.2 0.6 1.1 2.1-0.2 0.1c0.1 0 0.2 0.1 0.3 0.1 2.6 0.8 4.8 2.5 6.1 4.9 1.4 2.5 1.6 5.4 0.8 7.9h0.1l1.2 2.3c0.1 0 0.2 0 0.3 0.1 2.6 0.8 4.8 2.5 6.1 4.9 1.6 2.5 1.8 5.4 1 8z" fill="#231815" p-id="3180"></path><path d="M669.1 911.3h-0.3c-3.3-0.1-6.3-1.4-8.5-3.6-2.3 2.2-5.5 3.5-8.9 3.4-3.5-0.1-6.6-1.6-8.8-3.9-2.3 2.1-5.3 3.3-8.6 3.2-3.3-0.1-6.3-1.5-8.5-3.6-2.3 2.2-5.4 3.5-8.9 3.4-4.1-0.1-7.7-2.2-9.9-5.3h-2.4v-0.2l-5.5-0.1-2-3.2c-10.4-16.7-10.1-31.8-9.7-50.8v-2.2c0.8-35.2 19.2-67.5 49.3-86.5l3.9-2.5 3.8 2.6c29.3 20.2 46.3 53.3 45.6 88.5 0 2-0.1 4-0.1 5.9-0.2 16.3-0.5 31.6-8.5 45.8-1.6 5.4-6.4 9.1-12 9.1z m-1.1-19.1l2.4 0.1v0.1c4.8-10.4 5-22.5 5.2-36.1 0-2 0.1-4 0.1-6 0.6-28.9-12.7-56.2-35.7-73.9-23.8 16.7-38.2 43.4-38.8 72.3v2.2c-0.3 15.2-0.6 26.1 4.3 37 0.9-0.3 2-0.4 3-0.4 2.7 0.1 5.3 1.2 7.2 3.2 0 0 0.1 0.1 0.1 0.2h2.5v0.1l0.3-0.3c2-1.9 4.5-2.9 7.3-2.8 2.7 0.1 5.2 1.1 7.1 3.1l0.4 0.4 2.4 0.1v0.3c1.9-2 4.6-3.2 7.6-3.1 2.9 0.1 5.5 1.3 7.3 3.3h2.5v0.1c1.9-2 4.6-3.2 7.6-3.2 2.7-0.1 5.4 1.2 7.2 3.3zM847.2 586.7c-21.8 0-43.4-6.8-61.8-20.1l-3.7-2.7 1-4.5c7.8-34.7 32.1-62.9 65-75.4 1.9-0.7 3.7-1.4 5.5-2.1 15.2-5.9 29.5-11.4 45.7-9.3 5.6-0.6 10.9 2.6 13 8 1.2 3.1 1 6.4-0.2 9.3 2.9 1.3 5.3 3.7 6.5 6.9 1.2 3.2 1 6.7-0.3 9.6 2.8 1.3 5 3.7 6.2 6.8 1.2 3.1 1 6.4-0.2 9.3 2.9 1.3 5.3 3.7 6.5 6.9 1.5 3.9 0.9 8-1.3 11.3l2.8 7.3-2.2 3.1c-11.6 15.9-25.6 21.3-43.5 28l-2.1 0.8c-12 4.6-24.5 6.8-36.9 6.8zM797.5 558c24.4 15.8 54.6 19.2 81.6 8.9l2.1-0.8c14.2-5.4 24.4-9.2 32.7-17.9-0.6-0.8-1.1-1.7-1.5-2.6-1-2.6-0.9-5.3 0.2-7.8 0 0 0-0.1 0.1-0.1h-0.1l-0.9-2.5c-0.1 0-0.1-0.1-0.2-0.1-2.5-1.1-4.4-3.1-5.4-5.7-1-2.5-0.9-5.2 0.2-7.7l0.2-0.4-0.9-2.2 0.3-0.1v-0.1c-2.5-1-4.6-3.1-5.7-5.8-1-2.7-0.8-5.6 0.3-8.1l-0.9-2.3c-0.1-0.1-0.3-0.1-0.4-0.2-2.5-1.1-4.4-3.1-5.4-5.7s-0.9-5.3 0.2-7.8c0-0.1 0.1-0.2 0.1-0.2l-0.9-2.3 0.3-0.1c-11.5-0.6-22.7 3.8-35.5 8.7-1.8 0.7-3.7 1.4-5.6 2.2-26.8 10.1-47.1 32.6-54.9 60.7z" fill="#231815" p-id="3181"></path><path d="M788.2 569.3l-3.4-3.1c-26.2-24.1-38.4-59.2-32.8-94 0.3-2 0.6-3.9 0.9-5.8 2.5-16.1 4.9-31.2 14.8-44.2 2.3-5.1 7.7-8.2 13.4-7.3 3.3 0.5 6.1 2.3 7.9 4.8 2.6-1.8 5.9-2.7 9.3-2.2 3.4 0.6 6.3 2.5 8.2 5.1 2.5-1.7 5.7-2.5 8.9-2 3.3 0.5 6.1 2.3 7.9 4.8 2.6-1.9 5.9-2.7 9.3-2.2 4.1 0.7 7.4 3.3 9.1 6.7l7.8 1.3 1.5 3.5c8 18 5.6 32.8 2.5 51.6l-0.4 2.2c-5.6 34.7-28.4 64.2-60.9 78.8l-4 2z m-11.3-135.9c-6.2 9.7-8.1 21.6-10.2 35.1-0.3 1.9-0.6 3.9-0.9 5.9-4.6 28.6 4.7 57.4 25.1 78.2 25.9-13.2 43.9-37.7 48.5-66.2l0.4-2.2c2.5-15 4.2-25.7 0.9-37.3-1 0.1-2 0.1-3 0-2.9-0.5-5.3-2.1-6.9-4.4l-0.7-0.1-1.6-0.2c-0.1 0.1-0.3 0.2-0.4 0.3-2.2 1.6-4.9 2.2-7.6 1.8-2.6-0.4-5-1.9-6.6-4l-0.2-0.3-2.4-0.4v-0.4h-0.1c-0.1 0.1-0.2 0.1-0.3 0.2-2.2 1.6-4.9 2.2-7.6 1.8-2.8-0.5-5.2-2.1-6.7-4.2l-2.6-0.4c-2.2 1.7-5 2.5-7.9 2-2.7-0.4-5.1-1.9-6.7-4.1-0.1-0.1-0.1-0.2-0.2-0.3l-2.4-0.4 0.1-0.4z" fill="#231815" p-id="3182"></path><path d="M761.1 569.6c-23.8 0-47.1-8.1-66-23.5-1.5-1.3-3.1-2.5-4.6-3.7-12.7-10.2-24.6-19.8-30.9-35-3.3-4.5-3.2-10.8 0.4-15.2 2.1-2.6 5-4.1 8.1-4.5-0.3-3.2 0.6-6.4 2.8-9.1 2.2-2.7 5.3-4.2 8.5-4.5-0.2-3.1 0.7-6.2 2.8-8.7 2.1-2.6 5-4.1 8.1-4.5-0.3-3.2 0.6-6.4 2.8-9.1 2.6-3.2 6.5-4.8 10.4-4.5l1.5-1.8 3.5-4.3 3.8 0.4c19.6 2.1 31.2 11.6 46 23.6l1.7 1.4c27.3 22.3 41.4 56.7 37.8 92.1l-0.5 4.6-4.4 1.4c-10.5 3.3-21.2 4.9-31.8 4.9zM674 505.2c5.3 10.2 14.6 17.8 25.3 26.3 1.5 1.2 3.1 2.5 4.7 3.8 22.4 18.3 52.1 24.6 80.2 17.4 1.5-29-10.7-56.9-33.1-75.1l-1.7-1.4c-11.8-9.6-20.2-16.5-31.8-19.4-0.4 0.9-0.9 1.8-1.5 2.6-1.8 2.2-4.4 3.5-7.1 3.7l0.1 0.1-1.7 2v0.3c0.3 2.7-0.5 5.4-2.3 7.5-1.7 2.1-4.1 3.4-6.8 3.7h-0.4l-1.5 1.9-0.3-0.2v0.3c0.3 2.7-0.5 5.4-2.3 7.5-1.8 2.2-4.4 3.5-7 3.7l0.2 0.2-1.8 2.1c0.3 2.7-0.4 5.4-2.2 7.6-1.9 2.3-4.5 3.5-7.2 3.7l-1.5 1.9-0.3-0.2z" fill="#231815" p-id="3183"></path><path d="M688.7 646.8c-2.4 0-4.8-0.2-7.2-0.5-5.5 0.6-10.9-2.6-13-8-1.2-3.1-1-6.4 0.2-9.3-2.9-1.3-5.3-3.7-6.5-7-1.2-3.2-1-6.7 0.3-9.6-2.8-1.3-5-3.7-6.2-6.8-1.2-3.1-1-6.4 0.2-9.3-2.9-1.3-5.3-3.7-6.5-7-1.5-3.9-0.9-8 1.3-11.3l-2.8-7.3 2.2-3.1c11.6-15.9 25.7-21.3 43.5-28l2.1-0.8c32.9-12.5 69.8-7.5 98.6 13.3l3.7 2.7-1 4.5c-7.8 34.7-32.1 62.9-65 75.4-1.9 0.7-3.7 1.4-5.5 2.1-12.8 5.3-25.1 10-38.4 10z m-2-14c11.5 0.6 22.7-3.8 35.5-8.7 1.8-0.7 3.7-1.4 5.6-2.2 27-10.3 47.4-32.8 55.1-60.8-24.4-15.8-54.6-19.2-81.6-8.9l-2.1 0.8c-14.2 5.4-24.4 9.2-32.7 17.9 0.6 0.8 1.1 1.7 1.5 2.6 1 2.7 0.8 5.5-0.3 8l0.1-0.1 0.9 2.5c0.1 0 0.1 0.1 0.2 0.1 2.5 1.1 4.4 3.1 5.4 5.7 1 2.5 0.9 5.3-0.2 7.7l-0.2 0.4 0.9 2.3-0.4 0.2c2.5 1 4.6 3.1 5.7 5.8 1 2.7 0.8 5.5-0.3 8l0.1-0.1 0.9 2.5c0.1 0 0.1 0.1 0.2 0.1 2.5 1.1 4.4 3.1 5.4 5.7s0.9 5.3-0.2 7.8c0 0.1-0.1 0.2-0.1 0.2l0.9 2.3-0.3 0.2z" fill="#231815" p-id="3184"></path><path d="M801.2 704.3c-0.7 0-1.3-0.1-2-0.2-3.3-0.5-6.1-2.3-7.9-4.8-2.6 1.9-5.9 2.7-9.3 2.2-3.4-0.6-6.3-2.5-8.2-5.1-2.5 1.7-5.7 2.5-8.9 2-3.3-0.5-6.1-2.3-7.9-4.8-2.6 1.8-5.9 2.7-9.3 2.2-4.1-0.7-7.4-3.3-9.1-6.7l-7.8-1.3-1.5-3.5c-8-18-5.6-32.8-2.5-51.6l0.4-2.2c5.6-34.7 28.4-64.2 60.9-78.8l4.2-1.9 3.4 3.1c26.2 24.1 38.4 59.2 32.8 94-0.3 2-0.6 3.9-0.9 5.8-2.5 16.1-4.9 31.2-14.8 44.2-2.2 4.5-6.7 7.4-11.6 7.4z m-0.1-19.2l2.4 0.4v0.2c6.2-9.7 8.1-21.5 10.2-35.1 0.3-1.9 0.6-3.9 0.9-5.9 4.6-28.5-4.7-57.4-25.1-78.2-25.9 13.2-43.9 37.7-48.5 66.2l-0.4 2.2c-2.5 15-4.2 25.7-0.9 37.3 1-0.1 2-0.1 3 0 2.9 0.5 5.3 2.1 6.9 4.4l0.7 0.1 1.6 0.2c2.2-1.7 5.1-2.6 8-2.1 2.6 0.4 5 1.9 6.6 4l0.2 0.3 2.5 0.3-0.1 0.5h0.1c0.1-0.1 0.2-0.1 0.3-0.2 2.2-1.6 4.9-2.2 7.6-1.8 2.8 0.5 5.2 2.1 6.7 4.2v-0.3l2.7 0.5c2.1-1.6 4.9-2.3 7.7-1.9 2.7 0.4 5.1 1.9 6.7 4.1 0.1 0.4 0.2 0.5 0.2 0.6z" fill="#231815" p-id="3185"></path><path d="M873.1 674.9l-3.8-0.4c-19.6-2.1-31.2-11.6-46-23.6l-1.7-1.4c-27.3-22.3-41.4-56.7-37.8-92.1l0.5-4.6 4.4-1.4c34-10.6 70.5-3.7 97.8 18.6 1.5 1.3 3.1 2.5 4.6 3.7 12.7 10.2 24.6 19.8 30.9 35 3.3 4.5 3.2 10.8-0.4 15.2-2.1 2.6-5 4.1-8.1 4.5 0.3 3.2-0.6 6.4-2.8 9.1-2.2 2.7-5.3 4.2-8.5 4.5 0.2 3.1-0.7 6.2-2.8 8.7-2.1 2.6-5 4.1-8.1 4.5 0.3 3.2-0.6 6.4-2.8 9.1-2.6 3.2-6.5 4.8-10.4 4.5l-5 6.1z m-75.7-111.5c-1.5 29 10.7 56.9 33.1 75.1l1.7 1.4c11.8 9.6 20.2 16.5 31.8 19.4 0.4-0.9 0.9-1.8 1.5-2.6 1.8-2.2 4.4-3.5 7.1-3.7l-0.1-0.1 1.7-2v-0.3c-0.3-2.7 0.5-5.4 2.3-7.5 1.7-2.1 4.1-3.4 6.8-3.7h0.4l1.5-1.9 0.4 0.3c-0.4-2.7 0.3-5.6 2.2-7.8 1.8-2.2 4.4-3.5 7-3.7l-0.1-0.1 1.7-2c-0.3-2.7 0.4-5.5 2.2-7.8 1.9-2.3 4.5-3.6 7.3-3.7l1.5-1.8 0.1 0.1c-5.3-10.2-14.6-17.8-25.3-26.3-1.5-1.2-3.1-2.5-4.7-3.8-22.2-18.4-51.9-24.7-80.1-17.5zM717.3 321l-2.9-3.6c-22.6-27.5-29.8-64-19.4-97.6 0.6-1.9 1.2-3.8 1.7-5.6 4.7-15.6 9.2-30.3 20.8-41.7 3-4.7 8.8-7 14.2-5.3 3.2 1 5.7 3.1 7.2 5.9 2.8-1.5 6.2-1.9 9.5-0.8 3.3 1 5.9 3.3 7.4 6.2 2.8-1.4 6-1.7 9.1-0.7 3.2 1 5.7 3.1 7.2 5.9 2.8-1.5 6.2-1.9 9.5-0.8 4 1.2 6.9 4.3 8.1 7.9l7.5 2.3 1 3.6c5.4 18.9 1 33.3-4.7 51.5l-0.7 2.1c-10.4 33.6-37 59.6-71.2 69.5l-4.3 1.2z m7.8-136.1c-7.5 8.7-11 20.2-14.9 33.3-0.6 1.9-1.2 3.8-1.7 5.7-8.6 27.6-3.3 57.5 14 80.9 27.5-9.5 48.7-31.2 57.3-58.8l0.7-2.1c4.5-14.5 7.7-24.9 6-36.8-1 0-2-0.2-3-0.5-2.6-0.8-4.8-2.6-6-5 0-0.1-0.1-0.1-0.1-0.2l-2.4-0.7c-0.1 0.1-0.2 0.1-0.3 0.2-2.4 1.3-5.2 1.5-7.8 0.7-2.6-0.8-4.7-2.5-6-4.9l-0.2-0.4-2.3-0.7 0.1-0.3h-0.1c-0.1 0.1-0.2 0.1-0.3 0.2-2.4 1.3-5.2 1.5-7.8 0.7-2.6-0.8-4.7-2.6-6-5 0 0 0-0.1-0.1-0.1v0.1l-2.5-0.8c-0.1 0-0.2 0.1-0.2 0.1-2.4 1.3-5.2 1.5-7.8 0.7-2.6-0.8-4.7-2.6-6-5-0.1-0.1-0.1-0.2-0.2-0.4l-2.5-0.8 0.1-0.1z" fill="#231815" p-id="3186"></path><path d="M703.5 321.3c-29.1 0-56.9-11.9-76.8-33.4-1.4-1.5-2.7-2.9-4-4.3-11.1-11.9-21.6-23.1-25.7-38.9-2.6-4.9-1.7-11.1 2.5-15 2.4-2.3 5.6-3.4 8.7-3.3 0.1-3.2 1.5-6.3 4-8.6 2.5-2.4 5.8-3.5 9.1-3.3 0.2-3.1 1.6-6 4-8.3 2.4-2.3 5.6-3.4 8.7-3.3 0.1-3.2 1.5-6.3 4-8.6 3-2.8 7.1-3.8 10.9-3.1l1.7-1.6 4-3.7 3.7 0.9c19.1 4.8 29.3 15.8 42.3 29.8l1.5 1.6c23.9 25.8 33.1 61.9 24.6 96.4l-1.1 4.5-4.6 0.8c-5.9 1-11.7 1.4-17.5 1.4z m-92-76.9c3.8 10.9 12 19.6 21.4 29.6 1.3 1.4 2.7 2.9 4.1 4.4 19.6 21.2 48.1 31.6 77 28.3 5.5-28.6-2.7-57.8-22.3-79l-1.5-1.6c-10.3-11.2-17.7-19.2-28.8-23.6-0.5 0.8-1.1 1.6-1.9 2.3-2 1.9-4.6 2.8-7.4 2.7h-0.3l-1.8 1.7c0 2.8-1.1 5.5-3.3 7.5-2 1.8-4.5 2.8-7.2 2.7h-0.4l-1.8 1.6-0.3-0.3c0 2.7-1.1 5.5-3.3 7.5-2 1.9-4.6 2.8-7.3 2.7h-0.1v0.1l-1.9 1.8v0.3c-0.1 2.7-1.3 5.3-3.3 7.1s-4.6 2.8-7.3 2.7h-0.3l-1.8 1.6-0.2-0.1z" fill="#231815" p-id="3187"></path><path d="M613.2 384.4c-5.1 0-10.3-0.6-15.5-2.1-5.6-0.2-10.5-4.1-11.7-9.7-0.7-3.2-0.1-6.5 1.5-9.2-2.7-1.7-4.7-4.4-5.5-7.8-0.8-3.4-0.1-6.8 1.7-9.5-2.5-1.7-4.5-4.4-5.2-7.6-0.7-3.2-0.1-6.5 1.5-9.2-2.7-1.7-4.7-4.4-5.5-7.8-0.9-4 0.2-8 2.8-10.9l-0.5-2.3h0.1l-1.2-5.4 2.6-2.7c13.7-14.2 28.4-17.5 46.9-21.7l2.2-0.5c34.3-7.8 70.1 2.3 95.8 26.9l3.3 3.2-1.6 4.3c-12.5 33.3-40.5 57.8-74.8 65.6-1.9 0.4-3.9 0.9-5.7 1.3-10.7 2.7-20.9 5.1-31.2 5.1z m-8.4-14.7c11.3 2.1 23-0.6 36.3-3.7 1.9-0.4 3.9-0.9 5.8-1.4 28.2-6.4 51.5-25.9 63.1-52.6-22-19.1-51.4-26.6-79.6-20.2l-2.2 0.5c-14.8 3.4-25.4 5.7-34.9 13.2 0.5 0.9 0.9 1.8 1.1 2.8 0.6 2.8 0 5.6-1.4 7.8h0.2l0.5 2.6c2.3 1.4 4 3.7 4.7 6.5 0.6 2.6 0.1 5.3-1.3 7.6l-0.2 0.3 0.6 2.4-0.4 0.1c2.4 1.4 4.2 3.7 4.8 6.6 0.6 2.8 0 5.6-1.4 7.8h0.1l0.5 2.6c2.3 1.4 4.1 3.7 4.7 6.5 0.6 2.8 0 5.7-1.5 7.9l0.6 2.4-0.1 0.3z" fill="#231815" p-id="3188"></path><path d="M710 456.6c-1.2 0-2.4-0.2-3.7-0.6-3.2-1-5.7-3.1-7.2-5.9-2.8 1.5-6.2 1.9-9.5 0.8-3.3-1-5.9-3.3-7.4-6.2-2.8 1.4-6 1.7-9.1 0.7-3.2-1-5.7-3.1-7.2-5.9-2.8 1.5-6.2 1.9-9.5 0.8-3.9-1.2-6.8-4.2-8.1-7.8l-2.3-0.7v-0.1l-5.3-1.6-1-3.6c-5.4-18.9-1-33.3 4.7-51.5l0.7-2.1c10.4-33.6 37-59.6 71.2-69.5l4.4-1.3 2.9 3.6c22.6 27.5 29.8 64 19.4 97.6-0.6 1.9-1.2 3.8-1.7 5.6-4.7 15.6-9.2 30.3-20.8 41.7-2.2 3.8-6.3 6-10.5 6z m0.8-19.3l2.3 0.7-0.1 0.2c7.5-8.7 11-20.2 14.9-33.3 0.6-1.9 1.2-3.8 1.7-5.7 8.6-27.6 3.3-57.5-14-80.9-27.5 9.5-48.7 31.2-57.3 58.8l-0.7 2.1c-4.5 14.5-7.7 24.9-6 36.8 1 0 2 0.2 3 0.5 2.6 0.8 4.8 2.6 6 5 0 0 0 0.1 0.1 0.1v-0.1l2.5 0.8c0.1 0 0.2-0.1 0.2-0.1 2.4-1.3 5.2-1.5 7.8-0.7 2.6 0.8 4.7 2.5 6 4.9l0.2 0.3 2.4 0.7-0.1 0.4h0.1c2.4-1.3 5.3-1.7 8.1-0.9 2.6 0.8 4.7 2.6 6 5 0 0 0 0.1 0.1 0.1v-0.1l2.5 0.8c2.4-1.3 5.3-1.7 8-0.9 2.6 0.8 4.7 2.6 6 5 0.2 0.3 0.3 0.4 0.3 0.5z" fill="#231815" p-id="3189"></path><path d="M783.6 437.3l-3.7-0.9c-19.1-4.8-29.3-15.8-42.3-29.8l-1.5-1.6c-23.9-25.8-33.1-61.9-24.6-96.5l1.1-4.5 4.6-0.8c35.1-5.8 70.4 6.2 94.3 32 1.4 1.5 2.7 2.9 4 4.3 11.1 11.9 21.6 23.1 25.7 38.9 2.6 4.9 1.7 11.1-2.5 15-2.4 2.3-5.6 3.4-8.7 3.3-0.1 3.2-1.5 6.3-4 8.6-2.5 2.4-5.8 3.5-9.1 3.3-0.2 3.1-1.5 6-4 8.3-2.4 2.3-5.6 3.4-8.7 3.3-0.1 3.2-1.5 6.3-4 8.6-3 2.8-7.1 3.8-10.9 3.1l-1.7 1.6-4 3.8z m-59.5-120.9c-5.5 28.6 2.7 57.8 22.3 79l1.5 1.6c10.3 11.2 17.7 19.2 28.8 23.6 0.5-0.9 1.1-1.6 1.9-2.3 2.1-2 4.8-2.9 7.5-2.7l-0.1-0.1 2-1.8c0-2.7 1.1-5.4 3.3-7.4 2-1.8 4.5-2.8 7.2-2.7h0.4l1.8-1.6 0.3 0.3v-0.3c0.1-2.7 1.3-5.3 3.3-7.1 2.1-2 4.8-2.8 7.5-2.7l-0.1-0.1 2-1.8c0-2.7 1.1-5.4 3.3-7.4 2.2-2 5-2.9 7.7-2.7l1.8-1.6 0.1 0.1c-3.8-10.9-12-19.6-21.4-29.6-1.3-1.4-2.7-2.9-4.1-4.4-19.6-21.2-48.1-31.6-77-28.3z" fill="#231815" p-id="3190"></path><path d="M786.3 344.7c-26.8 0-52.8-10.3-72.8-29.5l-3.3-3.2 1.6-4.3c12.5-33.3 40.5-57.8 74.8-65.6 1.9-0.4 3.9-0.9 5.7-1.3 15.8-3.7 30.8-7.2 46.5-2.8 5.6 0.2 10.5 4.1 11.7 9.7 0.7 3.2 0.1 6.5-1.5 9.2 2.7 1.7 4.7 4.4 5.5 7.8 0.8 3.4 0.1 6.8-1.7 9.5 2.5 1.7 4.5 4.4 5.2 7.6 0.7 3.2 0.1 6.5-1.5 9.2 2.7 1.7 4.7 4.4 5.5 7.8 0.9 4-0.2 8-2.8 10.9l0.5 2.3h-0.1l1.2 5.4-2.6 2.7c-13.7 14.2-28.4 17.5-46.9 21.7l-2.2 0.5c-7.4 1.6-15.2 2.4-22.8 2.4z m-59.7-36.4c22 19.1 51.4 26.6 79.6 20.2l2.2-0.5c14.9-3.4 25.4-5.7 34.9-13.2-0.5-0.9-0.9-1.8-1.1-2.8-0.6-2.8 0-5.6 1.4-7.8h-0.1l-0.5-2.6c-2.3-1.4-4.1-3.7-4.7-6.5-0.6-2.6-0.1-5.3 1.3-7.6l0.2-0.3-0.6-2.4 0.4-0.1v-0.1c-2.4-1.4-4.2-3.7-4.8-6.6-0.6-2.8 0-5.6 1.4-7.8h-0.2l-0.5-2.7c-2.3-1.4-4-3.7-4.7-6.5-0.6-2.8 0-5.7 1.5-7.9l-0.6-2.4 0.3-0.1c-11.3-2.1-23 0.6-36.3 3.7-1.9 0.4-3.9 0.9-5.8 1.4-28.4 6.4-51.7 25.9-63.3 52.6z" fill="#231815" p-id="3191"></path></svg>