<?xml version="1.0" standalone="no"?><!DOCTYPE svg PUBLIC "-//W3C//DTD SVG 1.1//EN" "http://www.w3.org/Graphics/SVG/1.1/DTD/svg11.dtd"><svg t="1551692762265" class="icon" style="" viewBox="0 0 1024 1024" version="1.1" xmlns="http://www.w3.org/2000/svg" p-id="3222" xmlns:xlink="http://www.w3.org/1999/xlink" width="100" height="100"><defs><style type="text/css"></style></defs><path d="M511.073908 846.932212c-20.268626 0-38.909172-9.126868-51.123354-25.066909L257.55389 558.069245c-3.305279-3.783163-5.435803-7.390317-6.794753-9.67229-36.391838-51.014884-55.905264-111.74299-55.905264-174.963871C195.609073 203.451692 337.770863 65.290005 511.745197 65.290005c174.36012 0 316.220035 138.228201 316.220035 308.142056-0.737804 63.379493-20.234857 123.614365-56.408731 174.670182-1.694595 2.851954-3.825119 6.358825-6.962576 9.957792L562.197262 821.8827c-12.214183 15.922644-30.854728 25.049512-51.123354 25.049512zM308.61073 512.088004a37.915541 37.915541 0 0 1 2.617617 3.037173L511.073908 775.60777l199.846584-260.482593c0.352017-0.461511 0.721431-0.923022 1.107217-1.358951l2.080382-3.422959c0.268106-0.411369 0.553609-0.821715 0.839111-1.233084 28.405957-39.764656 43.723827-86.819344 44.294832-136.080281 0-131.608433-111.021559-239.015675-247.496837-239.015676-136.25629 0-247.580748 107.473757-248.168126 239.569284 0 48.657186 15.083533 95.577822 43.623543 135.526673l2.684132 4.236488v0.033769c-0.066515-0.001023-0.670266-0.663102-1.274016-1.292436z m404.877237 0.050142c0 0.008186 0 0.016373-0.016373 0.025583 0.016373-0.008186 0.016373-0.017396 0.016373-0.025583z m0.050142-0.050142c0 0.016373-0.016373 0.025583-0.033769 0.041956 0.016373-0.016373 0.033769-0.025583 0.033769-0.041956z" fill="#444444" p-id="3223"></path><path d="M907.158898 958.708971h-0.184195l-790.32496-4.312212a34.346249 34.346249 0 0 1-29.680996-17.381879 34.342156 34.342156 0 0 1 0.235361-34.378995c0-0.016373 67.113537-114.226554 100.518344-171.415045 9.546424-16.400528 30.604018-21.912056 46.996361-12.340049s21.912056 30.620391 12.331863 47.004547c-18.774599 32.155351-48.203862 82.322937-70.385047 120.107495l670.511153 3.657296c-23.053042-39.512922-54.05922-92.666516-73.891917-126.508275-9.597589-16.375969-4.094248-37.424354 12.281721-47.02092 16.3422-9.597589 37.415145-4.110621 47.012733 12.273535 34.865065 59.496046 104.276948 178.654936 104.276948 178.654936a34.355459 34.355459 0 0 1 0.050142 34.496675 34.367739 34.367739 0 0 1-29.747511 17.162891z" fill="#444444" p-id="3224"></path><path d="M511.99693 525.652951c-80.518848 0-146.038074-65.51104-146.038074-146.038074s65.519226-146.038074 146.038074-146.038074 146.038074 65.51104 146.038074 146.038074-65.519226 146.038074-146.038074 146.038074z m0-206.171639c-33.154098 0-60.133565 26.979468-60.133565 60.133565s26.979468 60.133565 60.133565 60.133566 60.133565-26.979468 60.133566-60.133566-26.979468-60.133565-60.133566-60.133565z" fill="#00D8A0" p-id="3225"></path></svg>