<?xml version="1.0" standalone="no"?><!DOCTYPE svg PUBLIC "-//W3C//DTD SVG 1.1//EN" "http://www.w3.org/Graphics/SVG/1.1/DTD/svg11.dtd"><svg t="1551692855176" class="icon" style="" viewBox="0 0 1024 1024" version="1.1" xmlns="http://www.w3.org/2000/svg" p-id="5305" xmlns:xlink="http://www.w3.org/1999/xlink" width="100" height="100"><defs><style type="text/css"></style></defs><path d="M768 628.053333H256c-13.653333 0-25.6-8.533333-30.72-20.48-5.12-11.946667-3.413333-27.306667 6.826667-37.546666l143.36-148.48V242.346667c0-75.093333 61.44-136.533333 136.533333-136.533334s136.533333 61.44 136.533333 136.533334v179.2l143.36 148.48c10.24 10.24 11.946667 23.893333 6.826667 37.546666-5.12 11.946667-17.066667 20.48-30.72 20.48z m-431.786667-68.266666h351.573334l-97.28-100.693334c-6.826667-6.826667-10.24-15.36-10.24-23.893333V242.346667c0-37.546667-30.72-68.266667-68.266667-68.266667s-68.266667 30.72-68.266667 68.266667v192.853333c0 8.533333-3.413333 17.066667-10.24 23.893333l-97.28 100.693334z" fill="#3793DF" p-id="5306"></path><path d="M329.386667 918.186667h-6.826667c-18.773333-3.413333-30.72-20.48-27.306667-39.253334l34.133334-192.853333c3.413333-18.773333 20.48-30.72 39.253333-27.306667 18.773333 3.413333 30.72 20.48 27.306667 39.253334l-34.133334 192.853333c-1.706667 15.36-15.36 27.306667-32.426666 27.306667zM500.053333 918.186667c-18.773333 0-34.133333-15.36-34.133333-34.133334V691.2c0-18.773333 15.36-34.133333 34.133333-34.133333s34.133333 15.36 34.133334 34.133333v192.853333c0 18.773333-15.36 34.133333-34.133334 34.133334zM670.72 918.186667c-17.066667 0-30.72-11.946667-34.133333-29.013334l-34.133334-192.853333c-3.413333-18.773333 8.533333-35.84 27.306667-39.253333 18.773333-3.413333 35.84 8.533333 39.253333 27.306666l34.133334 192.853334c3.413333 18.773333-8.533333 35.84-27.306667 39.253333-1.706667 1.706667-3.413333 1.706667-5.12 1.706667z" fill="#EB4AF4" p-id="5307"></path><path d="M807.253333 918.186667H216.746667c-22.186667 0-40.96-10.24-54.613334-27.306667-13.653333-17.066667-17.066667-39.253333-10.24-61.44l71.68-245.76c5.12-18.773333 23.893333-29.013333 42.666667-23.893333 18.773333 5.12 29.013333 23.893333 23.893333 42.666666l-71.68 245.76h590.506667l-71.68-245.76c-5.12-18.773333 5.12-37.546667 23.893333-42.666666 18.773333-5.12 37.546667 5.12 42.666667 23.893333l71.68 245.76c6.826667 20.48 1.706667 42.666667-10.24 59.733333-17.066667 18.773333-37.546667 29.013333-58.026667 29.013334z" fill="#3793DF" p-id="5308"></path></svg>