<?xml version="1.0" standalone="no"?><!DOCTYPE svg PUBLIC "-//W3C//DTD SVG 1.1//EN" "http://www.w3.org/Graphics/SVG/1.1/DTD/svg11.dtd"><svg t="1551533263972" class="icon" style="" viewBox="0 0 1024 1024" version="1.1" xmlns="http://www.w3.org/2000/svg" p-id="4104" xmlns:xlink="http://www.w3.org/1999/xlink" width="200" height="200"><defs><style type="text/css"></style></defs><path d="M744.7 218.7m-154.9 0a154.9 154.9 0 1 0 309.8 0 154.9 154.9 0 1 0-309.8 0Z" fill="#DD4238" p-id="4105"></path><path d="M634.1 929.6V433.7c0-35.6-31.8-63.8-66.9-57.8C325 417.3 136.5 677.5 125.7 929c-0.5 12.4 9.8 22.7 22.2 22.7h464c12.2 0 22.2-9.9 22.2-22.1z" fill="#DD4238" p-id="4106"></path><path d="M855.3 959.8c-18.3 0-33.2-14.9-33.2-33.2V705.4c0-18.3-14.9-33.2-33.2-33.2s-33.2 14.9-33.2 33.2c0 18.3-14.9 33.2-33.2 33.2s-33.2-14.9-33.2-33.2c0-54.9 44.7-99.6 99.6-99.6s99.6 44.7 99.6 99.6v221.2c0 18.4-14.9 33.2-33.2 33.2z" fill="#3E6493" p-id="4107"></path><path d="M793.4 641.6l-2 2c-21.1 21.1-55.2 21.1-76.3 0l-174-174c-21.1-21.1-21.1-55.2 0-76.3l2-2c21.1-21.1 55.2-21.1 76.3 0l174 174c21.1 21.1 21.1 55.2 0 76.3z" fill="#DD4238" p-id="4108"></path></svg>