<?xml version="1.0" standalone="no"?><!DOCTYPE svg PUBLIC "-//W3C//DTD SVG 1.1//EN" "http://www.w3.org/Graphics/SVG/1.1/DTD/svg11.dtd"><svg t="1551526886491" class="icon" style="" viewBox="0 0 1024 1024" version="1.1" xmlns="http://www.w3.org/2000/svg" p-id="5960" data-spm-anchor-id="a313x.7781069.0.i20" xmlns:xlink="http://www.w3.org/1999/xlink" width="200" height="200"><defs><style type="text/css"></style></defs><path d="M69.485714 337.92a69.851429 69.851429 0 0 0-69.12 69.851429v208.822857a69.851429 69.851429 0 0 0 69.485715 69.485714h194.56L522.605714 1024V0L264.411429 337.92z m252.708572 44.617143l127.268571-166.4v591.725714l-126.902857-166.4-21.942857-28.525714H73.508571v-201.874286h227.108572zM645.12 9.142857a36.571429 36.571429 0 0 0-20.114286 70.217143 449.828571 449.828571 0 0 1 0 864.914286 36.937143 36.937143 0 0 0 9.874286 73.142857 36.571429 36.571429 0 0 0 9.874286 0 522.971429 522.971429 0 0 0 0-1005.714286z" fill="#e0620d" p-id="5961" data-spm-anchor-id="a313x.7781069.0.i17" class=""></path><path d="M620.251429 690.102857a36.571429 36.571429 0 1 0 31.451428 65.828572 270.628571 270.628571 0 0 0 0-488.228572 36.571429 36.571429 0 0 0-31.451428 65.828572 197.485714 197.485714 0 0 1 0 356.571428z" fill="#e0620d" p-id="5962" data-spm-anchor-id="a313x.7781069.0.i18" class=""></path></svg>